<mxfile host="app.diagrams.net" modified="2023-07-21T14:08:17.473Z" agent="Mozilla/5.0 (Macintosh; Intel Mac OS X 10_15_7) AppleWebKit/537.36 (KHTML, like Gecko) Chrome/114.0.0.0 Safari/537.36" etag="S_9DG8zWQamUwktD6WyG" version="21.6.2" type="github">
  <diagram name="Page-1" id="q-A4tyTJbdfdAy0BHmPS">
    <mxGraphModel dx="3388" dy="1557" grid="1" gridSize="10" guides="1" tooltips="1" connect="1" arrows="1" fold="1" page="1" pageScale="1" pageWidth="850" pageHeight="1100" math="0" shadow="0">
      <root>
        <mxCell id="0" />
        <mxCell id="1" parent="0" />
        <mxCell id="92NGAnlIAFUWFbHLshSl-4" value="&lt;span style=&quot;font-size: 20px;&quot;&gt;Currently&lt;/span&gt;" style="text;strokeColor=none;align=center;fillColor=none;html=1;verticalAlign=middle;whiteSpace=wrap;rounded=0;" parent="1" vertex="1">
          <mxGeometry x="50" y="30" width="180" height="40" as="geometry" />
        </mxCell>
        <mxCell id="92NGAnlIAFUWFbHLshSl-5" value="" style="shape=stencil(fVbLctswDPwaXXdIguDjnKb/kZk4taaunXHcNvn7QtVUNph6bxTJJbDgLsRJHt72T6+7KYW3y/n0ffd7fr7sJ/kypTQf97vzfLHRJI+TPLyczrtv59PP4/P6/fq07FxGP06/lhPeV1xT9L6gUvhYZ2JFqX9nvq6Aw3y8AXRFTA4gAcIAHdUDskIiBSSfUgnomQAEzQOqoqT7gJYRmgO0ikZSqmGM0AuS3AeoJTCUNQSEcB+RbXkI0VBJiKSowQMSVO8DorFWzzohEtYF4veXBiUUBNknpIJI7k2h0SvJpMcIJOTqABaykAC2rJ6BHaGdMKhQH0FpACM4XJpFJHdmBRwYFORGhJrG8+0SIwFcJbCVSNGIFa4i29wZEEmJbnS81ciUyBqAWcU3gMr9bGasgz0zFarZXT3AWkJnyjY/D4AOYe7UkcPS1kgEa4qpeMDWOP9fV5Ne9qQLbRgLQD8BWF8dtVcrFevmrU2rFUK0F5C9krRQxp90lDMy2Z8gg9cSOtFdRR6sYP2D1Mes1X1CUeifLeV/mrm6mRVITAFDADRyAbmgeJXyX4g2SBn2d2LlYorw+zMq8WU1j3hFxIjgCNjg+tJ4mQ+H9aFyuz6+TGxqfdXI4x8=);lineShape=1;" parent="1" vertex="1">
          <mxGeometry x="83.62134806165636" y="123.59696417071143" width="17.295072045852294" height="17.31965990062713" as="geometry" />
        </mxCell>
        <mxCell id="92NGAnlIAFUWFbHLshSl-6" value="" style="shape=stencil(fVbLctswDPwaXXdIguDjnKb/kZk4taaunXHcNvn7QtVUNph6bxTJJbDgLsRJHt72T6+7KYW3y/n0ffd7fr7sJ/kypTQf97vzfLHRJI+TPLyczrtv59PP4/P6/fq07FxGP06/lhPeV1xT9L6gUvhYZ2JFqX9nvq6Aw3y8AXRFTA4gAcIAHdUDskIiBSSfUgnomQAEzQOqoqT7gJYRmgO0ikZSqmGM0AuS3AeoJTCUNQSEcB+RbXkI0VBJiKSowQMSVO8DorFWzzohEtYF4veXBiUUBNknpIJI7k2h0SvJpMcIJOTqABaykAC2rJ6BHaGdMKhQH0FpACM4XJpFJHdmBRwYFORGhJrG8+0SIwFcJbCVSNGIFa4i29wZEEmJbnS81ciUyBqAWcU3gMr9bGasgz0zFarZXT3AWkJnyjY/D4AOYe7UkcPS1kgEa4qpeMDWOP9fV5Ne9qQLbRgLQD8BWF8dtVcrFevmrU2rFUK0F5C9krRQxp90lDMy2Z8gg9cSOtFdRR6sYP2D1Mes1X1CUeifLeV/mrm6mRVITAFDADRyAbmgeJXyX4g2SBn2d2LlYorw+zMq8WU1j3hFxIjgCNjg+tJ4mQ+H9aFyuz6+TGxqfdXI4x8=);lineShape=1;" parent="1" vertex="1">
          <mxGeometry x="208.62134806165636" y="120.59696417071143" width="17.295072045852294" height="17.31965990062713" as="geometry" />
        </mxCell>
        <mxCell id="92NGAnlIAFUWFbHLshSl-7" value="" style="shape=stencil(fVbLctswDPwaXXdIguDjnKb/kZk4taaunXHcNvn7QtVUNph6bxTJJbDgLsRJHt72T6+7KYW3y/n0ffd7fr7sJ/kypTQf97vzfLHRJI+TPLyczrtv59PP4/P6/fq07FxGP06/lhPeV1xT9L6gUvhYZ2JFqX9nvq6Aw3y8AXRFTA4gAcIAHdUDskIiBSSfUgnomQAEzQOqoqT7gJYRmgO0ikZSqmGM0AuS3AeoJTCUNQSEcB+RbXkI0VBJiKSowQMSVO8DorFWzzohEtYF4veXBiUUBNknpIJI7k2h0SvJpMcIJOTqABaykAC2rJ6BHaGdMKhQH0FpACM4XJpFJHdmBRwYFORGhJrG8+0SIwFcJbCVSNGIFa4i29wZEEmJbnS81ciUyBqAWcU3gMr9bGasgz0zFarZXT3AWkJnyjY/D4AOYe7UkcPS1kgEa4qpeMDWOP9fV5Ne9qQLbRgLQD8BWF8dtVcrFevmrU2rFUK0F5C9krRQxp90lDMy2Z8gg9cSOtFdRR6sYP2D1Mes1X1CUeifLeV/mrm6mRVITAFDADRyAbmgeJXyX4g2SBn2d2LlYorw+zMq8WU1j3hFxIjgCNjg+tJ4mQ+H9aFyuz6+TGxqfdXI4x8=);lineShape=1;" parent="1" vertex="1">
          <mxGeometry x="112.62134806165636" y="210.59696417071143" width="17.295072045852294" height="17.31965990062713" as="geometry" />
        </mxCell>
        <mxCell id="92NGAnlIAFUWFbHLshSl-8" value="" style="shape=stencil(fVbLctswDPwaXXdIguDjnKb/kZk4taaunXHcNvn7QtVUNph6bxTJJbDgLsRJHt72T6+7KYW3y/n0ffd7fr7sJ/kypTQf97vzfLHRJI+TPLyczrtv59PP4/P6/fq07FxGP06/lhPeV1xT9L6gUvhYZ2JFqX9nvq6Aw3y8AXRFTA4gAcIAHdUDskIiBSSfUgnomQAEzQOqoqT7gJYRmgO0ikZSqmGM0AuS3AeoJTCUNQSEcB+RbXkI0VBJiKSowQMSVO8DorFWzzohEtYF4veXBiUUBNknpIJI7k2h0SvJpMcIJOTqABaykAC2rJ6BHaGdMKhQH0FpACM4XJpFJHdmBRwYFORGhJrG8+0SIwFcJbCVSNGIFa4i29wZEEmJbnS81ciUyBqAWcU3gMr9bGasgz0zFarZXT3AWkJnyjY/D4AOYe7UkcPS1kgEa4qpeMDWOP9fV5Ne9qQLbRgLQD8BWF8dtVcrFevmrU2rFUK0F5C9krRQxp90lDMy2Z8gg9cSOtFdRR6sYP2D1Mes1X1CUeifLeV/mrm6mRVITAFDADRyAbmgeJXyX4g2SBn2d2LlYorw+zMq8WU1j3hFxIjgCNjg+tJ4mQ+H9aFyuz6+TGxqfdXI4x8=);lineShape=1;" parent="1" vertex="1">
          <mxGeometry x="319.62134806165636" y="133.59696417071143" width="17.295072045852294" height="17.31965990062713" as="geometry" />
        </mxCell>
        <mxCell id="92NGAnlIAFUWFbHLshSl-9" value="" style="shape=stencil(fVbLctswDPwaXXdIguDjnKb/kZk4taaunXHcNvn7QtVUNph6bxTJJbDgLsRJHt72T6+7KYW3y/n0ffd7fr7sJ/kypTQf97vzfLHRJI+TPLyczrtv59PP4/P6/fq07FxGP06/lhPeV1xT9L6gUvhYZ2JFqX9nvq6Aw3y8AXRFTA4gAcIAHdUDskIiBSSfUgnomQAEzQOqoqT7gJYRmgO0ikZSqmGM0AuS3AeoJTCUNQSEcB+RbXkI0VBJiKSowQMSVO8DorFWzzohEtYF4veXBiUUBNknpIJI7k2h0SvJpMcIJOTqABaykAC2rJ6BHaGdMKhQH0FpACM4XJpFJHdmBRwYFORGhJrG8+0SIwFcJbCVSNGIFa4i29wZEEmJbnS81ciUyBqAWcU3gMr9bGasgz0zFarZXT3AWkJnyjY/D4AOYe7UkcPS1kgEa4qpeMDWOP9fV5Ne9qQLbRgLQD8BWF8dtVcrFevmrU2rFUK0F5C9krRQxp90lDMy2Z8gg9cSOtFdRR6sYP2D1Mes1X1CUeifLeV/mrm6mRVITAFDADRyAbmgeJXyX4g2SBn2d2LlYorw+zMq8WU1j3hFxIjgCNjg+tJ4mQ+H9aFyuz6+TGxqfdXI4x8=);lineShape=1;" parent="1" vertex="1">
          <mxGeometry x="240.62134806165636" y="186.59696417071143" width="17.295072045852294" height="17.31965990062713" as="geometry" />
        </mxCell>
        <mxCell id="92NGAnlIAFUWFbHLshSl-10" value="" style="shape=stencil(fVbLctswDPwaXXdIguDjnKb/kZk4taaunXHcNvn7QtVUNph6bxTJJbDgLsRJHt72T6+7KYW3y/n0ffd7fr7sJ/kypTQf97vzfLHRJI+TPLyczrtv59PP4/P6/fq07FxGP06/lhPeV1xT9L6gUvhYZ2JFqX9nvq6Aw3y8AXRFTA4gAcIAHdUDskIiBSSfUgnomQAEzQOqoqT7gJYRmgO0ikZSqmGM0AuS3AeoJTCUNQSEcB+RbXkI0VBJiKSowQMSVO8DorFWzzohEtYF4veXBiUUBNknpIJI7k2h0SvJpMcIJOTqABaykAC2rJ6BHaGdMKhQH0FpACM4XJpFJHdmBRwYFORGhJrG8+0SIwFcJbCVSNGIFa4i29wZEEmJbnS81ciUyBqAWcU3gMr9bGasgz0zFarZXT3AWkJnyjY/D4AOYe7UkcPS1kgEa4qpeMDWOP9fV5Ne9qQLbRgLQD8BWF8dtVcrFevmrU2rFUK0F5C9krRQxp90lDMy2Z8gg9cSOtFdRR6sYP2D1Mes1X1CUeifLeV/mrm6mRVITAFDADRyAbmgeJXyX4g2SBn2d2LlYorw+zMq8WU1j3hFxIjgCNjg+tJ4mQ+H9aFyuz6+TGxqfdXI4x8=);lineShape=1;" parent="1" vertex="1">
          <mxGeometry x="294.62134806165636" y="79.59696417071143" width="17.295072045852294" height="17.31965990062713" as="geometry" />
        </mxCell>
        <mxCell id="92NGAnlIAFUWFbHLshSl-11" value="" style="shape=stencil(fVbLctswDPwaXXdIguDjnKb/kZk4taaunXHcNvn7QtVUNph6bxTJJbDgLsRJHt72T6+7KYW3y/n0ffd7fr7sJ/kypTQf97vzfLHRJI+TPLyczrtv59PP4/P6/fq07FxGP06/lhPeV1xT9L6gUvhYZ2JFqX9nvq6Aw3y8AXRFTA4gAcIAHdUDskIiBSSfUgnomQAEzQOqoqT7gJYRmgO0ikZSqmGM0AuS3AeoJTCUNQSEcB+RbXkI0VBJiKSowQMSVO8DorFWzzohEtYF4veXBiUUBNknpIJI7k2h0SvJpMcIJOTqABaykAC2rJ6BHaGdMKhQH0FpACM4XJpFJHdmBRwYFORGhJrG8+0SIwFcJbCVSNGIFa4i29wZEEmJbnS81ciUyBqAWcU3gMr9bGasgz0zFarZXT3AWkJnyjY/D4AOYe7UkcPS1kgEa4qpeMDWOP9fV5Ne9qQLbRgLQD8BWF8dtVcrFevmrU2rFUK0F5C9krRQxp90lDMy2Z8gg9cSOtFdRR6sYP2D1Mes1X1CUeifLeV/mrm6mRVITAFDADRyAbmgeJXyX4g2SBn2d2LlYorw+zMq8WU1j3hFxIjgCNjg+tJ4mQ+H9aFyuz6+TGxqfdXI4x8=);lineShape=1;" parent="1" vertex="1">
          <mxGeometry x="444.62134806165636" y="95.59696417071143" width="17.295072045852294" height="17.31965990062713" as="geometry" />
        </mxCell>
        <mxCell id="92NGAnlIAFUWFbHLshSl-12" value="" style="shape=stencil(fVbLctswDPwaXXdIguDjnKb/kZk4taaunXHcNvn7QtVUNph6bxTJJbDgLsRJHt72T6+7KYW3y/n0ffd7fr7sJ/kypTQf97vzfLHRJI+TPLyczrtv59PP4/P6/fq07FxGP06/lhPeV1xT9L6gUvhYZ2JFqX9nvq6Aw3y8AXRFTA4gAcIAHdUDskIiBSSfUgnomQAEzQOqoqT7gJYRmgO0ikZSqmGM0AuS3AeoJTCUNQSEcB+RbXkI0VBJiKSowQMSVO8DorFWzzohEtYF4veXBiUUBNknpIJI7k2h0SvJpMcIJOTqABaykAC2rJ6BHaGdMKhQH0FpACM4XJpFJHdmBRwYFORGhJrG8+0SIwFcJbCVSNGIFa4i29wZEEmJbnS81ciUyBqAWcU3gMr9bGasgz0zFarZXT3AWkJnyjY/D4AOYe7UkcPS1kgEa4qpeMDWOP9fV5Ne9qQLbRgLQD8BWF8dtVcrFevmrU2rFUK0F5C9krRQxp90lDMy2Z8gg9cSOtFdRR6sYP2D1Mes1X1CUeifLeV/mrm6mRVITAFDADRyAbmgeJXyX4g2SBn2d2LlYorw+zMq8WU1j3hFxIjgCNjg+tJ4mQ+H9aFyuz6+TGxqfdXI4x8=);lineShape=1;" parent="1" vertex="1">
          <mxGeometry x="389.62134806165636" y="153.59696417071143" width="17.295072045852294" height="17.31965990062713" as="geometry" />
        </mxCell>
        <mxCell id="92NGAnlIAFUWFbHLshSl-13" value="" style="shape=stencil(fVbLctswDPwaXXdIguDjnKb/kZk4taaunXHcNvn7QtVUNph6bxTJJbDgLsRJHt72T6+7KYW3y/n0ffd7fr7sJ/kypTQf97vzfLHRJI+TPLyczrtv59PP4/P6/fq07FxGP06/lhPeV1xT9L6gUvhYZ2JFqX9nvq6Aw3y8AXRFTA4gAcIAHdUDskIiBSSfUgnomQAEzQOqoqT7gJYRmgO0ikZSqmGM0AuS3AeoJTCUNQSEcB+RbXkI0VBJiKSowQMSVO8DorFWzzohEtYF4veXBiUUBNknpIJI7k2h0SvJpMcIJOTqABaykAC2rJ6BHaGdMKhQH0FpACM4XJpFJHdmBRwYFORGhJrG8+0SIwFcJbCVSNGIFa4i29wZEEmJbnS81ciUyBqAWcU3gMr9bGasgz0zFarZXT3AWkJnyjY/D4AOYe7UkcPS1kgEa4qpeMDWOP9fV5Ne9qQLbRgLQD8BWF8dtVcrFevmrU2rFUK0F5C9krRQxp90lDMy2Z8gg9cSOtFdRR6sYP2D1Mes1X1CUeifLeV/mrm6mRVITAFDADRyAbmgeJXyX4g2SBn2d2LlYorw+zMq8WU1j3hFxIjgCNjg+tJ4mQ+H9aFyuz6+TGxqfdXI4x8=);lineShape=1;" parent="1" vertex="1">
          <mxGeometry x="337.62134806165636" y="193.59696417071143" width="17.295072045852294" height="17.31965990062713" as="geometry" />
        </mxCell>
        <mxCell id="92NGAnlIAFUWFbHLshSl-14" value="" style="shape=stencil(fVbLctswDPwaXXdIguDjnKb/kZk4taaunXHcNvn7QtVUNph6bxTJJbDgLsRJHt72T6+7KYW3y/n0ffd7fr7sJ/kypTQf97vzfLHRJI+TPLyczrtv59PP4/P6/fq07FxGP06/lhPeV1xT9L6gUvhYZ2JFqX9nvq6Aw3y8AXRFTA4gAcIAHdUDskIiBSSfUgnomQAEzQOqoqT7gJYRmgO0ikZSqmGM0AuS3AeoJTCUNQSEcB+RbXkI0VBJiKSowQMSVO8DorFWzzohEtYF4veXBiUUBNknpIJI7k2h0SvJpMcIJOTqABaykAC2rJ6BHaGdMKhQH0FpACM4XJpFJHdmBRwYFORGhJrG8+0SIwFcJbCVSNGIFa4i29wZEEmJbnS81ciUyBqAWcU3gMr9bGasgz0zFarZXT3AWkJnyjY/D4AOYe7UkcPS1kgEa4qpeMDWOP9fV5Ne9qQLbRgLQD8BWF8dtVcrFevmrU2rFUK0F5C9krRQxp90lDMy2Z8gg9cSOtFdRR6sYP2D1Mes1X1CUeifLeV/mrm6mRVITAFDADRyAbmgeJXyX4g2SBn2d2LlYorw+zMq8WU1j3hFxIjgCNjg+tJ4mQ+H9aFyuz6+TGxqfdXI4x8=);lineShape=1;" parent="1" vertex="1">
          <mxGeometry x="378.62134806165636" y="80.59696417071143" width="17.295072045852294" height="17.31965990062713" as="geometry" />
        </mxCell>
        <mxCell id="92NGAnlIAFUWFbHLshSl-15" value="" style="shape=stencil(fVbLctswDPwaXXdIguDjnKb/kZk4taaunXHcNvn7QtVUNph6bxTJJbDgLsRJHt72T6+7KYW3y/n0ffd7fr7sJ/kypTQf97vzfLHRJI+TPLyczrtv59PP4/P6/fq07FxGP06/lhPeV1xT9L6gUvhYZ2JFqX9nvq6Aw3y8AXRFTA4gAcIAHdUDskIiBSSfUgnomQAEzQOqoqT7gJYRmgO0ikZSqmGM0AuS3AeoJTCUNQSEcB+RbXkI0VBJiKSowQMSVO8DorFWzzohEtYF4veXBiUUBNknpIJI7k2h0SvJpMcIJOTqABaykAC2rJ6BHaGdMKhQH0FpACM4XJpFJHdmBRwYFORGhJrG8+0SIwFcJbCVSNGIFa4i29wZEEmJbnS81ciUyBqAWcU3gMr9bGasgz0zFarZXT3AWkJnyjY/D4AOYe7UkcPS1kgEa4qpeMDWOP9fV5Ne9qQLbRgLQD8BWF8dtVcrFevmrU2rFUK0F5C9krRQxp90lDMy2Z8gg9cSOtFdRR6sYP2D1Mes1X1CUeifLeV/mrm6mRVITAFDADRyAbmgeJXyX4g2SBn2d2LlYorw+zMq8WU1j3hFxIjgCNjg+tJ4mQ+H9aFyuz6+TGxqfdXI4x8=);lineShape=1;" parent="1" vertex="1">
          <mxGeometry x="530.6213480616564" y="88.59696417071143" width="17.295072045852294" height="17.31965990062713" as="geometry" />
        </mxCell>
        <mxCell id="92NGAnlIAFUWFbHLshSl-16" value="" style="shape=stencil(fVbLctswDPwaXXdIguDjnKb/kZk4taaunXHcNvn7QtVUNph6bxTJJbDgLsRJHt72T6+7KYW3y/n0ffd7fr7sJ/kypTQf97vzfLHRJI+TPLyczrtv59PP4/P6/fq07FxGP06/lhPeV1xT9L6gUvhYZ2JFqX9nvq6Aw3y8AXRFTA4gAcIAHdUDskIiBSSfUgnomQAEzQOqoqT7gJYRmgO0ikZSqmGM0AuS3AeoJTCUNQSEcB+RbXkI0VBJiKSowQMSVO8DorFWzzohEtYF4veXBiUUBNknpIJI7k2h0SvJpMcIJOTqABaykAC2rJ6BHaGdMKhQH0FpACM4XJpFJHdmBRwYFORGhJrG8+0SIwFcJbCVSNGIFa4i29wZEEmJbnS81ciUyBqAWcU3gMr9bGasgz0zFarZXT3AWkJnyjY/D4AOYe7UkcPS1kgEa4qpeMDWOP9fV5Ne9qQLbRgLQD8BWF8dtVcrFevmrU2rFUK0F5C9krRQxp90lDMy2Z8gg9cSOtFdRR6sYP2D1Mes1X1CUeifLeV/mrm6mRVITAFDADRyAbmgeJXyX4g2SBn2d2LlYorw+zMq8WU1j3hFxIjgCNjg+tJ4mQ+H9aFyuz6+TGxqfdXI4x8=);lineShape=1;" parent="1" vertex="1">
          <mxGeometry x="501.62134806165636" y="131.59696417071143" width="17.295072045852294" height="17.31965990062713" as="geometry" />
        </mxCell>
        <mxCell id="92NGAnlIAFUWFbHLshSl-17" value="" style="shape=stencil(fVbLctswDPwaXXdIguDjnKb/kZk4taaunXHcNvn7QtVUNph6bxTJJbDgLsRJHt72T6+7KYW3y/n0ffd7fr7sJ/kypTQf97vzfLHRJI+TPLyczrtv59PP4/P6/fq07FxGP06/lhPeV1xT9L6gUvhYZ2JFqX9nvq6Aw3y8AXRFTA4gAcIAHdUDskIiBSSfUgnomQAEzQOqoqT7gJYRmgO0ikZSqmGM0AuS3AeoJTCUNQSEcB+RbXkI0VBJiKSowQMSVO8DorFWzzohEtYF4veXBiUUBNknpIJI7k2h0SvJpMcIJOTqABaykAC2rJ6BHaGdMKhQH0FpACM4XJpFJHdmBRwYFORGhJrG8+0SIwFcJbCVSNGIFa4i29wZEEmJbnS81ciUyBqAWcU3gMr9bGasgz0zFarZXT3AWkJnyjY/D4AOYe7UkcPS1kgEa4qpeMDWOP9fV5Ne9qQLbRgLQD8BWF8dtVcrFevmrU2rFUK0F5C9krRQxp90lDMy2Z8gg9cSOtFdRR6sYP2D1Mes1X1CUeifLeV/mrm6mRVITAFDADRyAbmgeJXyX4g2SBn2d2LlYorw+zMq8WU1j3hFxIjgCNjg+tJ4mQ+H9aFyuz6+TGxqfdXI4x8=);lineShape=1;" parent="1" vertex="1">
          <mxGeometry x="469.62134806165636" y="186.59696417071143" width="17.295072045852294" height="17.31965990062713" as="geometry" />
        </mxCell>
        <mxCell id="92NGAnlIAFUWFbHLshSl-18" value="" style="shape=stencil(fVbLctswDPwaXXdIguDjnKb/kZk4taaunXHcNvn7QtVUNph6bxTJJbDgLsRJHt72T6+7KYW3y/n0ffd7fr7sJ/kypTQf97vzfLHRJI+TPLyczrtv59PP4/P6/fq07FxGP06/lhPeV1xT9L6gUvhYZ2JFqX9nvq6Aw3y8AXRFTA4gAcIAHdUDskIiBSSfUgnomQAEzQOqoqT7gJYRmgO0ikZSqmGM0AuS3AeoJTCUNQSEcB+RbXkI0VBJiKSowQMSVO8DorFWzzohEtYF4veXBiUUBNknpIJI7k2h0SvJpMcIJOTqABaykAC2rJ6BHaGdMKhQH0FpACM4XJpFJHdmBRwYFORGhJrG8+0SIwFcJbCVSNGIFa4i29wZEEmJbnS81ciUyBqAWcU3gMr9bGasgz0zFarZXT3AWkJnyjY/D4AOYe7UkcPS1kgEa4qpeMDWOP9fV5Ne9qQLbRgLQD8BWF8dtVcrFevmrU2rFUK0F5C9krRQxp90lDMy2Z8gg9cSOtFdRR6sYP2D1Mes1X1CUeifLeV/mrm6mRVITAFDADRyAbmgeJXyX4g2SBn2d2LlYorw+zMq8WU1j3hFxIjgCNjg+tJ4mQ+H9aFyuz6+TGxqfdXI4x8=);lineShape=1;" parent="1" vertex="1">
          <mxGeometry x="600.6213480616564" y="96.59696417071143" width="17.295072045852294" height="17.31965990062713" as="geometry" />
        </mxCell>
        <mxCell id="92NGAnlIAFUWFbHLshSl-19" value="" style="shape=stencil(fVbLctswDPwaXXdIguDjnKb/kZk4taaunXHcNvn7QtVUNph6bxTJJbDgLsRJHt72T6+7KYW3y/n0ffd7fr7sJ/kypTQf97vzfLHRJI+TPLyczrtv59PP4/P6/fq07FxGP06/lhPeV1xT9L6gUvhYZ2JFqX9nvq6Aw3y8AXRFTA4gAcIAHdUDskIiBSSfUgnomQAEzQOqoqT7gJYRmgO0ikZSqmGM0AuS3AeoJTCUNQSEcB+RbXkI0VBJiKSowQMSVO8DorFWzzohEtYF4veXBiUUBNknpIJI7k2h0SvJpMcIJOTqABaykAC2rJ6BHaGdMKhQH0FpACM4XJpFJHdmBRwYFORGhJrG8+0SIwFcJbCVSNGIFa4i29wZEEmJbnS81ciUyBqAWcU3gMr9bGasgz0zFarZXT3AWkJnyjY/D4AOYe7UkcPS1kgEa4qpeMDWOP9fV5Ne9qQLbRgLQD8BWF8dtVcrFevmrU2rFUK0F5C9krRQxp90lDMy2Z8gg9cSOtFdRR6sYP2D1Mes1X1CUeifLeV/mrm6mRVITAFDADRyAbmgeJXyX4g2SBn2d2LlYorw+zMq8WU1j3hFxIjgCNjg+tJ4mQ+H9aFyuz6+TGxqfdXI4x8=);lineShape=1;" parent="1" vertex="1">
          <mxGeometry x="577.6213480616564" y="146.59696417071143" width="17.295072045852294" height="17.31965990062713" as="geometry" />
        </mxCell>
        <mxCell id="92NGAnlIAFUWFbHLshSl-20" value="" style="shape=stencil(fVbLctswDPwaXXdIguDjnKb/kZk4taaunXHcNvn7QtVUNph6bxTJJbDgLsRJHt72T6+7KYW3y/n0ffd7fr7sJ/kypTQf97vzfLHRJI+TPLyczrtv59PP4/P6/fq07FxGP06/lhPeV1xT9L6gUvhYZ2JFqX9nvq6Aw3y8AXRFTA4gAcIAHdUDskIiBSSfUgnomQAEzQOqoqT7gJYRmgO0ikZSqmGM0AuS3AeoJTCUNQSEcB+RbXkI0VBJiKSowQMSVO8DorFWzzohEtYF4veXBiUUBNknpIJI7k2h0SvJpMcIJOTqABaykAC2rJ6BHaGdMKhQH0FpACM4XJpFJHdmBRwYFORGhJrG8+0SIwFcJbCVSNGIFa4i29wZEEmJbnS81ciUyBqAWcU3gMr9bGasgz0zFarZXT3AWkJnyjY/D4AOYe7UkcPS1kgEa4qpeMDWOP9fV5Ne9qQLbRgLQD8BWF8dtVcrFevmrU2rFUK0F5C9krRQxp90lDMy2Z8gg9cSOtFdRR6sYP2D1Mes1X1CUeifLeV/mrm6mRVITAFDADRyAbmgeJXyX4g2SBn2d2LlYorw+zMq8WU1j3hFxIjgCNjg+tJ4mQ+H9aFyuz6+TGxqfdXI4x8=);lineShape=1;" parent="1" vertex="1">
          <mxGeometry x="554.6213480616564" y="188.59696417071143" width="17.295072045852294" height="17.31965990062713" as="geometry" />
        </mxCell>
        <mxCell id="92NGAnlIAFUWFbHLshSl-21" value="" style="shape=stencil(fVbLctswDPwaXXdIguDjnKb/kZk4taaunXHcNvn7QtVUNph6bxTJJbDgLsRJHt72T6+7KYW3y/n0ffd7fr7sJ/kypTQf97vzfLHRJI+TPLyczrtv59PP4/P6/fq07FxGP06/lhPeV1xT9L6gUvhYZ2JFqX9nvq6Aw3y8AXRFTA4gAcIAHdUDskIiBSSfUgnomQAEzQOqoqT7gJYRmgO0ikZSqmGM0AuS3AeoJTCUNQSEcB+RbXkI0VBJiKSowQMSVO8DorFWzzohEtYF4veXBiUUBNknpIJI7k2h0SvJpMcIJOTqABaykAC2rJ6BHaGdMKhQH0FpACM4XJpFJHdmBRwYFORGhJrG8+0SIwFcJbCVSNGIFa4i29wZEEmJbnS81ciUyBqAWcU3gMr9bGasgz0zFarZXT3AWkJnyjY/D4AOYe7UkcPS1kgEa4qpeMDWOP9fV5Ne9qQLbRgLQD8BWF8dtVcrFevmrU2rFUK0F5C9krRQxp90lDMy2Z8gg9cSOtFdRR6sYP2D1Mes1X1CUeifLeV/mrm6mRVITAFDADRyAbmgeJXyX4g2SBn2d2LlYorw+zMq8WU1j3hFxIjgCNjg+tJ4mQ+H9aFyuz6+TGxqfdXI4x8=);lineShape=1;" parent="1" vertex="1">
          <mxGeometry x="155.62134806165636" y="163.59696417071143" width="17.295072045852294" height="17.31965990062713" as="geometry" />
        </mxCell>
        <mxCell id="92NGAnlIAFUWFbHLshSl-22" value="" style="shape=stencil(fVbLctswDPwaXXdIguDjnKb/kZk4taaunXHcNvn7QtVUNph6bxTJJbDgLsRJHt72T6+7KYW3y/n0ffd7fr7sJ/kypTQf97vzfLHRJI+TPLyczrtv59PP4/P6/fq07FxGP06/lhPeV1xT9L6gUvhYZ2JFqX9nvq6Aw3y8AXRFTA4gAcIAHdUDskIiBSSfUgnomQAEzQOqoqT7gJYRmgO0ikZSqmGM0AuS3AeoJTCUNQSEcB+RbXkI0VBJiKSowQMSVO8DorFWzzohEtYF4veXBiUUBNknpIJI7k2h0SvJpMcIJOTqABaykAC2rJ6BHaGdMKhQH0FpACM4XJpFJHdmBRwYFORGhJrG8+0SIwFcJbCVSNGIFa4i29wZEEmJbnS81ciUyBqAWcU3gMr9bGasgz0zFarZXT3AWkJnyjY/D4AOYe7UkcPS1kgEa4qpeMDWOP9fV5Ne9qQLbRgLQD8BWF8dtVcrFevmrU2rFUK0F5C9krRQxp90lDMy2Z8gg9cSOtFdRR6sYP2D1Mes1X1CUeifLeV/mrm6mRVITAFDADRyAbmgeJXyX4g2SBn2d2LlYorw+zMq8WU1j3hFxIjgCNjg+tJ4mQ+H9aFyuz6+TGxqfdXI4x8=);lineShape=1;" parent="1" vertex="1">
          <mxGeometry x="673.6213480616564" y="94.59696417071143" width="17.295072045852294" height="17.31965990062713" as="geometry" />
        </mxCell>
        <mxCell id="92NGAnlIAFUWFbHLshSl-23" value="" style="shape=stencil(fVbLctswDPwaXXdIguDjnKb/kZk4taaunXHcNvn7QtVUNph6bxTJJbDgLsRJHt72T6+7KYW3y/n0ffd7fr7sJ/kypTQf97vzfLHRJI+TPLyczrtv59PP4/P6/fq07FxGP06/lhPeV1xT9L6gUvhYZ2JFqX9nvq6Aw3y8AXRFTA4gAcIAHdUDskIiBSSfUgnomQAEzQOqoqT7gJYRmgO0ikZSqmGM0AuS3AeoJTCUNQSEcB+RbXkI0VBJiKSowQMSVO8DorFWzzohEtYF4veXBiUUBNknpIJI7k2h0SvJpMcIJOTqABaykAC2rJ6BHaGdMKhQH0FpACM4XJpFJHdmBRwYFORGhJrG8+0SIwFcJbCVSNGIFa4i29wZEEmJbnS81ciUyBqAWcU3gMr9bGasgz0zFarZXT3AWkJnyjY/D4AOYe7UkcPS1kgEa4qpeMDWOP9fV5Ne9qQLbRgLQD8BWF8dtVcrFevmrU2rFUK0F5C9krRQxp90lDMy2Z8gg9cSOtFdRR6sYP2D1Mes1X1CUeifLeV/mrm6mRVITAFDADRyAbmgeJXyX4g2SBn2d2LlYorw+zMq8WU1j3hFxIjgCNjg+tJ4mQ+H9aFyuz6+TGxqfdXI4x8=);lineShape=1;" parent="1" vertex="1">
          <mxGeometry x="663.6213480616564" y="147.59696417071143" width="17.295072045852294" height="17.31965990062713" as="geometry" />
        </mxCell>
        <mxCell id="92NGAnlIAFUWFbHLshSl-24" value="" style="shape=stencil(fVbLctswDPwaXXdIguDjnKb/kZk4taaunXHcNvn7QtVUNph6bxTJJbDgLsRJHt72T6+7KYW3y/n0ffd7fr7sJ/kypTQf97vzfLHRJI+TPLyczrtv59PP4/P6/fq07FxGP06/lhPeV1xT9L6gUvhYZ2JFqX9nvq6Aw3y8AXRFTA4gAcIAHdUDskIiBSSfUgnomQAEzQOqoqT7gJYRmgO0ikZSqmGM0AuS3AeoJTCUNQSEcB+RbXkI0VBJiKSowQMSVO8DorFWzzohEtYF4veXBiUUBNknpIJI7k2h0SvJpMcIJOTqABaykAC2rJ6BHaGdMKhQH0FpACM4XJpFJHdmBRwYFORGhJrG8+0SIwFcJbCVSNGIFa4i29wZEEmJbnS81ciUyBqAWcU3gMr9bGasgz0zFarZXT3AWkJnyjY/D4AOYe7UkcPS1kgEa4qpeMDWOP9fV5Ne9qQLbRgLQD8BWF8dtVcrFevmrU2rFUK0F5C9krRQxp90lDMy2Z8gg9cSOtFdRR6sYP2D1Mes1X1CUeifLeV/mrm6mRVITAFDADRyAbmgeJXyX4g2SBn2d2LlYorw+zMq8WU1j3hFxIjgCNjg+tJ4mQ+H9aFyuz6+TGxqfdXI4x8=);lineShape=1;" parent="1" vertex="1">
          <mxGeometry x="659.6213480616564" y="199.59696417071143" width="17.295072045852294" height="17.31965990062713" as="geometry" />
        </mxCell>
        <mxCell id="92NGAnlIAFUWFbHLshSl-25" value="" style="shape=stencil(fVbLctswDPwaXXdIguDjnKb/kZk4taaunXHcNvn7QtVUNph6bxTJJbDgLsRJHt72T6+7KYW3y/n0ffd7fr7sJ/kypTQf97vzfLHRJI+TPLyczrtv59PP4/P6/fq07FxGP06/lhPeV1xT9L6gUvhYZ2JFqX9nvq6Aw3y8AXRFTA4gAcIAHdUDskIiBSSfUgnomQAEzQOqoqT7gJYRmgO0ikZSqmGM0AuS3AeoJTCUNQSEcB+RbXkI0VBJiKSowQMSVO8DorFWzzohEtYF4veXBiUUBNknpIJI7k2h0SvJpMcIJOTqABaykAC2rJ6BHaGdMKhQH0FpACM4XJpFJHdmBRwYFORGhJrG8+0SIwFcJbCVSNGIFa4i29wZEEmJbnS81ciUyBqAWcU3gMr9bGasgz0zFarZXT3AWkJnyjY/D4AOYe7UkcPS1kgEa4qpeMDWOP9fV5Ne9qQLbRgLQD8BWF8dtVcrFevmrU2rFUK0F5C9krRQxp90lDMy2Z8gg9cSOtFdRR6sYP2D1Mes1X1CUeifLeV/mrm6mRVITAFDADRyAbmgeJXyX4g2SBn2d2LlYorw+zMq8WU1j3hFxIjgCNjg+tJ4mQ+H9aFyuz6+TGxqfdXI4x8=);lineShape=1;" parent="1" vertex="1">
          <mxGeometry x="182.62134806165636" y="223.59696417071143" width="17.295072045852294" height="17.31965990062713" as="geometry" />
        </mxCell>
        <mxCell id="92NGAnlIAFUWFbHLshSl-26" value="" style="shape=stencil(fVbLctswDPwaXXdIguDjnKb/kZk4taaunXHcNvn7QtVUNph6bxTJJbDgLsRJHt72T6+7KYW3y/n0ffd7fr7sJ/kypTQf97vzfLHRJI+TPLyczrtv59PP4/P6/fq07FxGP06/lhPeV1xT9L6gUvhYZ2JFqX9nvq6Aw3y8AXRFTA4gAcIAHdUDskIiBSSfUgnomQAEzQOqoqT7gJYRmgO0ikZSqmGM0AuS3AeoJTCUNQSEcB+RbXkI0VBJiKSowQMSVO8DorFWzzohEtYF4veXBiUUBNknpIJI7k2h0SvJpMcIJOTqABaykAC2rJ6BHaGdMKhQH0FpACM4XJpFJHdmBRwYFORGhJrG8+0SIwFcJbCVSNGIFa4i29wZEEmJbnS81ciUyBqAWcU3gMr9bGasgz0zFarZXT3AWkJnyjY/D4AOYe7UkcPS1kgEa4qpeMDWOP9fV5Ne9qQLbRgLQD8BWF8dtVcrFevmrU2rFUK0F5C9krRQxp90lDMy2Z8gg9cSOtFdRR6sYP2D1Mes1X1CUeifLeV/mrm6mRVITAFDADRyAbmgeJXyX4g2SBn2d2LlYorw+zMq8WU1j3hFxIjgCNjg+tJ4mQ+H9aFyuz6+TGxqfdXI4x8=);lineShape=1;" parent="1" vertex="1">
          <mxGeometry x="284.62134806165636" y="232.59696417071143" width="17.295072045852294" height="17.31965990062713" as="geometry" />
        </mxCell>
        <mxCell id="92NGAnlIAFUWFbHLshSl-27" value="" style="shape=stencil(fVbLctswDPwaXXdIguDjnKb/kZk4taaunXHcNvn7QtVUNph6bxTJJbDgLsRJHt72T6+7KYW3y/n0ffd7fr7sJ/kypTQf97vzfLHRJI+TPLyczrtv59PP4/P6/fq07FxGP06/lhPeV1xT9L6gUvhYZ2JFqX9nvq6Aw3y8AXRFTA4gAcIAHdUDskIiBSSfUgnomQAEzQOqoqT7gJYRmgO0ikZSqmGM0AuS3AeoJTCUNQSEcB+RbXkI0VBJiKSowQMSVO8DorFWzzohEtYF4veXBiUUBNknpIJI7k2h0SvJpMcIJOTqABaykAC2rJ6BHaGdMKhQH0FpACM4XJpFJHdmBRwYFORGhJrG8+0SIwFcJbCVSNGIFa4i29wZEEmJbnS81ciUyBqAWcU3gMr9bGasgz0zFarZXT3AWkJnyjY/D4AOYe7UkcPS1kgEa4qpeMDWOP9fV5Ne9qQLbRgLQD8BWF8dtVcrFevmrU2rFUK0F5C9krRQxp90lDMy2Z8gg9cSOtFdRR6sYP2D1Mes1X1CUeifLeV/mrm6mRVITAFDADRyAbmgeJXyX4g2SBn2d2LlYorw+zMq8WU1j3hFxIjgCNjg+tJ4mQ+H9aFyuz6+TGxqfdXI4x8=);lineShape=1;" parent="1" vertex="1">
          <mxGeometry x="407.62134806165636" y="228.59696417071143" width="17.295072045852294" height="17.31965990062713" as="geometry" />
        </mxCell>
        <mxCell id="92NGAnlIAFUWFbHLshSl-28" value="" style="shape=stencil(fVbLctswDPwaXXdIguDjnKb/kZk4taaunXHcNvn7QtVUNph6bxTJJbDgLsRJHt72T6+7KYW3y/n0ffd7fr7sJ/kypTQf97vzfLHRJI+TPLyczrtv59PP4/P6/fq07FxGP06/lhPeV1xT9L6gUvhYZ2JFqX9nvq6Aw3y8AXRFTA4gAcIAHdUDskIiBSSfUgnomQAEzQOqoqT7gJYRmgO0ikZSqmGM0AuS3AeoJTCUNQSEcB+RbXkI0VBJiKSowQMSVO8DorFWzzohEtYF4veXBiUUBNknpIJI7k2h0SvJpMcIJOTqABaykAC2rJ6BHaGdMKhQH0FpACM4XJpFJHdmBRwYFORGhJrG8+0SIwFcJbCVSNGIFa4i29wZEEmJbnS81ciUyBqAWcU3gMr9bGasgz0zFarZXT3AWkJnyjY/D4AOYe7UkcPS1kgEa4qpeMDWOP9fV5Ne9qQLbRgLQD8BWF8dtVcrFevmrU2rFUK0F5C9krRQxp90lDMy2Z8gg9cSOtFdRR6sYP2D1Mes1X1CUeifLeV/mrm6mRVITAFDADRyAbmgeJXyX4g2SBn2d2LlYorw+zMq8WU1j3hFxIjgCNjg+tJ4mQ+H9aFyuz6+TGxqfdXI4x8=);lineShape=1;" parent="1" vertex="1">
          <mxGeometry x="524.6213480616564" y="233.59696417071143" width="17.295072045852294" height="17.31965990062713" as="geometry" />
        </mxCell>
        <mxCell id="92NGAnlIAFUWFbHLshSl-29" value="" style="shape=stencil(fVbLctswDPwaXXdIguDjnKb/kZk4taaunXHcNvn7QtVUNph6bxTJJbDgLsRJHt72T6+7KYW3y/n0ffd7fr7sJ/kypTQf97vzfLHRJI+TPLyczrtv59PP4/P6/fq07FxGP06/lhPeV1xT9L6gUvhYZ2JFqX9nvq6Aw3y8AXRFTA4gAcIAHdUDskIiBSSfUgnomQAEzQOqoqT7gJYRmgO0ikZSqmGM0AuS3AeoJTCUNQSEcB+RbXkI0VBJiKSowQMSVO8DorFWzzohEtYF4veXBiUUBNknpIJI7k2h0SvJpMcIJOTqABaykAC2rJ6BHaGdMKhQH0FpACM4XJpFJHdmBRwYFORGhJrG8+0SIwFcJbCVSNGIFa4i29wZEEmJbnS81ciUyBqAWcU3gMr9bGasgz0zFarZXT3AWkJnyjY/D4AOYe7UkcPS1kgEa4qpeMDWOP9fV5Ne9qQLbRgLQD8BWF8dtVcrFevmrU2rFUK0F5C9krRQxp90lDMy2Z8gg9cSOtFdRR6sYP2D1Mes1X1CUeifLeV/mrm6mRVITAFDADRyAbmgeJXyX4g2SBn2d2LlYorw+zMq8WU1j3hFxIjgCNjg+tJ4mQ+H9aFyuz6+TGxqfdXI4x8=);lineShape=1;" parent="1" vertex="1">
          <mxGeometry x="612.6213480616564" y="239.59696417071143" width="17.295072045852294" height="17.31965990062713" as="geometry" />
        </mxCell>
        <mxCell id="92NGAnlIAFUWFbHLshSl-30" value="" style="shape=stencil(fVbLctswDPwaXXdIguDjnKb/kZk4taaunXHcNvn7QtVUNph6bxTJJbDgLsRJHt72T6+7KYW3y/n0ffd7fr7sJ/kypTQf97vzfLHRJI+TPLyczrtv59PP4/P6/fq07FxGP06/lhPeV1xT9L6gUvhYZ2JFqX9nvq6Aw3y8AXRFTA4gAcIAHdUDskIiBSSfUgnomQAEzQOqoqT7gJYRmgO0ikZSqmGM0AuS3AeoJTCUNQSEcB+RbXkI0VBJiKSowQMSVO8DorFWzzohEtYF4veXBiUUBNknpIJI7k2h0SvJpMcIJOTqABaykAC2rJ6BHaGdMKhQH0FpACM4XJpFJHdmBRwYFORGhJrG8+0SIwFcJbCVSNGIFa4i29wZEEmJbnS81ciUyBqAWcU3gMr9bGasgz0zFarZXT3AWkJnyjY/D4AOYe7UkcPS1kgEa4qpeMDWOP9fV5Ne9qQLbRgLQD8BWF8dtVcrFevmrU2rFUK0F5C9krRQxp90lDMy2Z8gg9cSOtFdRR6sYP2D1Mes1X1CUeifLeV/mrm6mRVITAFDADRyAbmgeJXyX4g2SBn2d2LlYorw+zMq8WU1j3hFxIjgCNjg+tJ4mQ+H9aFyuz6+TGxqfdXI4x8=);lineShape=1;" parent="1" vertex="1">
          <mxGeometry x="148.62134806165636" y="94.59696417071143" width="17.295072045852294" height="17.31965990062713" as="geometry" />
        </mxCell>
        <mxCell id="92NGAnlIAFUWFbHLshSl-38" value="&lt;font style=&quot;font-size: 20px;&quot;&gt;How I&#39;m Proposing&lt;/font&gt;" style="text;strokeColor=none;align=center;fillColor=none;html=1;verticalAlign=middle;whiteSpace=wrap;rounded=0;" parent="1" vertex="1">
          <mxGeometry x="69.92" y="360" width="270.08" height="30" as="geometry" />
        </mxCell>
        <mxCell id="92NGAnlIAFUWFbHLshSl-39" value="" style="swimlane;startSize=0;" parent="1" vertex="1">
          <mxGeometry x="110" y="440" width="754.2" height="435.42" as="geometry" />
        </mxCell>
        <mxCell id="92NGAnlIAFUWFbHLshSl-40" value="" style="shape=image;imageAspect=0;aspect=fixed;verticalLabelPosition=bottom;verticalAlign=top;image=https://upload.wikimedia.org/wikipedia/commons/8/83/Equirectangular_projection_SW.jpg;" parent="92NGAnlIAFUWFbHLshSl-39" vertex="1">
          <mxGeometry x="-110" width="864.2" height="435.42" as="geometry" />
        </mxCell>
        <mxCell id="92NGAnlIAFUWFbHLshSl-41" value="" style="shape=stencil(fVZdk9sgDPw1ft0BgQQ8X6//42Yu13iaJje5XD/+faEe3IjYesOYBWmlXZjC08fx5f0wkfu4XS/fD7/m19txCl8movl8PFznWx1N4XkKT2+X6+Hb9fJ5fl2+31/ayjb6cfnZdvi94LIgpIYi92eZ8QUS/s18XQCn+XwHKAwSBQgEZwEKUlCAKBAyAcErgHjkbAAinA4pCcjtA3IEkwLkDG8AkocUBSiVNyMHFhSdg3cOzjgi+pGmkpFkH0AJiTWA+habAC+IOqZMYAOQUTRLUkC8v17gdEAce6/s7O91PKHAWwnE3gYdQIxoUcQQHVHdQtI+oAZAus4JuRhljgg6IkY2MqgEBl3kWmNvMFQLpOOpRSRLbDQ2Rc2AjQxak2n910YUI6S7Pl5zFmRLz6tUVlK9aTFNjIM8I6KRRJP7IIXYe3G7Dh5lAKyms61OeVBntTUj6WqKXvPajDMavBbkQZ3Sm2UXQA8A6wQ/Wn3Kpv4ZbtD/6gjbB8BrG+YMZ6jtoZHaxWC1Xv+7+gWbNs8oen+qvm/tT+MBnntK2/7yyGi/J7abwo9+VPVtVCwSsmbUvkOaHfGw3nILWe1zZRRkEJS498udfSl+6uD/S+NtPp2Wh8r9//FlUqeWV014/gs=);lineShape=1;" parent="1" vertex="1">
          <mxGeometry x="242.94551968640053" y="560.9703303386764" width="10.602563742053235" height="10.577874691270836" as="geometry" />
        </mxCell>
        <mxCell id="92NGAnlIAFUWFbHLshSl-42" value="" style="shape=stencil(fVZdk9sgDPw1ft0BgQQ8X6//42Yu13iaJje5XD/+faEe3IjYesOYBWmlXZjC08fx5f0wkfu4XS/fD7/m19txCl8movl8PFznWx1N4XkKT2+X6+Hb9fJ5fl2+31/ayjb6cfnZdvi94LIgpIYi92eZ8QUS/s18XQCn+XwHKAwSBQgEZwEKUlCAKBAyAcErgHjkbAAinA4pCcjtA3IEkwLkDG8AkocUBSiVNyMHFhSdg3cOzjgi+pGmkpFkH0AJiTWA+habAC+IOqZMYAOQUTRLUkC8v17gdEAce6/s7O91PKHAWwnE3gYdQIxoUcQQHVHdQtI+oAZAus4JuRhljgg6IkY2MqgEBl3kWmNvMFQLpOOpRSRLbDQ2Rc2AjQxak2n910YUI6S7Pl5zFmRLz6tUVlK9aTFNjIM8I6KRRJP7IIXYe3G7Dh5lAKyms61OeVBntTUj6WqKXvPajDMavBbkQZ3Sm2UXQA8A6wQ/Wn3Kpv4ZbtD/6gjbB8BrG+YMZ6jtoZHaxWC1Xv+7+gWbNs8oen+qvm/tT+MBnntK2/7yyGi/J7abwo9+VPVtVCwSsmbUvkOaHfGw3nILWe1zZRRkEJS498udfSl+6uD/S+NtPp2Wh8r9//FlUqeWV014/gs=);lineShape=1;" parent="1" vertex="1">
          <mxGeometry x="432.94551968640053" y="537.9703303386764" width="10.602563742053235" height="10.577874691270836" as="geometry" />
        </mxCell>
        <mxCell id="92NGAnlIAFUWFbHLshSl-43" value="" style="shape=stencil(fVZdk9sgDPw1ft0BgQQ8X6//42Yu13iaJje5XD/+faEe3IjYesOYBWmlXZjC08fx5f0wkfu4XS/fD7/m19txCl8movl8PFznWx1N4XkKT2+X6+Hb9fJ5fl2+31/ayjb6cfnZdvi94LIgpIYi92eZ8QUS/s18XQCn+XwHKAwSBQgEZwEKUlCAKBAyAcErgHjkbAAinA4pCcjtA3IEkwLkDG8AkocUBSiVNyMHFhSdg3cOzjgi+pGmkpFkH0AJiTWA+habAC+IOqZMYAOQUTRLUkC8v17gdEAce6/s7O91PKHAWwnE3gYdQIxoUcQQHVHdQtI+oAZAus4JuRhljgg6IkY2MqgEBl3kWmNvMFQLpOOpRSRLbDQ2Rc2AjQxak2n910YUI6S7Pl5zFmRLz6tUVlK9aTFNjIM8I6KRRJP7IIXYe3G7Dh5lAKyms61OeVBntTUj6WqKXvPajDMavBbkQZ3Sm2UXQA8A6wQ/Wn3Kpv4ZbtD/6gjbB8BrG+YMZ6jtoZHaxWC1Xv+7+gWbNs8oen+qvm/tT+MBnntK2/7yyGi/J7abwo9+VPVtVCwSsmbUvkOaHfGw3nILWe1zZRRkEJS498udfSl+6uD/S+NtPp2Wh8r9//FlUqeWV014/gs=);lineShape=1;" parent="1" vertex="1">
          <mxGeometry x="256.94551968640053" y="551.9703303386764" width="10.602563742053235" height="10.577874691270836" as="geometry" />
        </mxCell>
        <mxCell id="92NGAnlIAFUWFbHLshSl-44" value="" style="shape=stencil(fVZdk9sgDPw1ft0BgQQ8X6//42Yu13iaJje5XD/+faEe3IjYesOYBWmlXZjC08fx5f0wkfu4XS/fD7/m19txCl8movl8PFznWx1N4XkKT2+X6+Hb9fJ5fl2+31/ayjb6cfnZdvi94LIgpIYi92eZ8QUS/s18XQCn+XwHKAwSBQgEZwEKUlCAKBAyAcErgHjkbAAinA4pCcjtA3IEkwLkDG8AkocUBSiVNyMHFhSdg3cOzjgi+pGmkpFkH0AJiTWA+habAC+IOqZMYAOQUTRLUkC8v17gdEAce6/s7O91PKHAWwnE3gYdQIxoUcQQHVHdQtI+oAZAus4JuRhljgg6IkY2MqgEBl3kWmNvMFQLpOOpRSRLbDQ2Rc2AjQxak2n910YUI6S7Pl5zFmRLz6tUVlK9aTFNjIM8I6KRRJP7IIXYe3G7Dh5lAKyms61OeVBntTUj6WqKXvPajDMavBbkQZ3Sm2UXQA8A6wQ/Wn3Kpv4ZbtD/6gjbB8BrG+YMZ6jtoZHaxWC1Xv+7+gWbNs8oen+qvm/tT+MBnntK2/7yyGi/J7abwo9+VPVtVCwSsmbUvkOaHfGw3nILWe1zZRRkEJS498udfSl+6uD/S+NtPp2Wh8r9//FlUqeWV014/gs=);lineShape=1;" parent="1" vertex="1">
          <mxGeometry x="142.94551968640053" y="568.9703303386764" width="10.602563742053235" height="10.577874691270836" as="geometry" />
        </mxCell>
        <mxCell id="92NGAnlIAFUWFbHLshSl-45" value="" style="shape=stencil(lZbdUttADIWfxrdnpNX+XlN4D2YIjYc0YUKg5e3R1mOIlkSd3vnv88pHR8c7yc3L9v55MwV6OR0PT5vf88NpO8mPKYR5v90c55MeTXI7yc3j4bj5eTy87h+W8+f7/mQ/+nV462/4s3CNUEKnAr0vV2JCan+v3C3Abt6fAxmlGCAJWnWAhsoGyIKaXSCJAUoEeyUltGyAqis4QG2IFmiMFh1AVbIltYLE14FCyFYlJgLRdSITJNolGtiRKRGq7ZzqQE4jooBtI2oFO4BUkAVK84EMsrrmBhIHKGMjUkV1VIphXCGqW5zO6W1pFggITklaQK4G0CKzs0KuaMkCGSE53lARrZlU6OB8dG+TXUFbGfyBoGFG6V8zykPjCLFcB87c/OkNWoPh8hI6MBbQofJa3UdysGtbX3FZJh36YUg1GJySeqzYkr6i53KrBeXbjFYnBjQa6wBofHozmhCHoVZZHTN1QP4HkDima09Dx0whrm7+BBKyE0yc1rQ+i43ofHRBtW4tDHHaEMYwzrym7cXn1ar2AxKvKXLteWuLSODg1ZNsYgRfUc0TWz831xQcR4GYkZweBxmBBHEmRz0x/Bm0AY6garpBofHfpgdfO47HebdbNizn98cdil5adjdy+wE=);lineShape=1;" parent="1" vertex="1">
          <mxGeometry x="253.3691043255726" y="561.5026372786547" width="0.21771625456597168" height="0.2183841352037734" as="geometry" />
        </mxCell>
        <mxCell id="92NGAnlIAFUWFbHLshSl-48" value="" style="shape=stencil(lZbdUttADIWfxrdnpNX+XlN4D2YIjYc0YUKg5e3R1mOIlkSd3vnv88pHR8c7yc3L9v55MwV6OR0PT5vf88NpO8mPKYR5v90c55MeTXI7yc3j4bj5eTy87h+W8+f7/mQ/+nV462/4s3CNUEKnAr0vV2JCan+v3C3Abt6fAxmlGCAJWnWAhsoGyIKaXSCJAUoEeyUltGyAqis4QG2IFmiMFh1AVbIltYLE14FCyFYlJgLRdSITJNolGtiRKRGq7ZzqQE4jooBtI2oFO4BUkAVK84EMsrrmBhIHKGMjUkV1VIphXCGqW5zO6W1pFggITklaQK4G0CKzs0KuaMkCGSE53lARrZlU6OB8dG+TXUFbGfyBoGFG6V8zykPjCLFcB87c/OkNWoPh8hI6MBbQofJa3UdysGtbX3FZJh36YUg1GJySeqzYkr6i53KrBeXbjFYnBjQa6wBofHozmhCHoVZZHTN1QP4HkDima09Dx0whrm7+BBKyE0yc1rQ+i43ofHRBtW4tDHHaEMYwzrym7cXn1ar2AxKvKXLteWuLSODg1ZNsYgRfUc0TWz831xQcR4GYkZweBxmBBHEmRz0x/Bm0AY6garpBofHfpgdfO47HebdbNizn98cdil5adjdy+wE=);lineShape=1;" parent="1" vertex="1">
          <mxGeometry x="924.4842066138176" y="1014.1406140912823" width="3.35283032031748" height="3.3631156821393233" as="geometry" />
        </mxCell>
        <mxCell id="92NGAnlIAFUWFbHLshSl-49" value="" style="rounded=0;whiteSpace=wrap;html=1;" parent="1" vertex="1">
          <mxGeometry y="1017.5" width="870" height="452.5" as="geometry" />
        </mxCell>
        <mxCell id="92NGAnlIAFUWFbHLshSl-50" value="" style="shape=stencil(lVrZjlQ3FPyaebW8L8+E/AcSQxiFMAjI9vcpZ+Q77Tr3VoPEw9Dtattnd53zkN58+/juy+ND9N++f33+/fHvp/ffPz6kXx5ifPr88fHr03f89ZDePqQ3H56/Pv729fnPz+9f/v/l3Vw5//rj+a/5C/+84LwDYv7z/758EJJr6f9Pfn1Z/+np88364IJZP4Ja38e+PjtfrtdH1xuvr/F6fXYh7OuLq/56Pb7N+/rmorhvc7nu64f8/eHK/vu4UatCPkZAsWoFZJf3HVJwRUgIFwz7FVJzSRwJNuF3HefkqtJZdMNvgOJdEHeAFlrZAdVltUN3ZQfUuBRzCoBM0n6k2pZlnQNgxmkDtLhUeQ7AiXcpNXwiLp266/uR2nBRHCl7N/oG6PC+IQDJeQJASl0AivP7pXvSR6quFwYod8h92eYNoAmxwnJ8Y0BXDh1OduhCDwUhJhuAOhJijLm0BBSXugEI84b1V3skBWjscfcAg4NARxwWtlQ9mzcAVXhcDevrA3CI4RxgQn2vLgjjq9lYa3VDAcqKQgeguaYuXY2Uusw+CCqB9DBWeL4CjN2Whl+3Ogd014IBCH+ow6XGR4rCNAAYlaU0xB2aX0HlRg9JiBWAYWxJxdaG6E2AKFMWYrXfHag1KVYASKzzkGqHxGKtujBpR51z5LjukqiUAKh7JYBIldUOhXNcblqsxfVdccgYTe2AjLYf6TUnnQMae1xCQaTEiqy862GmSXWHzgVWOmqDcwCsf78Dyp8urLWb8geAIBQHACkOtYEXYkUaT1SRZVlgAUCVAMqVqo4Ul9QPQFwp5hyQXDBV5VB3OErCG4C8QzamEWRxMvNNMEcSPo18Q0EAly5qh8LFPcQaNaAbPQxlS9XskFfGuAJQgZWyDGSI1RSXcKSu7gDrjwxQQQApkMLMPePr5g5JuuhMUEasUnGDo3fSZShyZrAOJI4EQDOXVoFshFU43xhfF2IFgMofmLcXYh2R027UCWWkVSgcgCzf6gDkXax4vicRNQCg0gGvb5UfRubEHuIKPFeARsXJSknn64uL+xXwgfr94uquhagvUPmJFWRVjPVlzw1eOhvWD15flMraenO+rk8iXGA9RTAva+7RWWG6+hymXI3aqIfJCpL9wPpCZdgipK7Wt/38EJg6/3B9t7exXlpX66meD0eheM7GeM9eGZrkDeYWxBCFZbSXgF2mk/XSO3QCdB0ohql4gjYjqI3UHNej+grAaS24pneIlNYgaOWZg59uMI2oL011IWy1aF8gxYWhnXMsX7kJp4pHmwDaAQFbizXSe1W+0acaiHdbirzUM4dfVR9NQ2J3VtzNtNRI5x/6vvTynPnmp5wt1FVV/qg/T05dGx4lTaRlFTLmpSlHNVmbz6BHhbCXBdhUm/FnxawAQOwQ/FnR+j8P6IYXH4sZvAJwedRWOXMFIKYRxir10PjJM4sLnWwpJgEgY1JlXhymod6qACQDkA5X2IHgcYpZAYDaDXA5mXGLeT4H6UEo8Yj8TFnnhmyeC01yyihTyZYynp5K04ltKWfZPUBtTj6du67z4soEt2SPstbAkbIUSdUDQGxpaVqsnjU9WWb1zhuLJrxhuFSxB0DxBqBYibHc5RYgrHXStYZ0uwMIRkrqAYDnM+uhSeYdAEq5AFTNGRCRXjStB0AsDFBF7qQxAgMkYVXW7x2AKrsHPTNhBWtVxjcJYbp0lg83SyeVpKWUjFiTllLiZgAAqrjqkQkrALpm6ShU4tKqvOqBH+iz1aQU508arYrGmOSnsSXFrLTBD0R4nOqATAKXxKrboJMiTgxQDjRJ6N34ql8c8BXNXalZHO4BSEpVv/pa4bq4Vqm4djA1x7vVy1ciAMQ/YU8ppcSXhnXJSYjIR5pkpWoGRI58I8ow0wLHpaEr42b8YVTZ62qmpT6LOtWf8NxdRtmoiPRqHhBjSFua/brOAEUc2o7gzRvkHNE4Ub/SFlcAby6hqsTZOC0sJhXJZms2siKaiJWz+UuAKkvj2V6uDJAd78C1wzgabOcAb6wvS9raNuEBUAWTbfOjMlUsiB0kuAcwowr3AGYY4h7AjFtMgLAlO9AxAWq2wYyMDE0izqGUwADFqNmxFwDUzJUdrAHg3ugO3SHK6mQ2YgkQZJcyIWxQ137II80BJ0oQVXYDZi+MAFFOdSXTM0HqVrYUzTQRcoxKEHPQbAfUKms4O38IL5f8zzCVbloU9TnAtMhzk2FmDvzt1pp143SOFFLTUY8UDpbqbF2pSQVDCYzVLTt30MU+/yAzkw0zW2ShYXQWi9aZoZb0aJOZecV6NUZkZmonKSNMwnNamKyPkKfnmdeYZTFp4mPUvUzPffSoRyE909Z32oZnjKnqcduOSZfh2pwn6IFXc99wzIH9mDyDftwafcGlFetu7CEk2YT62Rnu++vxx+vA+IenT59e5s1vv+cBc3z0Mpye3v4H);lineShape=1;" parent="1" vertex="1">
          <mxGeometry x="-2.9143097780809057" y="931.865776803179" width="1040.7728658252313" height="40.3119914285453" as="geometry" />
        </mxCell>
        <mxCell id="92NGAnlIAFUWFbHLshSl-51" value="" style="shape=stencil(fVZdU+MwDPw1edXYliXbz8D9D2YoNENpmVLu49+ffLmGyrT7ljheSyvtKp747mP7+L6ZUvg4HQ+vm1/z02k78f2U0rzfbo7zyZ4mfpj47vlw3LwcD5/7p+X9/bHv7E9vh5/9hN8Lriql0FEp/FlWYqUi/1Z+LIDdvL8ANBkBHClVAGhUkgNkpcAQwD6CRsoKAEytOUARavk2oGZin1It1MptQInE7ABNIWlRYvVlDYFCuI3IYSTRcCOSUh1ySqQAEIVYPOtEDMpUqHgOWqlFQIGq3y8MGei5SauSKuxzZKpeGBZSAQH7XAZxW0ZAepaAeGFYkVGbv2WUzwvXGdeRstUYVLQ3qHgCcjbHdSuYBHwPjEFpALCKbGUQoBUudLy2Wc/Cuh7CrOJJdDslwHo14yrUDAFfdl+tsI6E632wgeIj9KGDpG0jS0ZAASnZUPx/3goQiiClPna9/200R6A9Awza6wAUIZD4lEqlACJkysMcrpQA5zAOJCkwoW9CykIKzo/UvLY5w/OVdBgXTILni3oZxQyVncxtdbBzBO5kHv+dCRY0ZxJ/Pv6HmBGjDPsFeFkLpaGi1MD5xfYPPqPiBGQPXzeN53m3Wy4ql9/Hm4ktLbcafvgL);lineShape=1;" parent="1" vertex="1">
          <mxGeometry x="1078.4492077221548" y="1043.4604133658574" width="17.112694150063664" height="17.101687265559423" as="geometry" />
        </mxCell>
        <mxCell id="92NGAnlIAFUWFbHLshSl-52" value="" style="shape=stencil(fVZdU+MwDPw1edXYliXbz8D9D2YoNENpmVLu49+ffLmGyrT7ljheSyvtKp747mP7+L6ZUvg4HQ+vm1/z02k78f2U0rzfbo7zyZ4mfpj47vlw3LwcD5/7p+X9/bHv7E9vh5/9hN8Lriql0FEp/FlWYqUi/1Z+LIDdvL8ANBkBHClVAGhUkgNkpcAQwD6CRsoKAEytOUARavk2oGZin1It1MptQInE7ABNIWlRYvVlDYFCuI3IYSTRcCOSUh1ySqQAEIVYPOtEDMpUqHgOWqlFQIGq3y8MGei5SauSKuxzZKpeGBZSAQH7XAZxW0ZAepaAeGFYkVGbv2WUzwvXGdeRstUYVLQ3qHgCcjbHdSuYBHwPjEFpALCKbGUQoBUudLy2Wc/Cuh7CrOJJdDslwHo14yrUDAFfdl+tsI6E632wgeIj9KGDpG0jS0ZAASnZUPx/3goQiiClPna9/200R6A9Awza6wAUIZD4lEqlACJkysMcrpQA5zAOJCkwoW9CykIKzo/UvLY5w/OVdBgXTILni3oZxQyVncxtdbBzBO5kHv+dCRY0ZxJ/Pv6HmBGjDPsFeFkLpaGi1MD5xfYPPqPiBGQPXzeN53m3Wy4ql9/Hm4ktLbcafvgL);lineShape=1;" parent="1" vertex="1">
          <mxGeometry x="1053.1158743888213" y="1152.7937466991907" width="17.112694150063664" height="17.101687265559423" as="geometry" />
        </mxCell>
        <mxCell id="92NGAnlIAFUWFbHLshSl-53" value="" style="shape=stencil(fVZdU+MwDPw1edXYliXbz8D9D2YoNENpmVLu49+ffLmGyrT7ljheSyvtKp747mP7+L6ZUvg4HQ+vm1/z02k78f2U0rzfbo7zyZ4mfpj47vlw3LwcD5/7p+X9/bHv7E9vh5/9hN8Lriql0FEp/FlWYqUi/1Z+LIDdvL8ANBkBHClVAGhUkgNkpcAQwD6CRsoKAEytOUARavk2oGZin1It1MptQInE7ABNIWlRYvVlDYFCuI3IYSTRcCOSUh1ySqQAEIVYPOtEDMpUqHgOWqlFQIGq3y8MGei5SauSKuxzZKpeGBZSAQH7XAZxW0ZAepaAeGFYkVGbv2WUzwvXGdeRstUYVLQ3qHgCcjbHdSuYBHwPjEFpALCKbGUQoBUudLy2Wc/Cuh7CrOJJdDslwHo14yrUDAFfdl+tsI6E632wgeIj9KGDpG0jS0ZAASnZUPx/3goQiiClPna9/200R6A9Awza6wAUIZD4lEqlACJkysMcrpQA5zAOJCkwoW9CykIKzo/UvLY5w/OVdBgXTILni3oZxQyVncxtdbBzBO5kHv+dCRY0ZxJ/Pv6HmBGjDPsFeFkLpaGi1MD5xfYPPqPiBGQPXzeN53m3Wy4ql9/Hm4ktLbcafvgL);lineShape=1;" parent="1" vertex="1">
          <mxGeometry x="1109.1158743888213" y="1271.4604133658572" width="17.112694150063664" height="17.101687265559423" as="geometry" />
        </mxCell>
        <mxCell id="92NGAnlIAFUWFbHLshSl-54" value="" style="shape=stencil(fVZdU+MwDPw1edXYliXbz8D9D2YoNENpmVLu49+ffLmGyrT7ljheSyvtKp747mP7+L6ZUvg4HQ+vm1/z02k78f2U0rzfbo7zyZ4mfpj47vlw3LwcD5/7p+X9/bHv7E9vh5/9hN8Lriql0FEp/FlWYqUi/1Z+LIDdvL8ANBkBHClVAGhUkgNkpcAQwD6CRsoKAEytOUARavk2oGZin1It1MptQInE7ABNIWlRYvVlDYFCuI3IYSTRcCOSUh1ySqQAEIVYPOtEDMpUqHgOWqlFQIGq3y8MGei5SauSKuxzZKpeGBZSAQH7XAZxW0ZAepaAeGFYkVGbv2WUzwvXGdeRstUYVLQ3qHgCcjbHdSuYBHwPjEFpALCKbGUQoBUudLy2Wc/Cuh7CrOJJdDslwHo14yrUDAFfdl+tsI6E632wgeIj9KGDpG0jS0ZAASnZUPx/3goQiiClPna9/200R6A9Awza6wAUIZD4lEqlACJkysMcrpQA5zAOJCkwoW9CykIKzo/UvLY5w/OVdBgXTILni3oZxQyVncxtdbBzBO5kHv+dCRY0ZxJ/Pv6HmBGjDPsFeFkLpaGi1MD5xfYPPqPiBGQPXzeN53m3Wy4ql9/Hm4ktLbcafvgL);lineShape=1;" parent="1" vertex="1">
          <mxGeometry x="1202.4492077221548" y="1119.4604133658574" width="17.112694150063664" height="17.101687265559423" as="geometry" />
        </mxCell>
        <mxCell id="92NGAnlIAFUWFbHLshSl-55" value="" style="shape=stencil(fVZdU+MwDPw1edXYliXbz8D9D2YoNENpmVLu49+ffLmGyrT7ljheSyvtKp747mP7+L6ZUvg4HQ+vm1/z02k78f2U0rzfbo7zyZ4mfpj47vlw3LwcD5/7p+X9/bHv7E9vh5/9hN8Lriql0FEp/FlWYqUi/1Z+LIDdvL8ANBkBHClVAGhUkgNkpcAQwD6CRsoKAEytOUARavk2oGZin1It1MptQInE7ABNIWlRYvVlDYFCuI3IYSTRcCOSUh1ySqQAEIVYPOtEDMpUqHgOWqlFQIGq3y8MGei5SauSKuxzZKpeGBZSAQH7XAZxW0ZAepaAeGFYkVGbv2WUzwvXGdeRstUYVLQ3qHgCcjbHdSuYBHwPjEFpALCKbGUQoBUudLy2Wc/Cuh7CrOJJdDslwHo14yrUDAFfdl+tsI6E632wgeIj9KGDpG0jS0ZAASnZUPx/3goQiiClPna9/200R6A9Awza6wAUIZD4lEqlACJkysMcrpQA5zAOJCkwoW9CykIKzo/UvLY5w/OVdBgXTILni3oZxQyVncxtdbBzBO5kHv+dCRY0ZxJ/Pv6HmBGjDPsFeFkLpaGi1MD5xfYPPqPiBGQPXzeN53m3Wy4ql9/Hm4ktLbcafvgL);lineShape=1;" parent="1" vertex="1">
          <mxGeometry x="1187.7825410554883" y="1052.7937466991907" width="17.112694150063664" height="17.101687265559423" as="geometry" />
        </mxCell>
        <mxCell id="92NGAnlIAFUWFbHLshSl-56" value="" style="shape=stencil(fVZdU+MwDPw1edXYliXbz8D9D2YoNENpmVLu49+ffLmGyrT7ljheSyvtKp747mP7+L6ZUvg4HQ+vm1/z02k78f2U0rzfbo7zyZ4mfpj47vlw3LwcD5/7p+X9/bHv7E9vh5/9hN8Lriql0FEp/FlWYqUi/1Z+LIDdvL8ANBkBHClVAGhUkgNkpcAQwD6CRsoKAEytOUARavk2oGZin1It1MptQInE7ABNIWlRYvVlDYFCuI3IYSTRcCOSUh1ySqQAEIVYPOtEDMpUqHgOWqlFQIGq3y8MGei5SauSKuxzZKpeGBZSAQH7XAZxW0ZAepaAeGFYkVGbv2WUzwvXGdeRstUYVLQ3qHgCcjbHdSuYBHwPjEFpALCKbGUQoBUudLy2Wc/Cuh7CrOJJdDslwHo14yrUDAFfdl+tsI6E632wgeIj9KGDpG0jS0ZAASnZUPx/3goQiiClPna9/200R6A9Awza6wAUIZD4lEqlACJkysMcrpQA5zAOJCkwoW9CykIKzo/UvLY5w/OVdBgXTILni3oZxQyVncxtdbBzBO5kHv+dCRY0ZxJ/Pv6HmBGjDPsFeFkLpaGi1MD5xfYPPqPiBGQPXzeN53m3Wy4ql9/Hm4ktLbcafvgL);lineShape=1;" parent="1" vertex="1">
          <mxGeometry x="1217.1158743888213" y="1267.4604133658572" width="17.112694150063664" height="17.101687265559423" as="geometry" />
        </mxCell>
        <mxCell id="92NGAnlIAFUWFbHLshSl-57" value="" style="shape=stencil(fVZdU+MwDPw1edXYliXbz8D9D2YoNENpmVLu49+ffLmGyrT7ljheSyvtKp747mP7+L6ZUvg4HQ+vm1/z02k78f2U0rzfbo7zyZ4mfpj47vlw3LwcD5/7p+X9/bHv7E9vh5/9hN8Lriql0FEp/FlWYqUi/1Z+LIDdvL8ANBkBHClVAGhUkgNkpcAQwD6CRsoKAEytOUARavk2oGZin1It1MptQInE7ABNIWlRYvVlDYFCuI3IYSTRcCOSUh1ySqQAEIVYPOtEDMpUqHgOWqlFQIGq3y8MGei5SauSKuxzZKpeGBZSAQH7XAZxW0ZAepaAeGFYkVGbv2WUzwvXGdeRstUYVLQ3qHgCcjbHdSuYBHwPjEFpALCKbGUQoBUudLy2Wc/Cuh7CrOJJdDslwHo14yrUDAFfdl+tsI6E632wgeIj9KGDpG0jS0ZAASnZUPx/3goQiiClPna9/200R6A9Awza6wAUIZD4lEqlACJkysMcrpQA5zAOJCkwoW9CykIKzo/UvLY5w/OVdBgXTILni3oZxQyVncxtdbBzBO5kHv+dCRY0ZxJ/Pv6HmBGjDPsFeFkLpaGi1MD5xfYPPqPiBGQPXzeN53m3Wy4ql9/Hm4ktLbcafvgL);lineShape=1;" parent="1" vertex="1">
          <mxGeometry x="1147.7825410554883" y="1184.7937466991907" width="17.112694150063664" height="17.101687265559423" as="geometry" />
        </mxCell>
        <mxCell id="92NGAnlIAFUWFbHLshSl-58" value="" style="shape=stencil(fVZdU+MwDPw1edXYliXbz8D9D2YoNENpmVLu49+ffLmGyrT7ljheSyvtKp747mP7+L6ZUvg4HQ+vm1/z02k78f2U0rzfbo7zyZ4mfpj47vlw3LwcD5/7p+X9/bHv7E9vh5/9hN8Lriql0FEp/FlWYqUi/1Z+LIDdvL8ANBkBHClVAGhUkgNkpcAQwD6CRsoKAEytOUARavk2oGZin1It1MptQInE7ABNIWlRYvVlDYFCuI3IYSTRcCOSUh1ySqQAEIVYPOtEDMpUqHgOWqlFQIGq3y8MGei5SauSKuxzZKpeGBZSAQH7XAZxW0ZAepaAeGFYkVGbv2WUzwvXGdeRstUYVLQ3qHgCcjbHdSuYBHwPjEFpALCKbGUQoBUudLy2Wc/Cuh7CrOJJdDslwHo14yrUDAFfdl+tsI6E632wgeIj9KGDpG0jS0ZAASnZUPx/3goQiiClPna9/200R6A9Awza6wAUIZD4lEqlACJkysMcrpQA5zAOJCkwoW9CykIKzo/UvLY5w/OVdBgXTILni3oZxQyVncxtdbBzBO5kHv+dCRY0ZxJ/Pv6HmBGjDPsFeFkLpaGi1MD5xfYPPqPiBGQPXzeN53m3Wy4ql9/Hm4ktLbcafvgL);lineShape=1;" parent="1" vertex="1">
          <mxGeometry x="1333.1158743888213" y="1067.4604133658574" width="17.112694150063664" height="17.101687265559423" as="geometry" />
        </mxCell>
        <mxCell id="92NGAnlIAFUWFbHLshSl-59" value="" style="shape=stencil(fVZdU+MwDPw1edXYliXbz8D9D2YoNENpmVLu49+ffLmGyrT7ljheSyvtKp747mP7+L6ZUvg4HQ+vm1/z02k78f2U0rzfbo7zyZ4mfpj47vlw3LwcD5/7p+X9/bHv7E9vh5/9hN8Lriql0FEp/FlWYqUi/1Z+LIDdvL8ANBkBHClVAGhUkgNkpcAQwD6CRsoKAEytOUARavk2oGZin1It1MptQInE7ABNIWlRYvVlDYFCuI3IYSTRcCOSUh1ySqQAEIVYPOtEDMpUqHgOWqlFQIGq3y8MGei5SauSKuxzZKpeGBZSAQH7XAZxW0ZAepaAeGFYkVGbv2WUzwvXGdeRstUYVLQ3qHgCcjbHdSuYBHwPjEFpALCKbGUQoBUudLy2Wc/Cuh7CrOJJdDslwHo14yrUDAFfdl+tsI6E632wgeIj9KGDpG0jS0ZAASnZUPx/3goQiiClPna9/200R6A9Awza6wAUIZD4lEqlACJkysMcrpQA5zAOJCkwoW9CykIKzo/UvLY5w/OVdBgXTILni3oZxQyVncxtdbBzBO5kHv+dCRY0ZxJ/Pv6HmBGjDPsFeFkLpaGi1MD5xfYPPqPiBGQPXzeN53m3Wy4ql9/Hm4ktLbcafvgL);lineShape=1;" parent="1" vertex="1">
          <mxGeometry x="1314.4492077221548" y="1163.4604133658572" width="17.112694150063664" height="17.101687265559423" as="geometry" />
        </mxCell>
        <mxCell id="92NGAnlIAFUWFbHLshSl-60" value="" style="shape=stencil(fVZdU+MwDPw1edXYliXbz8D9D2YoNENpmVLu49+ffLmGyrT7ljheSyvtKp747mP7+L6ZUvg4HQ+vm1/z02k78f2U0rzfbo7zyZ4mfpj47vlw3LwcD5/7p+X9/bHv7E9vh5/9hN8Lriql0FEp/FlWYqUi/1Z+LIDdvL8ANBkBHClVAGhUkgNkpcAQwD6CRsoKAEytOUARavk2oGZin1It1MptQInE7ABNIWlRYvVlDYFCuI3IYSTRcCOSUh1ySqQAEIVYPOtEDMpUqHgOWqlFQIGq3y8MGei5SauSKuxzZKpeGBZSAQH7XAZxW0ZAepaAeGFYkVGbv2WUzwvXGdeRstUYVLQ3qHgCcjbHdSuYBHwPjEFpALCKbGUQoBUudLy2Wc/Cuh7CrOJJdDslwHo14yrUDAFfdl+tsI6E632wgeIj9KGDpG0jS0ZAASnZUPx/3goQiiClPna9/200R6A9Awza6wAUIZD4lEqlACJkysMcrpQA5zAOJCkwoW9CykIKzo/UvLY5w/OVdBgXTILni3oZxQyVncxtdbBzBO5kHv+dCRY0ZxJ/Pv6HmBGjDPsFeFkLpaGi1MD5xfYPPqPiBGQPXzeN53m3Wy4ql9/Hm4ktLbcafvgL);lineShape=1;" parent="1" vertex="1">
          <mxGeometry x="1347.7825410554883" y="1258.1270800325242" width="17.112694150063664" height="17.101687265559423" as="geometry" />
        </mxCell>
        <mxCell id="92NGAnlIAFUWFbHLshSl-61" value="" style="shape=stencil(fVZdU+MwDPw1edXYliXbz8D9D2YoNENpmVLu49+ffLmGyrT7ljheSyvtKp747mP7+L6ZUvg4HQ+vm1/z02k78f2U0rzfbo7zyZ4mfpj47vlw3LwcD5/7p+X9/bHv7E9vh5/9hN8Lriql0FEp/FlWYqUi/1Z+LIDdvL8ANBkBHClVAGhUkgNkpcAQwD6CRsoKAEytOUARavk2oGZin1It1MptQInE7ABNIWlRYvVlDYFCuI3IYSTRcCOSUh1ySqQAEIVYPOtEDMpUqHgOWqlFQIGq3y8MGei5SauSKuxzZKpeGBZSAQH7XAZxW0ZAepaAeGFYkVGbv2WUzwvXGdeRstUYVLQ3qHgCcjbHdSuYBHwPjEFpALCKbGUQoBUudLy2Wc/Cuh7CrOJJdDslwHo14yrUDAFfdl+tsI6E632wgeIj9KGDpG0jS0ZAASnZUPx/3goQiiClPna9/200R6A9Awza6wAUIZD4lEqlACJkysMcrpQA5zAOJCkwoW9CykIKzo/UvLY5w/OVdBgXTILni3oZxQyVncxtdbBzBO5kHv+dCRY0ZxJ/Pv6HmBGjDPsFeFkLpaGi1MD5xfYPPqPiBGQPXzeN53m3Wy4ql9/Hm4ktLbcafvgL);lineShape=1;" parent="1" vertex="1">
          <mxGeometry x="1461.1158743888213" y="1070.127080032524" width="17.112694150063664" height="17.101687265559423" as="geometry" />
        </mxCell>
        <mxCell id="92NGAnlIAFUWFbHLshSl-62" value="" style="shape=stencil(fVZdU+MwDPw1edXYliXbz8D9D2YoNENpmVLu49+ffLmGyrT7ljheSyvtKp747mP7+L6ZUvg4HQ+vm1/z02k78f2U0rzfbo7zyZ4mfpj47vlw3LwcD5/7p+X9/bHv7E9vh5/9hN8Lriql0FEp/FlWYqUi/1Z+LIDdvL8ANBkBHClVAGhUkgNkpcAQwD6CRsoKAEytOUARavk2oGZin1It1MptQInE7ABNIWlRYvVlDYFCuI3IYSTRcCOSUh1ySqQAEIVYPOtEDMpUqHgOWqlFQIGq3y8MGei5SauSKuxzZKpeGBZSAQH7XAZxW0ZAepaAeGFYkVGbv2WUzwvXGdeRstUYVLQ3qHgCcjbHdSuYBHwPjEFpALCKbGUQoBUudLy2Wc/Cuh7CrOJJdDslwHo14yrUDAFfdl+tsI6E632wgeIj9KGDpG0jS0ZAASnZUPx/3goQiiClPna9/200R6A9Awza6wAUIZD4lEqlACJkysMcrpQA5zAOJCkwoW9CykIKzo/UvLY5w/OVdBgXTILni3oZxQyVncxtdbBzBO5kHv+dCRY0ZxJ/Pv6HmBGjDPsFeFkLpaGi1MD5xfYPPqPiBGQPXzeN53m3Wy4ql9/Hm4ktLbcafvgL);lineShape=1;" parent="1" vertex="1">
          <mxGeometry x="1465.1158743888213" y="1156.7937466991907" width="17.112694150063664" height="17.101687265559423" as="geometry" />
        </mxCell>
        <mxCell id="92NGAnlIAFUWFbHLshSl-63" value="" style="shape=stencil(fVZdU+MwDPw1edXYliXbz8D9D2YoNENpmVLu49+ffLmGyrT7ljheSyvtKp747mP7+L6ZUvg4HQ+vm1/z02k78f2U0rzfbo7zyZ4mfpj47vlw3LwcD5/7p+X9/bHv7E9vh5/9hN8Lriql0FEp/FlWYqUi/1Z+LIDdvL8ANBkBHClVAGhUkgNkpcAQwD6CRsoKAEytOUARavk2oGZin1It1MptQInE7ABNIWlRYvVlDYFCuI3IYSTRcCOSUh1ySqQAEIVYPOtEDMpUqHgOWqlFQIGq3y8MGei5SauSKuxzZKpeGBZSAQH7XAZxW0ZAepaAeGFYkVGbv2WUzwvXGdeRstUYVLQ3qHgCcjbHdSuYBHwPjEFpALCKbGUQoBUudLy2Wc/Cuh7CrOJJdDslwHo14yrUDAFfdl+tsI6E632wgeIj9KGDpG0jS0ZAASnZUPx/3goQiiClPna9/200R6A9Awza6wAUIZD4lEqlACJkysMcrpQA5zAOJCkwoW9CykIKzo/UvLY5w/OVdBgXTILni3oZxQyVncxtdbBzBO5kHv+dCRY0ZxJ/Pv6HmBGjDPsFeFkLpaGi1MD5xfYPPqPiBGQPXzeN53m3Wy4ql9/Hm4ktLbcafvgL);lineShape=1;" parent="1" vertex="1">
          <mxGeometry x="1475.7825410554883" y="1242.1270800325242" width="17.112694150063664" height="17.101687265559423" as="geometry" />
        </mxCell>
        <mxCell id="92NGAnlIAFUWFbHLshSl-64" value="" style="shape=stencil(fVZdU+MwDPw1edXYliXbz8D9D2YoNENpmVLu49+ffLmGyrT7ljheSyvtKp747mP7+L6ZUvg4HQ+vm1/z02k78f2U0rzfbo7zyZ4mfpj47vlw3LwcD5/7p+X9/bHv7E9vh5/9hN8Lriql0FEp/FlWYqUi/1Z+LIDdvL8ANBkBHClVAGhUkgNkpcAQwD6CRsoKAEytOUARavk2oGZin1It1MptQInE7ABNIWlRYvVlDYFCuI3IYSTRcCOSUh1ySqQAEIVYPOtEDMpUqHgOWqlFQIGq3y8MGei5SauSKuxzZKpeGBZSAQH7XAZxW0ZAepaAeGFYkVGbv2WUzwvXGdeRstUYVLQ3qHgCcjbHdSuYBHwPjEFpALCKbGUQoBUudLy2Wc/Cuh7CrOJJdDslwHo14yrUDAFfdl+tsI6E632wgeIj9KGDpG0jS0ZAASnZUPx/3goQiiClPna9/200R6A9Awza6wAUIZD4lEqlACJkysMcrpQA5zAOJCkwoW9CykIKzo/UvLY5w/OVdBgXTILni3oZxQyVncxtdbBzBO5kHv+dCRY0ZxJ/Pv6HmBGjDPsFeFkLpaGi1MD5xfYPPqPiBGQPXzeN53m3Wy4ql9/Hm4ktLbcafvgL);lineShape=1;" parent="1" vertex="1">
          <mxGeometry x="1533.1158743888213" y="1051.4604133658574" width="17.112694150063664" height="17.101687265559423" as="geometry" />
        </mxCell>
        <mxCell id="92NGAnlIAFUWFbHLshSl-65" value="" style="shape=stencil(fVZdU+MwDPw1edXYliXbz8D9D2YoNENpmVLu49+ffLmGyrT7ljheSyvtKp747mP7+L6ZUvg4HQ+vm1/z02k78f2U0rzfbo7zyZ4mfpj47vlw3LwcD5/7p+X9/bHv7E9vh5/9hN8Lriql0FEp/FlWYqUi/1Z+LIDdvL8ANBkBHClVAGhUkgNkpcAQwD6CRsoKAEytOUARavk2oGZin1It1MptQInE7ABNIWlRYvVlDYFCuI3IYSTRcCOSUh1ySqQAEIVYPOtEDMpUqHgOWqlFQIGq3y8MGei5SauSKuxzZKpeGBZSAQH7XAZxW0ZAepaAeGFYkVGbv2WUzwvXGdeRstUYVLQ3qHgCcjbHdSuYBHwPjEFpALCKbGUQoBUudLy2Wc/Cuh7CrOJJdDslwHo14yrUDAFfdl+tsI6E632wgeIj9KGDpG0jS0ZAASnZUPx/3goQiiClPna9/200R6A9Awza6wAUIZD4lEqlACJkysMcrpQA5zAOJCkwoW9CykIKzo/UvLY5w/OVdBgXTILni3oZxQyVncxtdbBzBO5kHv+dCRY0ZxJ/Pv6HmBGjDPsFeFkLpaGi1MD5xfYPPqPiBGQPXzeN53m3Wy4ql9/Hm4ktLbcafvgL);lineShape=1;" parent="1" vertex="1">
          <mxGeometry x="1559.7825410554883" y="1158.1270800325242" width="17.112694150063664" height="17.101687265559423" as="geometry" />
        </mxCell>
        <mxCell id="92NGAnlIAFUWFbHLshSl-66" value="" style="shape=stencil(fVZdU+MwDPw1edXYliXbz8D9D2YoNENpmVLu49+ffLmGyrT7ljheSyvtKp747mP7+L6ZUvg4HQ+vm1/z02k78f2U0rzfbo7zyZ4mfpj47vlw3LwcD5/7p+X9/bHv7E9vh5/9hN8Lriql0FEp/FlWYqUi/1Z+LIDdvL8ANBkBHClVAGhUkgNkpcAQwD6CRsoKAEytOUARavk2oGZin1It1MptQInE7ABNIWlRYvVlDYFCuI3IYSTRcCOSUh1ySqQAEIVYPOtEDMpUqHgOWqlFQIGq3y8MGei5SauSKuxzZKpeGBZSAQH7XAZxW0ZAepaAeGFYkVGbv2WUzwvXGdeRstUYVLQ3qHgCcjbHdSuYBHwPjEFpALCKbGUQoBUudLy2Wc/Cuh7CrOJJdDslwHo14yrUDAFfdl+tsI6E632wgeIj9KGDpG0jS0ZAASnZUPx/3goQiiClPna9/200R6A9Awza6wAUIZD4lEqlACJkysMcrpQA5zAOJCkwoW9CykIKzo/UvLY5w/OVdBgXTILni3oZxQyVncxtdbBzBO5kHv+dCRY0ZxJ/Pv6HmBGjDPsFeFkLpaGi1MD5xfYPPqPiBGQPXzeN53m3Wy4ql9/Hm4ktLbcafvgL);lineShape=1;" parent="1" vertex="1">
          <mxGeometry x="1566.4492077221548" y="1235.4604133658572" width="17.112694150063664" height="17.101687265559423" as="geometry" />
        </mxCell>
        <mxCell id="92NGAnlIAFUWFbHLshSl-67" value="google.com" style="text;strokeColor=none;align=center;fillColor=none;html=1;verticalAlign=middle;whiteSpace=wrap;rounded=0;" parent="1" vertex="1">
          <mxGeometry x="1190" y="920" width="60" height="30" as="geometry" />
        </mxCell>
        <mxCell id="92NGAnlIAFUWFbHLshSl-70" value="" style="shape=stencil(nVjZUhtBDPwav6rmPp5J8h9UAcEVAhSQ6+/TG2dspF33AG+LUc/obEmzixfPt5eP17vgnl+eHr5d/9pfvdzu4qddCPv72+un/Qu+dvHzLl7cPDxdf316+HF/dfj78XKRXL6+P/xcTvh9wPUoqSyo4P4cfvHS2r8fvhzk7/b3Wr5kJZ/ERyKfJEYlX2fyPSn5LrkS+SzVa/2D5E4ARULXgCSVaVSkGUCRzlSqkoMGdKmJAv6fNwAhDC9vA5pE7aSQJToKqFolhKEyG7o4bXR0EjggOQ0IkgIFFJ14MQ0lzwGazrxYRq5sArxz4oxOfYTm3BVdW51QDdxqk30pSyjcTToQCcFn2dck6frJTiq7IY/zjgCULK9oU6G5iCdeanCiDkTu4skNAHh9Q/ESSX63JqFpQKRGN6SOjnSBDf48oBZbo6VLYABn41C9FBK4kocCRwCYktgAnzgDKLTk4PVgVGqUK3Me1D4AzVEmS+AZAwi0OyA3TaQbiIm4FYCgmaxVegPqK2svIbs6cWtyg3uPDSWII+kNQNM3gJ8d6Sixr25o9AbwlumhADRSDxEspLkSPJIJ36MdrAGdANChoi6gV+y5jQiWjheCJgD0/W7lWWoE6cE6iTV2FKjOVYStkvPdILmjfKEt0dsxoB+dvJ3aQ9tX8o5ktncrh6aR69uAahkGAMZhIdpuNQN0O5hMVIrofuE9Rsdmu9XEq6jOYtzKwwaAaW9LXrDqrKtA88SL6K/GrZPMRst/V+kg9wzpTatzPUZzAmgbKjGGOfayN1IYmlu18owjV6PbhIQ/IG/04V1hpT/aDpsMUc1mr2pcIb9KbAw1hYUYKumQoTmzasba4nROVNhABuiwaju10vkZWdF0+Vde/iCYqG2ogQ6r2BGS9lI9RnI7T714HbhS6bCKebyYyTCNgWCb5zHLai+VMFabc4BiVHJ0VcpBqjY6Y0AmqYEBPukbMt8PcZ4ZYbA0ODasOsm622KSYyP9Mt1qt04Wn7Ka2yarVVlV3GR5WwD6hsl6uBhtlmK+gS42aC9NdtyyqunJFn1apN64pwPwvpcAJLPXzDp5awDADGKT1wwAzAwweS/BMmgW0MmLTFl1q8mbDwAm+SavStj2suk/dBU7radvexaDvKEA/uwG+a6DwJ/1QIqxGvnEzm/WXk/nEbB01Pa6QbPb8sEu9DiAycP/0cjT/b+N5f0kz/Rv3na2iXyy2wvXB8OBSThub18t2tyf3dv5jserx9G335YPH3hGnsjj4/RmfbO/uzs8eb/+v33jxk+H9/H4+S8=);lineShape=1;" parent="1" vertex="1">
          <mxGeometry x="1197.270889657595" y="953.9088509201874" width="13.374219149499671" height="93.59216657128611" as="geometry" />
        </mxCell>
        <mxCell id="92NGAnlIAFUWFbHLshSl-71" value="" style="shape=stencil(rVnbbiM3DP0avxKiJEri83b7HwtstjGaJotsevv7cmpoMqQ8JyjQN3vMY1G8HF7mUj79ePzy/eGS04+315dfH/68fn17vJSfLjlfnx8fXq9v9ulSPl/Kp28vrw+/vL78/vz19v37l01y+/Tbyx/bP/x1wzH1tIFy+vv2IBGPfx/8fBN/uj4fxDslduKFRjkXZ6ZUnHyjkoG8UO1OfpD2c3nTtoqTtxN7AwCh0TygUudzQGGq/gbcSSoANOrZATaTyjmgLifkTDUBgFDxl86VMlCpDhLvZDND03OAMLG3kvltALNKoRJO6KQIIJQCwDwNIknM6t6sJWGVlMrwgEwKPN3S1HgHVBogF1qmrB7QqAGVWqFePWBQBY5rFps+HarFEsiftoS3RZeiE0zjcELBVuo0fPDVRgIc1yz4vJUsHAsyq1L1d5A0o+s+JxkJ+BMkQ5bpTOJDQypVxHp5csQOaJOo7gPMiD68xS4N/NCF2J9g4ZiQSi1mXGPohz6o+QSycBzArMPyy5vVoquB0BhGAj6WLFgQkQ0hDSfopLb7ALuDv7S5EmWcLnfYPAPMqjmSgBk6I0Cd1WAHDEqAW7URhxJnnkZ36JFmBg5vA4QEGvUjQODWsRexU4AnAfNMB47bAD7jzDMNJJABms8H8wwquzqilVRg8KnGCmSAjk5QEm9Wc2VGntZIAgZA3QyntOjUqYOktiOGjz6zA2IyA4SGyZ4wtutYAA0DOEcAKkF2xVIWAM6g6AiFTGaOjY5QWIK20OFo1o4BvPgBJrUBwqU7LHIGCOS6mQFlkCyhIbAls/+rSwYJZoEsEQDvYDZZVCoovHerHwANJ3XRaCXIxhY5HAEo4+7n6AcppyEhBmzXtwRLEYB6443KQmzo7PjP7BqDSWEzvfG3t+vBDmfRFA2rsxb/T4BCLaSQTC3PanvMiILL3ApgODdtAB+vw/gWn6D+0qPjUr30J9ZEoelyA4TuoWBm4uUOTBkRTZr1YO+AFI7UY6m8vUOzWjcSVLJ2GaWc9Tvdh4a1fahUj2WUs8YSzhw61wyH1rWCS9sVc2jwOwbUWdMO7Teq1HbF0PZZg9/wVBMqtU20CY0QKaaoDSkMzGo2kTA3GfWB8G77z4dBi9F02WcwH0Y5FN7bhBxOYEiud2Zw4yWQDwYIOzIbeBmplONaoOKy2JYUtaE9IbOmZWhnyN6isfAWhfkgS6UuOKelx7mpCGyxtkAI2xY8v1ogBF4qeBciebYK+05K8U4qRZXygM1D7XEGz5gEao0JlPde9j4gzabwsBtE+VCWNjEzNGtJcVhkhSRgCoTumxuc8nlZAHGBoxzXWWTfuxO4qdjdurM9nMsk0p7A5U9a1IdrxEQ5iqPqmSJp8wyRE/GwgMfFfGluGRLL8u9pkuWZ7lEczfRpbl7exdEOLc2e4F2coTJhp4fXMMt2GPe/HAvZR+LhvUeaLf2J+H96a/OhuH14f0H07fr0dHu/dPw9vlCyR7eXUeXzPw==);lineShape=1;" parent="1" vertex="1">
          <mxGeometry x="1237.5346602442733" y="953.2081363685877" width="104.80824450449715" height="108.95517362789299" as="geometry" />
        </mxCell>
        <mxCell id="92NGAnlIAFUWFbHLshSl-72" value="" style="shape=stencil(lVldcxs3DPw1esWABD+f3fR/ZCZ2ralrZxynSf599qrh9QhK6/GbbAE6AlgsFryT3X17/Pz1/hT129vry9/3P85f3h5P9scpxvPz4/3r+Q2fTvbpZHcPL6/3f72+fH/+cvn76+fNcvv0z8u/2y/8vPj1JqVtXlF/Xf5jkuN///jzYv90fj7aF7HZPklIxN6k62SfJTJ79fZVlJynVYlhsu9SC7FP0mf7ECQF4hAlpdnBJObbDrVLy7MDQjbigAjnlAYE1YlDEuuzQxdjRwrSbHKIQYxkqXRJZXYwMVKGUkdOdgcErcQhS3IOZRzyugPqMAMDlc4sBpUwP8GCVBJDbuPEuwPvhVxGTnaHLErAnZPUuQ5WJFXiYBLmOliTQKCRg48h6QDLVYeEJM5ZSlEq6YdUpcxHSihlIw5Zcp0dGu24ZL7SiCqQOqQw2mV3sHHIqw5IYptjyDutXXcoPksASyOFs+ThXdBxBN4WfQMVxEAKZyp55qWtpYgD2kXnoNG0SlgDzOvAB1pg4Is7EHbuDpTsQSp1fkI1ilbQVp87ruZRmesOKmXuOLCtkSOBSaM7EriQFC6gIeeB0jBQCFpDGcjZHYzyEsaH67iGoEkDheR5CVOykiyF6PuhYYiRfthm5txxHdxK+iGAjGdodM6tzaO7Z0oaeQzA3f4dkpHmZAOwTQJIotXbM5o0z8Ow7ySj0VPYZk8oLAxQHuwLwbUOiB3slfy+Sow+n5GcX0VdvJUyqi75LENy3LD38aIrWA+MQbzbp0EdN+ydQoI9O0/0kxz2LD82qnP8fYpPNz9g35gWkaA+P1RZDAY55N+IXsvL+etAyA17JyCBn0BoNA+Vf7DvxD4NFj/gmQ0CsM3aj+T8UbKT2LpD/AaA6vKAShugLw3MG8yWhDL5q0sDVKondClAoYuUjtMeAMdGxkft0/j2MGGYWimeIDDCjDRY9YDGjGQA6mPNPQ5hRijqF2WM+cxG5IIgCAl2orAsB3UXLzd1wSKGWBOvygNyi+2NWFyDe4LRMQD1VGYeqjxo4CjPOIUoZYIOneyCLvuVwXWHNETuQVgzabBBb44Bu2pjKrYtSjzQKwWAr7v1o7+3TegcdIbWZ3JlkYzYVZmKxUbk+gdLGhMs2841HwmrJ4MGFtc21yEVmtYUF4dE+wFf+yNx6Y4D1PkJiIqpLmy6bl9B3tgqm9XTHiqjJEt5CRq1p4N8CRqbZCfgw2rs9vftio2N8jYG3+5Qx35xnbqDFHe1A24lQWM1jjP40LSMyLYOdrdNUQpzqMttk9JxCBZyCwWoje1cNXoFg8WwksJVCFgnSRKdQCB3t/tizzNCZE39QMEQY7zU4jJE6U1nS371LZTs27IqZ34Z3JZmoBqpx+UilWqkvqhmpUsIJFeLzp5pmG3Hyt6eQGK7vK8f+f3lCkjpJS3sk4838d93EkbprcCmwdXlPzDFo8uaGWiBrzhEntHlRJGuaWvE4ON3MuoGAp0HW8Wqs2cC7MOvc961x4f/3x09nJ+eLq+ejt/7d0341+U9lX36DQ==);lineShape=1;" parent="1" vertex="1">
          <mxGeometry x="1100.0303559547187" y="948.6616236730797" width="94.96315481115683" height="93.60628844804494" as="geometry" />
        </mxCell>
        <mxCell id="92NGAnlIAFUWFbHLshSl-73" value="" style="shape=stencil(lZ3Zkh3HDUS/Zl47al+eZfk/FCHKZJgWFRTl5e+N8rjukrh9WnyjZVTf7lqARCJR85Z/+P3jT799eEvh929fv/z9w78+/fzt41v+y1tKn379+OHrp2/2r7f841v+4ZcvXz/87euXP379+f1///bTslz/+seXf64n/Pt9XEtHKWtUCv95/y/1aP1//+Gv7/afP/36aB+PkdR+oH3Kat/APhzN2Ue0D0Hsaz23r/PIVewLvH8dezoe7OF9aj/mEPtc0D6p/f8n7LV929Nxt48B7YOub6D3t8c9r285xgT7cuQo9j2BfT7aFPtK35uOUcQe5zMdUe0TvU88chf7SPsnHKWKfYDnl6nPz/sAvbYfR69iT+fR7EMT+wrrW2y/6ftkmP/S9LzkI9L7VP/8APuz3KZv29uCg38o6ahq3+n9wzGj2NN85qn7P22H9NrenV+zh/2Zq+6fhP4zZz3v9r30/Hh0fZ8B9mmqv0rHhPlPYx+/h/UF/5Da0afYk39b7jWJfYb1Wsc1vv35/b+mw50vOO/J5jOI/aD3D3v5H/wD7P84dzh88Ffw/nFs93q3LzA/sR/D+WdYr9i2u3+IL/T8eky1r7CfzV7W6xagXtvbdFSxr+A/Y1Y8048A6xuTrldHvBHjMZ/3w9gB58w+RbEn/BNt/zyv7zwS7Z+wj9/dvsPz597t29wekOF7xzGf4Zh9EOEfcw/P7sQmuML7dIWT8XagT+zz83GxDUXxq6k7XBuc8KTCBztwiE+cOzeAQPFIw7s5JMKfZaO1m33ZDum1/z/S83awL5pgb9v/eTvbDqHzkhzcCDifUfdbTkem87tX82afMf5G5/4LxkeDA/I+FeczbG9/s+8bIJw9X8LX2ADk5P3D8/MNsFD8su8V+Jw2ADmbT7G384X2sh9KY/+m4bSwP0y6XgaoKb4k9ScG8AnPm7eRcHQR3zU8WkJD+zm7dLMeg/DbftubfUN8m3c0v9n3vaNO7MWfWIKL+cgRnp9vCTTFl6L+zRJ69leSrjXGny5daAX3c91o/2ZfEc80PS+t74TmxF78VRu4Xl3ThR52hDqxr8/+s0fMB4fut55xvcaOPjd7W0F4n6Hr1SueF0MjYt/Qfzq80TvaLzzzvCH6YEAZNCHsc6cQZ4hMpnTwEbABNesAiqkGeeLzR4+ISaENGM9ebhgqoF/IegxGZrde3ICyI88ZThfHbgMmfcMNZ98GVNzZ0WWSo2Eqb6mSpGKjX+VuEmyG7SUKNhY95Bfm9n+vB2Q9PjMgvFnsm8D1eJU/i4O0AZiAdo34kxH4chnyDRcp+lQfYwMwBgblkGbBJCJHRbE2AKNg0ixxVnQChipz0AH4C0UD82wI9BeubDqAmNTFJMm09j0Nrwc4320DGsX+oFySDZiUrNjOkV8Y6GYMXNahA4i+MXQpdMbkfMvg5XQDyLfWuN/4YQC5meogmA0gSFhvFZDHAYRhHCdjA4h0M0w3ZLdO9N7NsVY2gMoELSvOWwPoF7wjmwj8W3N7aSLTbkBttO8aMDXsXgwwqCZc4xpA5EPcueXjOtCAvCfxT+4lQ2t6RAfibYNfAkDnrSLweoDhL+cEqGJmcCrLLzT0GsPl2DYgEcZNCrAmF+Xu2OUhPhCrb1CkyHnI6IwNiigNl3FrGBSRRGzeYtLrAUOZrxnR3Q/vBMIG46+hd9BS22Bux15AjugCWPBK9onCxtm8EXRYkyi/UDjdyI5u5frE2gjP0zoiv1LVAubKH2Dz3YHCY0oDm28Bhef4sA4tfXR3SR8XEWyAhCzzVJUWrmtVrF1sjaFlLvPnhTbfDWnfBmQkAu6O8YFpwIWbSo2uWj0c0eXchUtqPK3T1eYv1sGLC8wJ0G511eEa0JH5AWUiIlsDpL7ECfiLAQ2RwItXKnyAXEAxnEkczloHIUkjklxrazwvXJ4YgeZQrGFonDKUORToGt4nnnodIKmLZyQR7tD8kTmnae0aRfPFLHUFJ1e1o6YpzUUxa3k+qV50ZOdtgCzcRfnCnLGWu2230itVdQKJCwYWUISbsaR/0m4tThFwK7KcxTjhyBZrT5svaxEmhU1znsVpSfHjRJZ1cQzPC7fKYLSXou6leMOZZ+BEvMZFYc6wS5XKZT0GYb6hVGssm9M6GyBhdxWfCZF1RZWLlyOg67JdG0Bp2XDV9ZiQkLIBSV4pbth4BqW1oBrR3Y+sfGsMqEAYyaXHvNBRS24TT7TZCw4YWEEbwVHYx4T3v8PBuz0x6t0puBoiVrMPak/z2V0JvCEXYGBT5r+iO+pNk6uKCKO73Kog72tYVqIIk4G9aFrPIMxybilhcgW5OwVIRkVKf6Gwwvw5qgIzobNerITa0/sYcheFVUQms03nIjDEtqG4ImJFu/XvfJ+u8xORXrDEI7nn0/xUVRTHzU+8ti+KBSP6h+YUsAnzlpZVUZwwUpq9KCQzEjwtecUmVSQXV+gUdFRRDaoYzLy+jv0vGwqfkZ0yP+wfVsFb/Qmx4JYlRn3+JLa2aUGlYkW4upJzxfNSq1eME65ZggNVvCOfXRVeVoyPZi+4qSLNtOxV8Ujnt1ZNnQr6Z0+vF9zPa34kW2RFd9PzxZXR2lTSUVhR35RlLjvJObMXCUtBIrE6UGnnhRT7TpFbdkA7s3f7jSqW6/nacUB5a3VUa+WCTtNSBdeZ13qpPZ7HpnisYnysVeMFK1Jq1dpMRX9bq5M0oeLRn8fK+7lqYlUu/Ymed2IC1/eqvyWF8/KHDu/xef8++67nlzsgLF4I3kgb4J/FoyiSSixFV6cAT+hvm8OHEeOXxXfZzxHf39cOI+Y7hjccHsP3T3peAuMrl3CGvcHP8Jjg28CVTIf3AuYXHk8GpNk8Xg1cu3V4ODD+d3g7IJW/8Lx7Pq2vY18D+n+znzqflL931zERUKHXnaQ1IO1v+V1UPI8F0uzzEYpH99rM/fxmyk+L+tuEhLzl10KtZVQgm33XfJYUFZbvF82XKZ/q3UmWMb77gnNBAVMfipcqsqF9qhKB8YDZS+G1of8fQeMvK3hHVMlyR6HQSOqvuIA/shPaYQfZcCXUiftzOH5mIl4aDg/cJZlnLKhUKxflSAO6IjgbgDxrVxcUE3e5DJVdLEkmkZqeRMkY5W2AnMrIx2wV9+WjC1K/NkDjduFSeXTrwEh3up0aG1e+b5N4G8DdVTM7kn9wIbsomIuTa4nFsXcR07HpGtYWfqJfcB2MFwShDRCdxr2L5/WAphH5IoWzAaJrTRUx1HRtU8tJ0oDuSlKdK65Opmpu7GKApLlpIg+wdFDSeRq4WjmU6M8JqzOrauyblbjyLfKX1Q7MtXWR2uaOZMB0yURm4d900XB1TNNKT61LF86HYnBXNBRmKF6NYA3CqxGXMgdh3Qo3Wq4BQguEy18QfQoHobUUkrhzJjtdTKmNfdlUUY4lt1ilddoOyw7RD0wFq5a+UXbqz1BrSN+uUyrlsol88vIDIvDilhsvpOhcB156SCfwunCvEiI666qn43w7g7JZlYRYLSj0C0VXemQWeGWFxQYEUdWWNE8djaNW1BM3xpVqQYKQoS786ODEs+z8xlQwYF9Fyf9wm29mHtCcqP9CqVq13LkkkCyeFci0EAsX8FVM3lgXEXXzzc4l1bkZpocBpETqrm18Dk5CHWm/HA9VYYuCsrts7Yw2iG4ASVtXHbnrAGw1DK7vZiLA94L4hzh5xiVp7fNqhJP1X46oqvFan0GEkrvS4R68zxhMv3ZU8q2uhL6W4qKDw/VXXPWIuMW+6kJxzQyEXlefi/sFapxcnTTuGyq1ArdXRwIWrjim667kfD3A9d8tJSc4jhJeNChRcpaHIzcGYtHsGnxXCxQ1cDt6+MKX5eJa0TrixJxdEGoIaHJSRnMy5bWEo7KXKnfFB9fnUlH4vDRdrsOPotbKDqMOoEC6OrPlGzLyysnV/SZf/bR4TNeaiXdtuLucJmvtViVIfiEg1l3XVUgj8eRG4qluZvB5iEO99+jI0NwpokfYRzdcuPrlYMFFLEolDL7jLma9ZGTwJXExKUU+MnJxMepKLxUkX/ujWDciARmDa72J3MGhkX0ETjlUum0gDVsZXM/KYJCosLUzYTQUwN07316jJXexQcGMqbuULPPFk6rM7QnL2k1jocE54k6bu6iDJdtOJdC4K8kliKtOSRfvuecXDGvlBRGAMUerRI1ld1lVd407Z5JTWU3Mb5PSjXVgVE5KHi6dAV68lKRqxRSXu1PCICVebOa+N6P6PSoErhdXUGwR2QMdRnSsuwfW8CflU84hrpsoYf6DqzKyTCxoymngk7Lg4N6f91tQNJG5w84RmLmhrNKp2A14Ehh335tZVhlcFTlfXDQl/iSzLCWqqiOHi/Mo83nRe5T0wpMlqyegr8n1hUy1KJW/3hAvftOOmskySQVmsXPSqypGA14X8Ujeh1uom3a9Rr6Y091msS4CxPirlb+Ivcdd76lcEIrxhuRATAI7CovrLq7rGCfT3tXdCklgxuwFvXW+FCkq0d9Rs7PK4xKt+flZoxH3oESnkWENcnRNd6xhjI4fL/z+LzSzeH1SV/om862HTk+Q+dbSqeiKK8DJaVJYE+SvYUzoTPy1eNyh66+VS3wzU1WNDDuHdY2nvj8F9zRe9GTQ/LjiXsJC2rpl2fWIwPdm15PElzjdy8J3e+SQ3K3e7Dz9LdcRqY7irrWMfNOQuzgoYjK1bgFXjSq+j7u0gTV6pfn5RHunTuDqWXHsVMTSlr/FKPIt++5WPFYmVHetKPckmb02OSNXVpPvYSLwXLP2APEt6fWmjbrb03mpRfdb5h6L6tAz+tvaNN5l/l7XA5ExHlXXSZyRI6uuZ5T/qsAq8+v74H6b/hZ27Jlz+5N7aJrTqhW+nsr91REm7PxfNSlXmnTXA0FkSEv+1nZKZlvS+FVQLdiS72EiCVlzF0jyLdFmL9qUgmyjt6+sSXfvUzkZcd9buWfRzWfF5M6vF99S7/cD34r63X9F59Le/nH/kz2/fPr8+f0v/jz+//onfuw/vf95oPzjfwE=);lineShape=1;" parent="1" vertex="1">
          <mxGeometry x="257.3482431107941" y="656.3377058825429" width="118.13734910430483" height="78.43955706210181" as="geometry" />
        </mxCell>
        <mxCell id="92NGAnlIAFUWFbHLshSl-74" value="" style="shape=stencil(lVvJklQ3EPyauSq0L2ds/wcRDGbCmCEAb3/vlMd6PGX1y2ZuQ1PV2qqyslLqh/Tm64e3nx8fov/67cvzb49/Pb379uEh/fQQ49OnD49fnr7hr4f080N68/75y+OvX57/+PTu5d+f307L+dfvz3/Ob/j7xS8159v0iv6f/z9xffz3wS8v9h+fPp3ti6uR7EcR9smlvtnnNeBte+9qI/ucr+1jd7ls9sVFL+zLmu6yr/r7Md202TdXlH10fl9vd0XsZxiuh81+uNGFfXOtbvYhuBKEQ3VxP7CQXBAnELJr+woCtlQsGd9XaITmsppSdGXfU+xCisIhuLQvOgbXxJSwh3sQ4Rh7vbZHEO1LxidJfD+Sxu9JEGTWFJ4P0iiIKC1r9MMexy52tHDQZX/HPuzzz2ml0ZX9fmC5rjC8sI97UOdx5/vLfr4lriC8aV9doKTHfMR+4rz2+dQDZi7iIez7X4FCScUbZUAFSqgcCy7sDs07LzZo5uw+oxZdUrhS1gQOhyy3NHQG6tbWqVwh16A1jBUmt6ERQLVHXUeUKofk/NgdsGixS8jySg5pZd5th+Y6oXV1XY0wXKU1dBfFtiYE8j6l4WUBSaZAjSixKAE795MeaY150wG57mkEoKPInlxWwTgcdJHNB/6fHLLYpeI5QeGgAB74QCcNhy5OupRVhk8OKjSKqQmjLipwG5NMkZoOYgRgCqHqdBAHVyvX/nsOw4xQJLsAqAxz0opdNNBBE0vq4Fo3U4qui9oPUGnk4F0XI/SwAuGUoqrY9uzSPgI+GWLREyN2MMaYqvz0sQjUAZV94cjtehKYYDSctCI8kRkD4D6IbQVG5D0fWnBDxBLONVENHSvgrxzqHq0zftUasOv7OdSkdwm0Z69AZUj0ng77COANipdMh33RJS3guVzDjholrI3+wUXn7po6uAOrT1xM4RIc6KRRALoAgVk+9oPLOuMQfNXQ1aEcwjqmEx8e6qQ9dwzoKxXBQsoPmlKQUDlz2rQAKh96YUYGMlHFOYC70ElPGitOGuyIu5K8GNQVthJqoBvtYkpAb4olcLSkRkir7p86t6rQ269NPBy6LCi1rxmfmskiRgCo5B0E0PFmVXYR3nt9AFfOagTPsRSyJLqgDlSyJn1X9KcuWns4RBmtQCGCe3QUqn8AwYp0Dl4yMlA4IrrTQXG+zAk0HcQu5biqwclBLRooRF3i0FJSYSlpSB6QMlN1IIAocICgwfaS2Scm6k1LbcmQgNXmX7UaY7cHvtz5/n3+ZZX4K3va/6zXm5n1JL2fRsVIElCTVVVcUftjaFuSzBNFrLB0mdR8DLUtkrPBnrqkouPB2FfZ0dv56AJl19tlt233s0v2Zc9ryHyf8WDsXxVvXYpgM54L2StYt/nSJAG+lY+KCtp8L1I6tniiFR6LV7qMWTxMej8N3mqO9lr7HFxlfFDzmTTX7I+yP+Dy+/6r/QFRp/kUXeWDxQcl7JTE+VikrgMWEXb7KqkWaAp9f5NXIVMz3fGnSwkSRCuSNqCZXFnwdCIECtDBFamzAQtSsu5ko8RRolQgwXfDvmQwOdWdgVFHWsMdPaQZvguUEKgy9RC6AGrrCumq76Cm985tS89c56NfUu9th8aFG31HEZWgD65kSM2oetiw9uRwKFqtMLGHYL3TJVMxSIcmeSUNcNOr74BG5b4jafwdzXTJVd61DtQ7chiyFRrmHEDK5aIHjwDarxrG4D0XNcCsYl0YYhDLHJK2TAcqm1HiHhyoUymHkHTpsJ9c0UzBjlCDFqYGl1qAoarl8+Ti7tB19HVzWxO0uNb4or9lHUyVL/3aXb2PBMLWV4pc6Ux9n1IPEsnG0bKelF0FrkCyQSWu6YvCslqgkzqt1tABTOa2RspGge86p+ivVSB6EYGzV+E9axZNacgXAogcUuNm/CpRZyyQODkoYWoqxYUdVAm6cZdyxyGw5DIdtKjD2zpkOztvnOyUFD+MXIJO6HmbgQ7OoDmEwBlgL8X3PDnFubO5XBxSg5wFxExJqhaDNUiEq7p3RtvAF0J3dRF7uaiEkdhZ+wLyKD0bRJtIHAiLSupoLiIAGyrl0OpEgr6+bt5uOwQGJiBZUI9yzHV+11d/obOkOC/bxaJBbKlfmtf56pVE4oagDanUol8gib3p63yjqMxbM2FfWf4GFAYRq5khoDYtObHCUPWWRq5vk2coOrZeQR1ERgN3YJm5NJn9nhNn9rDSnp7B5CHnf4tMqndI5llB1q8JPStOOUgs8vwwIunWypsmo8r+M3CKpSR7vbgU93MTo7CUHx9GfXdSWGGYF0xKAuBHSEAZdSfQuOwDM9T3d+6Qwp1HTn4dz0kAUJruFBRedW8y9QGinPfeaXUWdavKyMYiqhbtEXLcE0rmhQNt+w5FmZHRiIRBCiTRNLVa40kGUjQlsu+N79ib98xei6LmvbTXlyxtFdHv9uox7bw5T2Svrt1SZ2rtJS9Ihtt4KaTAnuhZWBt8ZU8MM+iKZ+yjiwqxzHyifJBh15v0pYPZzyQphz2vtFjOD8aDzsdXv8+/a48/vv8Y4P3Tx48vvyU4/z//eAAfvfzwIP38Lw==);lineShape=1;" parent="1" vertex="1">
          <mxGeometry x="323.65228392525637" y="664.9229185715145" width="30.913210424681488" height="31.02910125237213" as="geometry" />
        </mxCell>
        <mxCell id="92NGAnlIAFUWFbHLshSl-76" value="" style="shape=stencil(hVbLbhsxDPyavQ4kUs9zmv5HgDj1oq4dOE7b/H2oLrQ25Q17k9cciuJwRpr44W3/9LqbyL1dzqefuz/z82U/8beJaD7ud+f5IquJHyd+eDmddz/Op/fj8/L79alFttWv0++W4e+CKwkpNBS5j+ULeRD/+/J9ARzm4w2gRnBUAGZwMQAVmRUgZCQbwBqQCMkqKcAXBcjJ3KEEFFKAUvqem4BMIN2lmsD1a0DMyLpL3jk49zUiEErWWxRk4xBU4ZMGrCk2Ab7A6UMUARg7eIfsNBEVJRlt6ul6fIzwRkUVVecPDhyMghLiMKwJ1QBIRV7vICnYqEgKCAMLyGTwHEE6PveebcZLA6uebWlyNCZPKBoB0mVj8toQVN2jCmepR8ZMA2QUszVH10leef6PolexrF0SQRltanLU8mmSNQAi+Ow1b8EcvWYpuqSr7WxPRu5NuQFkAyC2GHWXmnUaADFe1js0czYO3QDlDuAN5qjTtPJQQQZxEXWIF+otx0DSJ4i1K3Yz/m6QQjHr8XA6P9v6v/N58QtviMf7LpUbv0iWI9VuWCsFpgeLFge/kMvTYEz8iHRB4pDGSESPWId469YRGQwWTwj2RThYdkZQN4Isrm+Nl/lwWJ4qt/+PbxP5tLxr+PET);lineShape=1;" parent="1" vertex="1">
          <mxGeometry x="95.19419196439412" y="1149.4645420556021" width="10.460188352581383" height="10.439955890574595" as="geometry" />
        </mxCell>
        <mxCell id="92NGAnlIAFUWFbHLshSl-77" value="" style="shape=stencil(hVbLbhsxDPyavQ4kUs9zmv5HgDj1oq4dOE7b/H2oLrQ25Q17k9cciuJwRpr44W3/9LqbyL1dzqefuz/z82U/8beJaD7ud+f5IquJHyd+eDmddz/Op/fj8/L79alFttWv0++W4e+CKwkpNBS5j+ULeRD/+/J9ARzm4w2gRnBUAGZwMQAVmRUgZCQbwBqQCMkqKcAXBcjJ3KEEFFKAUvqem4BMIN2lmsD1a0DMyLpL3jk49zUiEErWWxRk4xBU4ZMGrCk2Ab7A6UMUARg7eIfsNBEVJRlt6ul6fIzwRkUVVecPDhyMghLiMKwJ1QBIRV7vICnYqEgKCAMLyGTwHEE6PveebcZLA6uebWlyNCZPKBoB0mVj8toQVN2jCmepR8ZMA2QUszVH10leef6PolexrF0SQRltanLU8mmSNQAi+Ow1b8EcvWYpuqSr7WxPRu5NuQFkAyC2GHWXmnUaADFe1js0czYO3QDlDuAN5qjTtPJQQQZxEXWIF+otx0DSJ4i1K3Yz/m6QQjHr8XA6P9v6v/N58QtviMf7LpUbv0iWI9VuWCsFpgeLFge/kMvTYEz8iHRB4pDGSESPWId469YRGQwWTwj2RThYdkZQN4Isrm+Nl/lwWJ4qt/+PbxP5tLxr+PET);lineShape=1;" parent="1" vertex="1">
          <mxGeometry x="120.19419196439412" y="1280.7145420556021" width="10.460188352581383" height="10.439955890574595" as="geometry" />
        </mxCell>
        <mxCell id="92NGAnlIAFUWFbHLshSl-78" value="" style="shape=stencil(hVbLbhsxDPyavQ4kUs9zmv5HgDj1oq4dOE7b/H2oLrQ25Q17k9cciuJwRpr44W3/9LqbyL1dzqefuz/z82U/8beJaD7ud+f5IquJHyd+eDmddz/Op/fj8/L79alFttWv0++W4e+CKwkpNBS5j+ULeRD/+/J9ARzm4w2gRnBUAGZwMQAVmRUgZCQbwBqQCMkqKcAXBcjJ3KEEFFKAUvqem4BMIN2lmsD1a0DMyLpL3jk49zUiEErWWxRk4xBU4ZMGrCk2Ab7A6UMUARg7eIfsNBEVJRlt6ul6fIzwRkUVVecPDhyMghLiMKwJ1QBIRV7vICnYqEgKCAMLyGTwHEE6PveebcZLA6uebWlyNCZPKBoB0mVj8toQVN2jCmepR8ZMA2QUszVH10leef6PolexrF0SQRltanLU8mmSNQAi+Ow1b8EcvWYpuqSr7WxPRu5NuQFkAyC2GHWXmnUaADFe1js0czYO3QDlDuAN5qjTtPJQQQZxEXWIF+otx0DSJ4i1K3Yz/m6QQjHr8XA6P9v6v/N58QtviMf7LpUbv0iWI9VuWCsFpgeLFge/kMvTYEz8iHRB4pDGSESPWId469YRGQwWTwj2RThYdkZQN4Isrm+Nl/lwWJ4qt/+PbxP5tLxr+PET);lineShape=1;" parent="1" vertex="1">
          <mxGeometry x="475.1941919643941" y="1220.7145420556026" width="10.460188352581099" height="10.439955890574595" as="geometry" />
        </mxCell>
        <mxCell id="92NGAnlIAFUWFbHLshSl-79" value="" style="shape=stencil(hVbLbhsxDPyavQ4kUs9zmv5HgDj1oq4dOE7b/H2oLrQ25Q17k9cciuJwRpr44W3/9LqbyL1dzqefuz/z82U/8beJaD7ud+f5IquJHyd+eDmddz/Op/fj8/L79alFttWv0++W4e+CKwkpNBS5j+ULeRD/+/J9ARzm4w2gRnBUAGZwMQAVmRUgZCQbwBqQCMkqKcAXBcjJ3KEEFFKAUvqem4BMIN2lmsD1a0DMyLpL3jk49zUiEErWWxRk4xBU4ZMGrCk2Ab7A6UMUARg7eIfsNBEVJRlt6ul6fIzwRkUVVecPDhyMghLiMKwJ1QBIRV7vICnYqEgKCAMLyGTwHEE6PveebcZLA6uebWlyNCZPKBoB0mVj8toQVN2jCmepR8ZMA2QUszVH10leef6PolexrF0SQRltanLU8mmSNQAi+Ow1b8EcvWYpuqSr7WxPRu5NuQFkAyC2GHWXmnUaADFe1js0czYO3QDlDuAN5qjTtPJQQQZxEXWIF+otx0DSJ4i1K3Yz/m6QQjHr8XA6P9v6v/N58QtviMf7LpUbv0iWI9VuWCsFpgeLFge/kMvTYEz8iHRB4pDGSESPWId469YRGQwWTwj2RThYdkZQN4Isrm+Nl/lwWJ4qt/+PbxP5tLxr+PET);lineShape=1;" parent="1" vertex="1">
          <mxGeometry x="236.44419196439412" y="1150.7145420556021" width="10.460188352581383" height="10.439955890574595" as="geometry" />
        </mxCell>
        <mxCell id="92NGAnlIAFUWFbHLshSl-80" value="" style="shape=stencil(hVbLbhsxDPyavQ4kUs9zmv5HgDj1oq4dOE7b/H2oLrQ25Q17k9cciuJwRpr44W3/9LqbyL1dzqefuz/z82U/8beJaD7ud+f5IquJHyd+eDmddz/Op/fj8/L79alFttWv0++W4e+CKwkpNBS5j+ULeRD/+/J9ARzm4w2gRnBUAGZwMQAVmRUgZCQbwBqQCMkqKcAXBcjJ3KEEFFKAUvqem4BMIN2lmsD1a0DMyLpL3jk49zUiEErWWxRk4xBU4ZMGrCk2Ab7A6UMUARg7eIfsNBEVJRlt6ul6fIzwRkUVVecPDhyMghLiMKwJ1QBIRV7vICnYqEgKCAMLyGTwHEE6PveebcZLA6uebWlyNCZPKBoB0mVj8toQVN2jCmepR8ZMA2QUszVH10leef6PolexrF0SQRltanLU8mmSNQAi+Ow1b8EcvWYpuqSr7WxPRu5NuQFkAyC2GHWXmnUaADFe1js0czYO3QDlDuAN5qjTtPJQQQZxEXWIF+otx0DSJ4i1K3Yz/m6QQjHr8XA6P9v6v/N58QtviMf7LpUbv0iWI9VuWCsFpgeLFge/kMvTYEz8iHRB4pDGSESPWId469YRGQwWTwj2RThYdkZQN4Isrm+Nl/lwWJ4qt/+PbxP5tLxr+PET);lineShape=1;" parent="1" vertex="1">
          <mxGeometry x="261.4441919643941" y="1294.4645420556021" width="10.460188352581383" height="10.439955890574595" as="geometry" />
        </mxCell>
        <mxCell id="92NGAnlIAFUWFbHLshSl-81" value="" style="shape=stencil(hVbLbhsxDPyavQ4kUs9zmv5HgDj1oq4dOE7b/H2oLrQ25Q17k9cciuJwRpr44W3/9LqbyL1dzqefuz/z82U/8beJaD7ud+f5IquJHyd+eDmddz/Op/fj8/L79alFttWv0++W4e+CKwkpNBS5j+ULeRD/+/J9ARzm4w2gRnBUAGZwMQAVmRUgZCQbwBqQCMkqKcAXBcjJ3KEEFFKAUvqem4BMIN2lmsD1a0DMyLpL3jk49zUiEErWWxRk4xBU4ZMGrCk2Ab7A6UMUARg7eIfsNBEVJRlt6ul6fIzwRkUVVecPDhyMghLiMKwJ1QBIRV7vICnYqEgKCAMLyGTwHEE6PveebcZLA6uebWlyNCZPKBoB0mVj8toQVN2jCmepR8ZMA2QUszVH10leef6PolexrF0SQRltanLU8mmSNQAi+Ow1b8EcvWYpuqSr7WxPRu5NuQFkAyC2GHWXmnUaADFe1js0czYO3QDlDuAN5qjTtPJQQQZxEXWIF+otx0DSJ4i1K3Yz/m6QQjHr8XA6P9v6v/N58QtviMf7LpUbv0iWI9VuWCsFpgeLFge/kMvTYEz8iHRB4pDGSESPWId469YRGQwWTwj2RThYdkZQN4Isrm+Nl/lwWJ4qt/+PbxP5tLxr+PET);lineShape=1;" parent="1" vertex="1">
          <mxGeometry x="461.4441919643941" y="1345.7145420556026" width="10.460188352581099" height="10.439955890574595" as="geometry" />
        </mxCell>
        <mxCell id="92NGAnlIAFUWFbHLshSl-82" value="" style="shape=stencil(hVbLbhsxDPyavQ4kUs9zmv5HgDj1oq4dOE7b/H2oLrQ25Q17k9cciuJwRpr44W3/9LqbyL1dzqefuz/z82U/8beJaD7ud+f5IquJHyd+eDmddz/Op/fj8/L79alFttWv0++W4e+CKwkpNBS5j+ULeRD/+/J9ARzm4w2gRnBUAGZwMQAVmRUgZCQbwBqQCMkqKcAXBcjJ3KEEFFKAUvqem4BMIN2lmsD1a0DMyLpL3jk49zUiEErWWxRk4xBU4ZMGrCk2Ab7A6UMUARg7eIfsNBEVJRlt6ul6fIzwRkUVVecPDhyMghLiMKwJ1QBIRV7vICnYqEgKCAMLyGTwHEE6PveebcZLA6uebWlyNCZPKBoB0mVj8toQVN2jCmepR8ZMA2QUszVH10leef6PolexrF0SQRltanLU8mmSNQAi+Ow1b8EcvWYpuqSr7WxPRu5NuQFkAyC2GHWXmnUaADFe1js0czYO3QDlDuAN5qjTtPJQQQZxEXWIF+otx0DSJ4i1K3Yz/m6QQjHr8XA6P9v6v/N58QtviMf7LpUbv0iWI9VuWCsFpgeLFge/kMvTYEz8iHRB4pDGSESPWId469YRGQwWTwj2RThYdkZQN4Isrm+Nl/lwWJ4qt/+PbxP5tLxr+PET);lineShape=1;" parent="1" vertex="1">
          <mxGeometry x="346.4441919643941" y="1211.9645420556021" width="10.460188352581383" height="10.439955890574595" as="geometry" />
        </mxCell>
        <mxCell id="92NGAnlIAFUWFbHLshSl-83" value="" style="shape=stencil(hVbLbhsxDPyavQ4kUs9zmv5HgDj1oq4dOE7b/H2oLrQ25Q17k9cciuJwRpr44W3/9LqbyL1dzqefuz/z82U/8beJaD7ud+f5IquJHyd+eDmddz/Op/fj8/L79alFttWv0++W4e+CKwkpNBS5j+ULeRD/+/J9ARzm4w2gRnBUAGZwMQAVmRUgZCQbwBqQCMkqKcAXBcjJ3KEEFFKAUvqem4BMIN2lmsD1a0DMyLpL3jk49zUiEErWWxRk4xBU4ZMGrCk2Ab7A6UMUARg7eIfsNBEVJRlt6ul6fIzwRkUVVecPDhyMghLiMKwJ1QBIRV7vICnYqEgKCAMLyGTwHEE6PveebcZLA6uebWlyNCZPKBoB0mVj8toQVN2jCmepR8ZMA2QUszVH10leef6PolexrF0SQRltanLU8mmSNQAi+Ow1b8EcvWYpuqSr7WxPRu5NuQFkAyC2GHWXmnUaADFe1js0czYO3QDlDuAN5qjTtPJQQQZxEXWIF+otx0DSJ4i1K3Yz/m6QQjHr8XA6P9v6v/N58QtviMf7LpUbv0iWI9VuWCsFpgeLFge/kMvTYEz8iHRB4pDGSESPWId469YRGQwWTwj2RThYdkZQN4Isrm+Nl/lwWJ4qt/+PbxP5tLxr+PET);lineShape=1;" parent="1" vertex="1">
          <mxGeometry x="357.6941919643941" y="1085.7145420556021" width="10.460188352581383" height="10.439955890574595" as="geometry" />
        </mxCell>
        <mxCell id="92NGAnlIAFUWFbHLshSl-84" value="" style="shape=stencil(hVbLbhsxDPyavQ4kUs9zmv5HgDj1oq4dOE7b/H2oLrQ25Q17k9cciuJwRpr44W3/9LqbyL1dzqefuz/z82U/8beJaD7ud+f5IquJHyd+eDmddz/Op/fj8/L79alFttWv0++W4e+CKwkpNBS5j+ULeRD/+/J9ARzm4w2gRnBUAGZwMQAVmRUgZCQbwBqQCMkqKcAXBcjJ3KEEFFKAUvqem4BMIN2lmsD1a0DMyLpL3jk49zUiEErWWxRk4xBU4ZMGrCk2Ab7A6UMUARg7eIfsNBEVJRlt6ul6fIzwRkUVVecPDhyMghLiMKwJ1QBIRV7vICnYqEgKCAMLyGTwHEE6PveebcZLA6uebWlyNCZPKBoB0mVj8toQVN2jCmepR8ZMA2QUszVH10leef6PolexrF0SQRltanLU8mmSNQAi+Ow1b8EcvWYpuqSr7WxPRu5NuQFkAyC2GHWXmnUaADFe1js0czYO3QDlDuAN5qjTtPJQQQZxEXWIF+otx0DSJ4i1K3Yz/m6QQjHr8XA6P9v6v/N58QtviMf7LpUbv0iWI9VuWCsFpgeLFge/kMvTYEz8iHRB4pDGSESPWId469YRGQwWTwj2RThYdkZQN4Isrm+Nl/lwWJ4qt/+PbxP5tLxr+PET);lineShape=1;" parent="1" vertex="1">
          <mxGeometry x="171.44419196439412" y="1065.7145420556021" width="10.460188352581383" height="10.439955890574595" as="geometry" />
        </mxCell>
        <mxCell id="92NGAnlIAFUWFbHLshSl-85" value="" style="shape=stencil(hVbLbhsxDPyavQ4kUs9zmv5HgDj1oq4dOE7b/H2oLrQ25Q17k9cciuJwRpr44W3/9LqbyL1dzqefuz/z82U/8beJaD7ud+f5IquJHyd+eDmddz/Op/fj8/L79alFttWv0++W4e+CKwkpNBS5j+ULeRD/+/J9ARzm4w2gRnBUAGZwMQAVmRUgZCQbwBqQCMkqKcAXBcjJ3KEEFFKAUvqem4BMIN2lmsD1a0DMyLpL3jk49zUiEErWWxRk4xBU4ZMGrCk2Ab7A6UMUARg7eIfsNBEVJRlt6ul6fIzwRkUVVecPDhyMghLiMKwJ1QBIRV7vICnYqEgKCAMLyGTwHEE6PveebcZLA6uebWlyNCZPKBoB0mVj8toQVN2jCmepR8ZMA2QUszVH10leef6PolexrF0SQRltanLU8mmSNQAi+Ow1b8EcvWYpuqSr7WxPRu5NuQFkAyC2GHWXmnUaADFe1js0czYO3QDlDuAN5qjTtPJQQQZxEXWIF+otx0DSJ4i1K3Yz/m6QQjHr8XA6P9v6v/N58QtviMf7LpUbv0iWI9VuWCsFpgeLFge/kMvTYEz8iHRB4pDGSESPWId469YRGQwWTwj2RThYdkZQN4Isrm+Nl/lwWJ4qt/+PbxP5tLxr+PET);lineShape=1;" parent="1" vertex="1">
          <mxGeometry x="187.69419196439412" y="1401.9645420556021" width="10.460188352581383" height="10.439955890574595" as="geometry" />
        </mxCell>
        <mxCell id="92NGAnlIAFUWFbHLshSl-86" value="" style="shape=stencil(hVbLbhsxDPyavQ4kUs9zmv5HgDj1oq4dOE7b/H2oLrQ25Q17k9cciuJwRpr44W3/9LqbyL1dzqefuz/z82U/8beJaD7ud+f5IquJHyd+eDmddz/Op/fj8/L79alFttWv0++W4e+CKwkpNBS5j+ULeRD/+/J9ARzm4w2gRnBUAGZwMQAVmRUgZCQbwBqQCMkqKcAXBcjJ3KEEFFKAUvqem4BMIN2lmsD1a0DMyLpL3jk49zUiEErWWxRk4xBU4ZMGrCk2Ab7A6UMUARg7eIfsNBEVJRlt6ul6fIzwRkUVVecPDhyMghLiMKwJ1QBIRV7vICnYqEgKCAMLyGTwHEE6PveebcZLA6uebWlyNCZPKBoB0mVj8toQVN2jCmepR8ZMA2QUszVH10leef6PolexrF0SQRltanLU8mmSNQAi+Ow1b8EcvWYpuqSr7WxPRu5NuQFkAyC2GHWXmnUaADFe1js0czYO3QDlDuAN5qjTtPJQQQZxEXWIF+otx0DSJ4i1K3Yz/m6QQjHr8XA6P9v6v/N58QtviMf7LpUbv0iWI9VuWCsFpgeLFge/kMvTYEz8iHRB4pDGSESPWId469YRGQwWTwj2RThYdkZQN4Isrm+Nl/lwWJ4qt/+PbxP5tLxr+PET);lineShape=1;" parent="1" vertex="1">
          <mxGeometry x="386.4441919643941" y="1409.4645420556021" width="10.460188352581383" height="10.439955890574595" as="geometry" />
        </mxCell>
        <mxCell id="92NGAnlIAFUWFbHLshSl-87" value="" style="shape=stencil(hVbLbhsxDPyavQ4kUs9zmv5HgDj1oq4dOE7b/H2oLrQ25Q17k9cciuJwRpr44W3/9LqbyL1dzqefuz/z82U/8beJaD7ud+f5IquJHyd+eDmddz/Op/fj8/L79alFttWv0++W4e+CKwkpNBS5j+ULeRD/+/J9ARzm4w2gRnBUAGZwMQAVmRUgZCQbwBqQCMkqKcAXBcjJ3KEEFFKAUvqem4BMIN2lmsD1a0DMyLpL3jk49zUiEErWWxRk4xBU4ZMGrCk2Ab7A6UMUARg7eIfsNBEVJRlt6ul6fIzwRkUVVecPDhyMghLiMKwJ1QBIRV7vICnYqEgKCAMLyGTwHEE6PveebcZLA6uebWlyNCZPKBoB0mVj8toQVN2jCmepR8ZMA2QUszVH10leef6PolexrF0SQRltanLU8mmSNQAi+Ow1b8EcvWYpuqSr7WxPRu5NuQFkAyC2GHWXmnUaADFe1js0czYO3QDlDuAN5qjTtPJQQQZxEXWIF+otx0DSJ4i1K3Yz/m6QQjHr8XA6P9v6v/N58QtviMf7LpUbv0iWI9VuWCsFpgeLFge/kMvTYEz8iHRB4pDGSESPWId469YRGQwWTwj2RThYdkZQN4Isrm+Nl/lwWJ4qt/+PbxP5tLxr+PET);lineShape=1;" parent="1" vertex="1">
          <mxGeometry x="456.4441919643941" y="1080.7145420556026" width="10.460188352581099" height="10.439955890574595" as="geometry" />
        </mxCell>
        <mxCell id="92NGAnlIAFUWFbHLshSl-88" value="" style="shape=stencil(hVbLbhsxDPyavQ4kUs9zmv5HgDj1oq4dOE7b/H2oLrQ25Q17k9cciuJwRpr44W3/9LqbyL1dzqefuz/z82U/8beJaD7ud+f5IquJHyd+eDmddz/Op/fj8/L79alFttWv0++W4e+CKwkpNBS5j+ULeRD/+/J9ARzm4w2gRnBUAGZwMQAVmRUgZCQbwBqQCMkqKcAXBcjJ3KEEFFKAUvqem4BMIN2lmsD1a0DMyLpL3jk49zUiEErWWxRk4xBU4ZMGrCk2Ab7A6UMUARg7eIfsNBEVJRlt6ul6fIzwRkUVVecPDhyMghLiMKwJ1QBIRV7vICnYqEgKCAMLyGTwHEE6PveebcZLA6uebWlyNCZPKBoB0mVj8toQVN2jCmepR8ZMA2QUszVH10leef6PolexrF0SQRltanLU8mmSNQAi+Ow1b8EcvWYpuqSr7WxPRu5NuQFkAyC2GHWXmnUaADFe1js0czYO3QDlDuAN5qjTtPJQQQZxEXWIF+otx0DSJ4i1K3Yz/m6QQjHr8XA6P9v6v/N58QtviMf7LpUbv0iWI9VuWCsFpgeLFge/kMvTYEz8iHRB4pDGSESPWId469YRGQwWTwj2RThYdkZQN4Isrm+Nl/lwWJ4qt/+PbxP5tLxr+PET);lineShape=1;" parent="1" vertex="1">
          <mxGeometry x="606.4441919643941" y="1104.4645420556026" width="10.460188352581099" height="10.439955890574595" as="geometry" />
        </mxCell>
        <mxCell id="92NGAnlIAFUWFbHLshSl-89" value="" style="shape=stencil(hVbLbhsxDPyavQ4kUs9zmv5HgDj1oq4dOE7b/H2oLrQ25Q17k9cciuJwRpr44W3/9LqbyL1dzqefuz/z82U/8beJaD7ud+f5IquJHyd+eDmddz/Op/fj8/L79alFttWv0++W4e+CKwkpNBS5j+ULeRD/+/J9ARzm4w2gRnBUAGZwMQAVmRUgZCQbwBqQCMkqKcAXBcjJ3KEEFFKAUvqem4BMIN2lmsD1a0DMyLpL3jk49zUiEErWWxRk4xBU4ZMGrCk2Ab7A6UMUARg7eIfsNBEVJRlt6ul6fIzwRkUVVecPDhyMghLiMKwJ1QBIRV7vICnYqEgKCAMLyGTwHEE6PveebcZLA6uebWlyNCZPKBoB0mVj8toQVN2jCmepR8ZMA2QUszVH10leef6PolexrF0SQRltanLU8mmSNQAi+Ow1b8EcvWYpuqSr7WxPRu5NuQFkAyC2GHWXmnUaADFe1js0czYO3QDlDuAN5qjTtPJQQQZxEXWIF+otx0DSJ4i1K3Yz/m6QQjHr8XA6P9v6v/N58QtviMf7LpUbv0iWI9VuWCsFpgeLFge/kMvTYEz8iHRB4pDGSESPWId469YRGQwWTwj2RThYdkZQN4Isrm+Nl/lwWJ4qt/+PbxP5tLxr+PET);lineShape=1;" parent="1" vertex="1">
          <mxGeometry x="610.1941919643941" y="1246.9645420556026" width="10.460188352581099" height="10.439955890574595" as="geometry" />
        </mxCell>
        <mxCell id="92NGAnlIAFUWFbHLshSl-90" value="" style="shape=stencil(hVbLbhsxDPyavQ4kUs9zmv5HgDj1oq4dOE7b/H2oLrQ25Q17k9cciuJwRpr44W3/9LqbyL1dzqefuz/z82U/8beJaD7ud+f5IquJHyd+eDmddz/Op/fj8/L79alFttWv0++W4e+CKwkpNBS5j+ULeRD/+/J9ARzm4w2gRnBUAGZwMQAVmRUgZCQbwBqQCMkqKcAXBcjJ3KEEFFKAUvqem4BMIN2lmsD1a0DMyLpL3jk49zUiEErWWxRk4xBU4ZMGrCk2Ab7A6UMUARg7eIfsNBEVJRlt6ul6fIzwRkUVVecPDhyMghLiMKwJ1QBIRV7vICnYqEgKCAMLyGTwHEE6PveebcZLA6uebWlyNCZPKBoB0mVj8toQVN2jCmepR8ZMA2QUszVH10leef6PolexrF0SQRltanLU8mmSNQAi+Ow1b8EcvWYpuqSr7WxPRu5NuQFkAyC2GHWXmnUaADFe1js0czYO3QDlDuAN5qjTtPJQQQZxEXWIF+otx0DSJ4i1K3Yz/m6QQjHr8XA6P9v6v/N58QtviMf7LpUbv0iWI9VuWCsFpgeLFge/kMvTYEz8iHRB4pDGSESPWId469YRGQwWTwj2RThYdkZQN4Isrm+Nl/lwWJ4qt/+PbxP5tLxr+PET);lineShape=1;" parent="1" vertex="1">
          <mxGeometry x="603.9441919643941" y="1355.7145420556026" width="10.460188352581099" height="10.439955890574595" as="geometry" />
        </mxCell>
        <mxCell id="92NGAnlIAFUWFbHLshSl-91" value="" style="shape=stencil(hVbLbhsxDPyavQ4kUs9zmv5HgDj1oq4dOE7b/H2oLrQ25Q17k9cciuJwRpr44W3/9LqbyL1dzqefuz/z82U/8beJaD7ud+f5IquJHyd+eDmddz/Op/fj8/L79alFttWv0++W4e+CKwkpNBS5j+ULeRD/+/J9ARzm4w2gRnBUAGZwMQAVmRUgZCQbwBqQCMkqKcAXBcjJ3KEEFFKAUvqem4BMIN2lmsD1a0DMyLpL3jk49zUiEErWWxRk4xBU4ZMGrCk2Ab7A6UMUARg7eIfsNBEVJRlt6ul6fIzwRkUVVecPDhyMghLiMKwJ1QBIRV7vICnYqEgKCAMLyGTwHEE6PveebcZLA6uebWlyNCZPKBoB0mVj8toQVN2jCmepR8ZMA2QUszVH10leef6PolexrF0SQRltanLU8mmSNQAi+Ow1b8EcvWYpuqSr7WxPRu5NuQFkAyC2GHWXmnUaADFe1js0czYO3QDlDuAN5qjTtPJQQQZxEXWIF+otx0DSJ4i1K3Yz/m6QQjHr8XA6P9v6v/N58QtviMf7LpUbv0iWI9VuWCsFpgeLFge/kMvTYEz8iHRB4pDGSESPWId469YRGQwWTwj2RThYdkZQN4Isrm+Nl/lwWJ4qt/+PbxP5tLxr+PET);lineShape=1;" parent="1" vertex="1">
          <mxGeometry x="596.4441919643941" y="1421.9645420556026" width="10.460188352581099" height="10.439955890574595" as="geometry" />
        </mxCell>
        <mxCell id="92NGAnlIAFUWFbHLshSl-92" value="" style="shape=stencil(lVpJchw3EHwNrwjsy1mW/6EIURbDsqigKC+/d8I0moOs7mToRs4gB6g9q4C79O775w/f7u+i//789Pj7/V8PH58/36Vf7mJ8+Pr5/unhGX/dpfd36d2nx6f7354ef3z9+PL/tw9z5fzrj8c/5y/8/YLzrqcJiv6f9YHv/33w68vyLw9fb5YH1zotH2J5ciFvy6OLXi3vg5YPsTy75rflybVxvby4vP868PF6eXVxX15crdfLm/NlW15dTWp5a9vy5nK+Xt5didvy7lK7Xj7c2K0aYFahGnz9v2wHIDgvlIOvs2eA8oQQXdj1g0+GkHh+HXZAkt6Ar+vubCG7ro6UXaIjFdfVkQrbOFTXgwBUl8gO3VUlQ2O1IsBUxOD30u4YCNGiZBguUkimJdUpAAcIe8jPuBFC4wBxFxqhkETkIMozydBdVEdKK3APABxeuDdC1+/uneC/agc4AqUWZC4ldF1avwF0tUNziQDwX7VDd4FkgP8K94ZO/J5iUlnOcgUYBKhrz/N0jeS/2yE1F0TSg078HtOpL4c/B6CA0JGGzMJTJzsgI5GJeIBOyu7eObok7JCOkD8AyRV1pO78Hg85r+R/DkCIkgxlWea8DnojA+wg4gE66Xsiy4g4IQNEDHs85OGS2uHwzaN64pAiHiBi27VUcEh1pMbuXdIKqXNAXxX2AOj6ABGJGxXUdEUwAqfKgrqtAJHLevWriJ0D0jrxAYiuCbWWwsm4lhWD5wAksl2ttcl4KI25RkWIijRTjHu3uNLzORHzq2YegOyySDM1MI9sVUZcTSttHYDuhjpSZnLYw4qQc0Dhwt7T8t9zQF0F6gDAWxWgcRXt+Anh3rUbGUBKhfPBrqSl3hdHuwIMkmFICtf8OsACDC+raAvM6UfQtDtyyRpRWrqZgjKypNLNUAcApNBtpd4DUCRfgm+SHQAowjWmM3cGyF5mcJoBQHG+7hdxvgUIwyFcupFBNW89Lu+/AXRh6X50C7c7CKERX1ZLikojvqgdACAqQON2GK6h+ofejWtkmYwRX1R2R1od+3mjiKrsGaAoHOKrUMQd9P0cEF2lIwVpBxzAAoJQK3RSd0Y2pRJagpk4tw7ZvI7K5AQA1TSNscx0kypVPw1AMblV2mGYI3XZ0gwT0zN7awDFA4Quqp/23nnPhlC0cpgCAcDQUnOeCUtxV4DaGKC4NACZQi4uCnUFIIY1AXoHb0qQqiijm1wZ1uTrClBNVQzK1H0xttsIemMHIhtDZjJ7JABUb2mFhruq/niq1YRc1CEXzQ5eW5rTRpccbgyeqvUuO3Dr3gAo4moDaFYAodbzGH1Dai6LXs5NbaKB96nGzKYyANQcziZLRFDQaqJ0PGNUJfyfBjT2PpQx1WdNBmYrtVJr5p4dn8iymHiAOrJOG/GEMUWVmMIJ65Pp2xtL16WGKz5Dk43R5MComyYficQrQDOW7pJMg/VRkz8zj2KuZd2o3ACyIqLJVMUhSdwJNx7SDifse8iqeMLv9cR1dhB0ofCaeS6bFHsmIXXrpo6O1fdfNVrcNw3pfa3ycH1aTsRoyzwbHLpoAUCzwaFLSks8PJkBoXaAqUmGotvRwHM1ANRoA007zRFmYlLjmbHY+W2uFPSkdq6jQ88GazNC646g1nUXdUvwhaUBoDLam6S6Na8xwwEo63LoaiZFEYS8oLrLOQkkGfTouwbu/RBSXQ2x/CJUN3O1LLy1dKYCcHjlS6WtIfEB0FS3mGwM71LxMGe+u1rhLIobl2RmtFnmpRL5ogaWUdm4mDt4KFrNpPJgw5UhZchmYgRFK8PlytfTULSKh2xaaihaTbIzHGFPAlC0GurmyDFd9EVNDjw2LkHe4WXvEgG8vEZJnWMallGvJ1JbU7QD0GQPnqp5s1Dl1CsVDtGsJ3cp8aUfLKP4T4r8BCQnGXEp8I3CvGFTV3LeCB0kD43D7OD19a5pX9+4VpzPNfYAgu3l9W7lKwgAggggAGg2mPSLkFiYnMBZFEuMmSd3ACiuMZ/j0JHKejFxDoh8yTHvtEX2joGnAvAudcMWPU9n4CxqbBwGX7PD9oq4hs6J7PWm/hzQWK3z8YB+FEJCwzKyZy/8zgmKVhPUkI0MXl7UhLSG9QdbH/pxTjIvYbpsIEI0b230QDSYOXNokiQG06JA0W+8efK0Q5G81YywoAU1E2jr22N9kEO1ylU9eBk9x4XJQXJdVSRg+f1BD2WoZX4n1GR2SYtPHBxmXbSdBzK7dJWzjLAqzJHgZQDYLCGvTj2PAJJsCw9S8LpcPYUwbpak43vuCKMcuptxXly86mo5PaqT16XehPmi21ea4cekanrp2cW8ZICe77b8G4ch3q7nnJ7ncXpc8ZPvZt9cjj9en+h+evjy5eWF7+33/KQXH708B07v/wU=);lineShape=1;" parent="1" vertex="1">
          <mxGeometry x="254.91549628803182" y="562.4753336041531" width="31.737985576036007" height="10.343549023415399" as="geometry" />
        </mxCell>
        <mxCell id="92NGAnlIAFUWFbHLshSl-93" value="" style="shape=stencil(lVjZctswDPwav2JIghee0/Q/MhOn8dS1M056/X2hunQEyFo3b47CFbHA4tKG716fH162mxRe307Hr9ufu8e35w1/2qS0OzxvT7s3/bXh+w3fPR1P2y+n4/fD4/nvl4fp5PTr2/HH9IZfZxx36jyhUvj97wml8vfB5/P5/e4wP9+oNnO+UsngfKEUzPkYKTcAiNSrBVQKcR2QGnEygBSodQBgitkCCuW0DohC2XJIQgJIq8WlW6cyCSAdi79B/ZwQIFOzYciBMmNAsQCmAgKtgG7dmhsFwQAxgKJxAIFTgFiTSiZGbi0UrEmlDSNXAdakGikEGLhspVEzJUBapZaiBTQq4AZNl2gBLQw5Xs+HRNFKo+kTQFqV0yyHxiOlrgJyHkK4ACqMdBbqzqRGAgBlkQ9d1QoA6vVsvdQTCZB306rhbtDCA0i3TuJu0DoCAPo+seLrQhUARMNk3apPEqhLkqmKByAtSfUJJDzEch3QFzfkkVLXAeK1JIUiIi1DCBdAHaVtDeAqn2iHQSZ1Co60skJuVTHbhjLdCWqrOrEuAIJM0qLSFwBwQ1eLowcg0r0OIcxIC6itPQ8DZm4VEAcFRMehUkMmZV/5VBrIrZpAwZmEa6uSrgt5MyLdfV3SBIJaisOAGYCRWtkPJxMAiy9lD0DFWOPq48BY3irm7t3awA0xhNEDZ5ETfIUvGzqd4Bx19V6fMBg2Jq0tMiiBrqgcs3hAB9rQUIsNxMwPq4jyIYS2zdoXjgVGaet3w/dUj0Gbq2mR1nFo/nrnvda1GoiE9vZsTdK+iBybIzUHKHBenzYC69eOs/R92J5NDw0NZdnX46nbo+G4jaY2m4AKGizjoPifM1b1tW8KPaLgK5mOlR0U1zBSfja3FsB4UQJuDMbB239j8taZ1orixmgf/JZ4Y3cIY5KaLyeghAU/Zej2k0G8gq94jEeA6P3PFdrDi/dH+H6d9Oz7deutaFWKvo1MkkIEih96Yh/z6+rm4woqw5Ap5+baDqSgnN1eX+CXhnSZGy+U4QaQ+ii1FwJUQcroeTcLxzFYrpUtxzdQASnPwa8wAbbAaTEUdz6g87rvV38epDxnvyEFvHdWX0QDMeLbfB8IsJVx98t8JAbx0vNe0bAJ8GIjTDheH/1ydvO8/nj/TPe02+/PX/nm//ef9fTR+ZMg3/8B);lineShape=1;" parent="1" vertex="1">
          <mxGeometry x="291.958035752202" y="566.7874521721687" width="3.73819083257491" height="7.709501116049796" as="geometry" />
        </mxCell>
        <mxCell id="92NGAnlIAFUWFbHLshSl-94" value="" style="shape=stencil(rVfZbhsxDPyafSUkURef0/Q/AsSpjbpx4LjX35fbhWBL3J06QN/2GEoUjxlq4of3/dPbbgru/XI+fd39PDxf9hN/mkI4vO5358NFnyZ+nPjh5XTefTmfvr8+L+9vTzNyfvp2+jGv8Guxi+TTbBTc7+VDJal/P3xe4MfD6w3ce+La4YXYA3ymWIf1XdrGh9B+N3yh+W0TX9v2V7xz23hO5Ed8kG189CRuwCdw3lgpxgEfyzY+RcphwHsQn+zIlw6f24breKEiHT5SAv6UQtzjA0UQn8rEvT+OEm/jJZL4AY/yJZlSHPzJoB6ktuUa3jsKaAMhz/0GmnIQUTWofcY4UwZH9s6NPqVABRSRbpH7JsgVVp2euvY71NDysm5QxrBKoIpOncn1eZv3xInm3BsIPrTGpK8kSY1r1g08xd6lmolRqt1oULh9WS9uTXXfDEnLC7hkDa78cadL2s+oP+2hPVMGDTqHtSfgiBvI5M1BgrSF4RtD3Vl5Snj5I6XtC2Xcn0PzsKcEcrDSn7FAUbMUkLnR5p0kU7SQUJQMjc2lhVwyPCkFu2SI+CYO/8nCioMGAqmhVR/BcmvlTUkjAlqy+ilMCdSfFeiZKYFC2wlADZAk2hFDsObaGUawntghSQ+NEmensCuN3DnmKVEJiNLKHOkgj5k5VTdwgMfYzLUC9SpQsGIC1jf+V0cFhNS1DN1oDxIrZd2+irIObiCgdsaIcIyxnJfgYG780SqMEF+MsKH8mnh6gbpj8jXrIKAWUw/eQZ364L3on3B9uF7BXg7H43KDu/0/Xtn003Ld48c/);lineShape=1;" parent="1" vertex="1">
          <mxGeometry x="298.12404159018274" y="566.9194030862377" width="4.723222483290884" height="0.4811938275245484" as="geometry" />
        </mxCell>
        <mxCell id="92NGAnlIAFUWFbHLshSl-95" value="" style="shape=stencil(lVnZUhtBDPwav6rm0FzPhPwHVUBwhQAF5Pr79MY1xqNZ95o3s0g7I6nVOnYXr94ebl7udsG9vb8+f7/7vb99f9jFL7sQ9k8Pd6/7d/zaxetdvLp/fr379vr88+n28PfLzSK5/Prx/Gt5w5+DXhEfFqXg/h4eRIn6/8HXg/jj/mkQd34Q905CYPLm9V6lOSqfB/ngJHJ5HeWzBE/l42hu6G+47P2xSC1UvgzyCn9S/4TRP1pF6X1CG+RTlBCZvI7yGfGi/sx1lFfJjclX8/7WI74qrxKNfBZN5+Wb9X8O0oi9HuEfDUhFSj2vAHyVERFJpRILQpI4pkDyVCE6ccnGuDEFXGC8ksIq4qTYpJgTVByLgoo3CoHCCDfOY9wUfiO4ACyd4ZXWHb2ugMxxVoHZkP3EXLgkSc2MzMpWQRlXqBS1CoGcUJ3NTih4EriaJCerkFg6uM7Op25lCmoJVeE3ErhW1rBETvAO+B4jB7RE4qbWpgxSSvItizOs5Hos1xWipNFq0JhjVgPNI29nMBuhjVokjTlavDQWau1uPypkim+AybAAnjBqLUXiGDmc6Ti+DTZglbLi5jpvdQX4jcEVXm/jlVqiGZSaTepWe8VeV1DL90BXIl5Krl/go4M5Avgcuxp8406Ujou0MdSt0CYpTpGDmxqJXJzaEuQ5K6PLCeZKoV9yXaGKG7HRvJQNL5lAOKqAAhKzVWA5CuIyzFQbTTm0Xt7bEwJJaj3S0InRjvCMJpvUcCtrr6Bg6uhCVexKyRoNaDA6hoJ1a6ZJDaMNV7ZjE3jOrWrAV/sr1hXCFAde2pfeYlbg4LPwxpVYAlVbqRej2Qmls8qJW1mRi9MkgxRtpLOHQjAKkQYOCmUCn2c21MmtjpNA6yx0mkDEBqSoYeMlRZlC6C3byQl0foi9/T+lGQa+Tys0W3cXLxEFlCCdqyKrWdWiFV5iQ2JGMz16qeYeynOtbjInYEZhrYCXPNpQNuZQtVhanhDWQHdSR3gX3jug22kjGWNUjKwli1JGGzArRgLvWu2wnlJ3w3qX6CWaWdF1R5/rEuuYD8t4T6BRQ0/5o0LhPVzp5eNkVmTQQKRN4KDAmC+naVbMlO4B7+CmK7FZ0U0jByLDKlC2M7s2GumFZsYTMLOzCgSqtJFGDjL2jpYqFywR9g5oU0cvwW+ZBC4kW0UxATO3BiSQmWm05+D6JFds4DAEFWKDj3YeKMcJeB3etmKVKJVVLNuaLCRD3j9NohvbKNd3hRduuzB1mvfzbZrrmXXhtg7yZljnLDz1SRvbRjctNPg2c0rMjW3p9P6Nbey0e9vY9k5T+sY22XXrLtxWHzuDy5bheP3onkDrvre7Z8+zy4LfdwJYT3c7EqI0Mf7pO8sPcbYWmjKRz8xq6ZOLJ9vf8MtMMxE3NfecuMyR2YKAhwn12WCYguDT31s2xPHj49PO/f7x8fBl6PT/9lMQHh0+I8Xrfw==);lineShape=1;" parent="1" vertex="1">
          <mxGeometry x="298.4014596661152" y="566.9689678515622" width="6.048847718923352" height="5.726345282998081" as="geometry" />
        </mxCell>
        <mxCell id="92NGAnlIAFUWFbHLshSl-96" value="" style="shape=stencil(lVnLchw3DPyavaJI8AHy7Dj/4SrL0VYUySXLSfz37skWx0NQ01Juq9X0Es9Gg3NJH77df/p6d9Hw7eX56c+7f66fX+4v6beL6vXx/u75+oJPl/Txkj58eXq+++P56fvj59vfXz9tT26f/nr6e/uFf2+4EqS0DaXhx+0bzZL0v29+vwEero8HQK6SzQNqJoAoWmZAEYvngFRE3QkmqZwDtA+Ld0CX3AkgS54BKUojJmmQ0GcAnCYnxDYs3gFdohFAHUEcgJylVAKAAWkCFASaJC4mifMJpUohYY1R+ux0jZJIpmMYQdwBJsqipMPFAbAkFrjTs0nWaC0hrHkGtCSZ+IBM5zmsrUonidMqIcwAk058SGmkaQc03nHRlzcALHG5+WoFoBKTCkwKywmk+ApOWEzKBFBV2nJCZAB7JQ+V5MF0uHjItJGwGvLqTggSEwE0n2krEkjxWZcwk0Bt1CQY0OcGKl16IwCVNLN3yaNpXwck7zQGQGQmFSlzpnMZE+N1gHnWSEZbtPXR8gcyZiSAQnCsgfnQmNMq6mZcoeyN0ojuhDRa6nUAxsccVvCIkWqt8GHONCZGY4AwgrgDbFTX6ySAeTMDOs1bbp5ljI7ElWSKNE5KeY4pSpGxHob6/PvIIrEHdWxzkgP9/aKS/fOMkNBYKbrnA2ELDFcXHygt9rz5eR6lMn9BJT6eTGCASdKsqgq3HxLKsd2gvzN7XAvgC1Jv8NdmOQL5wEYIAqouQFEKaUpkzFUc9EYksx8l4VOgEphJC1/DpEQAuXs5AqcjiSq6xtFvG3Px7Pk4Z20nmrPnndaG6mRivvvBryONZxFyvx+pIoSGbb5rmPQvyQ+PwKt0GWeB22MSi7M/sufbUJe/4vNGFzuZw5/H3HDisVJ7MJj6bD/ajj1vgxSOXcn0gXqaw56hTB9UMRfRQgF97/LD5Guk5nr1zLUljRRF7373QlTp3hKCl4JJqcjp6GMHMCoF4URa9sFOOr8nz6foDUYViKtbgiHSGVf04GvDsPARtmuLBEF5Kelm7ARhZotN4DJlB83h6NEoAbdFRnXlor94iu+F3i1sMZnLtRuV5DWPZW4HdKq81uWr8y0BhRD7cgLRCpu2awuAjZ2d1d95ApZg58Ohp87ubNxw3o4gXsd9Dd8BbZDh2X2Ha4iNSUiPmpS5WlFLVFJ5DkCxMsmWpLrijrTfole02GNYMywkttUuIdYwBPhOGJlfIHl/N43IUjwE+4HB2NaV/azNRuMDRe6eV75oer4DZzN/9y48DIXILqd0aK197jR6oRD3fB7uXo3djK63uzqK9uw2y29dYSigs0ZOy17KyCh1T3fb1SfjliVtEAyMjEpYNBtf9yE6o3qAMd2v/mIHPgTGwDqo6p1Oo/LdHQfCmth6lxeTIO3f2GddWPubgKU0EtPa2d8qaqQXnXDaXRJuOz9zehls2z0Nz4OjeOWXhCiN4vR55jvk/32f8g4APvx6ffPl+vBwe/tz/L9/3YOvbq+K0sef);lineShape=1;" parent="1" vertex="1">
          <mxGeometry x="307.0024975573658" y="565.8479807040459" width="5.316045632687165" height="4.958719799968676" as="geometry" />
        </mxCell>
        <mxCell id="92NGAnlIAFUWFbHLshSl-97" value="" style="shape=stencil(lVbZchpBDPyafVXNSHM+O85/uMo4UCHgwjjH30cbPASJpUne1utuVurWNcnD2/rpdTVxeDse9l9XPzbPx/UknybmzW69OmyO+jTJ4yQPL/vD6sth/757Pv39+jQj56dv++/zL/w88XqnyjOLw6+PNxTinxefT/jtZneJz1STwcdOPQACE4shcKOcbhNaopYNIQlV8IVaKdgv5ELcbxNKo14MoRQqGRACSTWEql/g24QcKdscWqYIQmKmEKwNGiTwIVZKjtCpgS9EHqr/I6FSl6uI5DY+UbAp90oR2BZJXOElyiCeMOryjI9UKsKzNbk1KiB+9vGrZQ04oIY2ixdKIP5OYvVvkTqooaiCNk/4SGmZcK6YC0JuIGMhsRY3Hr23TCjUnKYJ1oQmHZ2olQoQVQndVVG4R4i2NbtgQhnj6kzA02JWyfqgjSBA1tkHR+hUkHHJqxRDGPPgRi1dN78A4zKx6/1KFeXsS0/HPqpt7TVnAt/pTTftmioEdkIcDp3xhSowOflZoXWKxm+lZuPXRkB61qs+wHgJlGxAlSkBgURnlc24JKqAkLqXNCcoadataedv0vkLaq5kX3TC4yeWRWKqdrxE7Jou1WxV0mMDNJou/mRtUN+Ry6qRbQOtUpCxjs/obh3Y+LoAisWHkdAyvviqCCPAZXwnbh6PT69QHV7Qhko+/jh23DJe14E77caOW8Y376/AKaRDLdsm0BIEXXYxNc9tBs+0/z5+7+L14e+l/bLZbk+H+uX//WWur05XvTz+Bg==);lineShape=1;" parent="1" vertex="1">
          <mxGeometry x="314.1930503908434" y="570.9495905635201" width="1.7783156618272187" height="2.8458305170063976" as="geometry" />
        </mxCell>
        <mxCell id="92NGAnlIAFUWFbHLshSl-98" value="" style="shape=stencil(lVjLctswDPwaXTEkQRLkOU3/IzNxak/dOOM4ffx9oWpYm6C0ntxkGUsSi8WDmvjhff/0tpuCe7+cT993vw7Pl/3EX6YQDq/73flw0aeJHyd+eDmdd9/Op4/X5+X329NsOT/9OP2cV/i94BJxnkHB/VleMAX59+LrYn48vN6YB085dPaBatq2Z0/BG/sI1o+OxNq7sG2fHPnU2esBPbAvVLKx9+A8OVOSzl4PCM4jhcTaB8BPyeS9sXdu275qvKy/6Pze/V+vATJxARtUCqXfgCmiEwnF2AMKOXCkGq0LqjkBHFU3aFSjXgGpiVLtAUIcAUDX63eIiRyDMMemsgZIAfqQK3kTBvUKCDUz5V5IWe4pW7gD6CEZsJQiSc/SlYZ1gLe0lkgVJEOM5PtioWLxQHxRne59qAUDAuVefKpfFLjoWzreADIqYPq3s4AK5K1SKzIAAK2cKQw+oEhzpFIsS/BITHWg1QFpKCD2kdbA3QGYfKiZHMg49SEYljTjQKQ5UTQ7qLxBXVJaqwkct9q8DihDpJkSCJz2Kg4WkAFLKj4bOM0QwJLmgx+cLqh98uB0ogJYmlO0r3wauIISiKmYBJLWUrcAzrBUYByUJRlSNKIi4FoLvM04JI0ytCyH266KSbLdQlBSJwrVAgJOal8tTREB2E4mcycGkZsBRhsZNohPA+Zq3ANKoIQaRLYsibRStTXumR0ktOq5DtBRoC99OUEx5WEHbaxo2ND1DEt6yAQAonLtj6S8IS3JMDCpWFBHmUnsaQ3Sxur1+ceTMyOZJwZxmBt/74PXOIBIz3NuX/qk1ZF1F6qtGtLmofUoqPaTtUe6qPYeI7BkaExN2bszmHiKwdhHlGu+RfRqX0DE9FpkZuLaLkLr/Fj6vd5LUJm3s6HaI391YLDHqYB+FYs1R3XCW/MCq4SzOV9g6XV2NJcWuw3z4UKVADPOTncJXhScJV4zDazu7fwb4a0i2DsCt+02omrqCMMO88lvCXfN9eH62eLlcDwuXz1u/7efOfTV8omEH/8C);lineShape=1;" parent="1" vertex="1">
          <mxGeometry x="319.24351856778935" y="565.4989656642443" width="3.4039751044803417" height="5.644843858168606" as="geometry" />
        </mxCell>
        <mxCell id="92NGAnlIAFUWFbHLshSl-99" value="" style="shape=stencil(7VjLcloxDP0athr5KXudpv+RmZDClEKGkD7+vrplDFjmHsiy0+7IjWTrcSQdaxEe3lZPr8uF57fDfvd1+WP9fFgtwqeF9+vtarlfH/TXIjwuwsPLbr/8st+9b5+Pf78+TZLTr2+779MJP496gWqYlDz/On5whUT+fPl8lN+stxfylYKz8jnPyzuhKL2CkOd5BR+ppF4hUfHzCoEpxl4hUkhAIVEyJvn25apCdMS+V2BK4IaYbZQq+Tovnxy53udCHricNCK9B0IMzs/cctTkM5UA5IVCMeejiEqyOcMgKpogNvEpDoBOU1yMfALxqYqhauyJ6PxMzpvzBZ2vEO7tcQEiqBbrsNMbQAZqJdfXpaaggBSogvQ3BK08VJjMxL1GFKoARVc0UqESP2JUrg1Zd7othSpSGAJbhBxoL2PqaiAP4nQFG3oDAtMAPjUyIjQxBaOg8AY3aPmIUciwv2h9uiFKyCRROPd5KKF5dV3BkzMdSeMGwiqu/fsEjUQMKkK0h/U9VbtmBjWnCqnPdDjNojmTuPfhPB3nnLZzwcOa07CGvk9GiD2JVHufmRzKQrZp06CB6tHi4t6ehEM6Tv9IGTSAwhYWOnkQXSinwXqKEMOkqUI0sIgNKHM+iAGeYIVih6d+QQ1AtMX0hKQotJGCRt2MT2nYncMFDzckBCQlOH3H0DDcKM/Ym6SdmxEFYJLepJRbp50tzx6r0UNiqAqGZEwsCdezSZwyyYoUvKVVGUdVaYwhkjhGqc3Xc3ky8viD8goCw4Rx/5poVT8WlOb9p1V/Ka1CcfpHaZV9NEgbX/e+SgRTkuHZoyYxyMP4rtLMRJCH8eF2gZY7n4YTWgCYxrenOoHm4ZXHrU4rcMP4fL5BV8cHesU8aVwBVA/jOi4ZqoMjelxjlEoZdRobpFIaFbrugt3DqDwDl70dDVqgaPb4tiA4yUe4MnDW/on7gfO5EceTfIANg8n3/ir9Fyhve6Q0SnOffKyNld1nj6LWgfwO/oYAJ88QTx08EKE2X/oFlfGAh2kSgvMVb2Zphlc2t/eE+uO8ZHxZbzbHHeXl/+1SUj8dF5rh8Tc=);lineShape=1;" parent="1" vertex="1">
          <mxGeometry x="324.9894331733635" y="565.2329532059719" width="5.351246253178397" height="0.6122614026867086" as="geometry" />
        </mxCell>
        <mxCell id="92NGAnlIAFUWFbHLshSl-100" value="" style="shape=stencil(rVnJbttADP0aX4nh7Dyn6X8EiNMYTePASbe/L1V3FA1HfnKA3mxrnobL4+pduHl9vHvZ77x7fTsdv+5/Hu7fHnfh0877w/Pj/nR400+7cLsLNw/H0/7L6fj9+f78/eVuOjl9+nb8Mb3h1xnnC4U6obz7ff4lUCp/f/h8Pv90eO7PR9+dr+QiPJ9dd54jBQ8BpfQAaa+4BJBeIh/JI5FUYukBlRISqZLvAcFTxYBojKpmDgCQSUIHiB6aNTiKvZWCEAMrhUzsLSADkVQA398QHWRGFGvWyCTpMiBl8j01YiDJlwHZU+YekMkBHbJa3eigvgc6FLV66gDJEQORSqbc35B8I8sqoLJVOkXKFQBSI/MMyFQBNao0m8yASgKUltQEaAA1dAUiSbVszZkCEImdI9drXRwJQIiQ711dZgKvA5RMvUzVQ8+Jp9SLVNWXyK7FBrU4SFd19b/HMyDCTFYGHaQQAzJlodqH3Ltr1gGhJboZIFTADco17nVY+HId4a2r9Qpkpqh2TRZQUaLxVOKgBOCrJl8ZbshA6xAanZcAlL8r1UHpBETSEmXJpABgJS7WEYLLIiv7ZLASXwYMIaoRIvC8JStTAunetZyyCB9UE7ndPsentFZl3WktVObzs1PWaURpOI/iP7UkujiPUpg6rFr5M7DP0JWofQqQX6X11v6CCkl723xeWQ7lCeb9uFAVSoYPiSrKRRR7/2oKzyACUqvcy+QI+Bna26487xsbl/KANDQU8klfwAc36Buhf50t45O/gDyu9X9LPoAk5wb+OJgf2Pp34jPw15ClN+Il2gZ1Mx7TcB6VsmxT9JRPUC/Y2LvMV8A+2vOLtX8C/Fdpjf19q+b/5fxKAeDWVF1bYhiPamMRUwCixOyhJQCNOWMhZther5R6bnXqYjMxlDFGAG1XBgAaQhLbbnnqG4FZkwyZwjXfrzNbR4RsAR41mporeitpLEQEiDYYtBtGxaxo/26qX4I31NCahyv7dxXA5Mei7EL1TGwBV60imhDYjptqt4QyQLUjsw6gKOVVtouFHMmhGlsGAN4TlGBjOjs8MlertE6PcAYJtk/TmSGieMiUzEAb4NCiI3gYZmwYosGyVV+BWkHNGqY3igIXPMHb4hNnwl9a8Iw3OGBWLZ8mRGOF7RTPAblYjjAQibONuMhUQQDxXL+v3GqxNDdduTdTgOnBNjZzCjBD/Mbuj8VaaWO7qI9rT++N/aUCTNndWJAOfd7GAlZzd+8FD9u2qe80GpOgdaqzWwuGNNLHpo90LYNcIrapbg52JWoOk1Tx/mHqI9NHzutc8SF5ku0jN/TNrchcac882h/6q9hKu8GHjy/8N87rh/d/Fx4OT0/nPyeWz+2/EfrT+Z+McPsH);lineShape=1;" parent="1" vertex="1">
          <mxGeometry x="324.62758238350966" y="565.3487920074849" width="5.788668765009788" height="5.919934067482245" as="geometry" />
        </mxCell>
        <mxCell id="92NGAnlIAFUWFbHLshSl-101" value="" style="shape=stencil(lVjbUlsxDPyavGpky9dnSv+DGULJlBImpLe/r05ThyM5WcpbCFIsS6vVyhu5eX28e9luIr8eD/uv25+7++PjRj5tYtw9P24Pu6N+2sjtRm4e9oftl8P++/P96e+Xu8Vy+fRt/2P5hV8nv5ypyeIV+ffpm0Cp/P3i88n+afe8tu8UmrFPlOS6fUkk3dg3CgzsO4n9/aABhesONVEI1iFRi8ChUmfrUKmCK7RA0YYUmVoGDolytg5CDVy6aQA2pFgoAYfOvmqxUwQh9URssySBOqhzL1SrdUjUQR16o2IvLZpoFFKn6pAUKIA6BGZim6aUqKCYOnV3hEaZoANH45Bl1PKyQyUp1qFRQyFlYpumIiPTlx0iRXtCaZQAvlsfAQyHqj8BQmqFui11zVSRg1Cyaa2atwZarlFOlgQiBYC+Kp5lGm7qUinZO2hPBXCHwoPmzg6KR0R8mYK9Qw9UATRSHRGfHRIMKWlTW6pUsBRwaYkDCGeHSgw6aOFqe2ntWkY8Q2IPWPXg5bROBygaAbqVFyd7Afaa8u4vkIG9Vjn7DGVAABPDKA8KQDb7TtCSRcRhnrcVE6g3hbqzFzgNi280pY8OINT9dFZ7NKmC9m33ATFoGx3GbiyoQ0EOegX2KcrIofppu7QNqLE6FHeHAjlbQ+qWURVFHVVZQTDB9F9vX0trdw6dMnJgitU7oHleh55Y2yP2otKmgEAjxOn3G2x8HjBbpxQAj/3YfBMoV+yjo8YMpUKYKqaoAyWWMb/WsAag09OnRmakIYeq/s/G/Kh9PPPI2YHh0Bf2SmcRGgCiKv+clmrK1YCLUvTD4E2ZXHZQzWtBtKgEVIQymmqtQwCqy5QlVToJnKDrS7Ah1QIHmmoztoVT7VORlkp+hFSGSNV9x3F80dYBd9AruhNKpIKwF7zSyRVOHRWQs8xmEFI7z4y1kEftI4Ot1qsCQOuiaS2h6jYCT4ieYaRhTasE6lawBLWIIqdMO1tD0JALWyFathU57tIqIJCAVJldrL5YiBDAW9d/t1soMwtqoDA4YrWdC8CSQs0xq0qOgEhAI7ajRIfpe0LeYqmMSl62T55lBNZZ7V1AEY5ytWdvL9he3AsJ3HTUvrsSQI2apickhvyi+XQim3H8jSQ7e7hHTQsw3llyIPHxoCbIkWp09ig/Oc33RXMwT08EDKXah5/w3rXXD2/vhQ+7p6fTc+P6//59Ub86vU3K7R8=);lineShape=1;" parent="1" vertex="1">
          <mxGeometry x="331.6226131002147" y="563.4269716743958" width="3.460299132532673" height="8.519197963200277" as="geometry" />
        </mxCell>
        <mxCell id="92NGAnlIAFUWFbHLshSl-102" value="" style="shape=stencil(lVbLUsMwDPyaXDWWbPlxhvIfzNDSDKVl2vL6e2QySSq3EcPNcbKxV7sru/N3p+3j27ojdzofDy/rz/7pvO38fUfU77frY3+WUedXnb/bHI7r5+Phff80PL891i/r6PXwUf/wNeByASwVRe57mPERAv3OPAyAXb+/AJQIFBQgyIw3AAVSVgBOkJIJCKwAsUAOBoCBNIeMgMYKWTZAClAccF4GpASsSZcEriwDIkPWK6Bz4Nwygn1bJqmDM4QIBLEBBCBeBngPsSlTBDRYk5RJs04M0agrMYSklfOQ0VwBnfYGQrY4ULtCQHCGN+pr1P4mYEsHHL02AuomjRVmihOAgQ3ScxEvVkiGmapMTUbFLFbkJiNMVaLR8UuRc9qubAt34eZJajaVq4HRdq2higZAIqnLVGNrsK6hjzoQDN6QurYVrVxtPcaW+CoQc3O77b4r5YrdLKX5el2luUEvAsp/ABTBaW9kEc4gjbGtUnaAltJA2hlJQmvI4Ns+Jolyxv/FF5oASyc0CFw5VXqC2ZTAaRt5NPlGiDo7hKbt0I/lmM4GGk+L2xuiNp1iIoOA7Lfo5NhN9fok+fOoYmy+T0oAGcwXjk2/2w33lcv37QVFpobLjV/9AA==);lineShape=1;" parent="1" vertex="1">
          <mxGeometry x="167.5512635264281" y="1131.049520184796" width="3.2230755116520413" height="3.2248481794399595" as="geometry" />
        </mxCell>
        <mxCell id="92NGAnlIAFUWFbHLshSl-103" value="google.com. (0.7, 0.2)" style="text;html=1;strokeColor=none;fillColor=none;align=center;verticalAlign=middle;whiteSpace=wrap;rounded=0;" parent="1" vertex="1">
          <mxGeometry x="180.62" y="1106.56" width="60" height="30" as="geometry" />
        </mxCell>
        <mxCell id="92NGAnlIAFUWFbHLshSl-105" value="" style="shape=stencil(lVbLUsMwDPyaXDWWbPlxhvIfzNDSDKVl2vL6e2QySSq3EcPNcbKxV7sru/N3p+3j27ojdzofDy/rz/7pvO38fUfU77frY3+WUedXnb/bHI7r5+Phff80PL891i/r6PXwUf/wNeByASwVRe57mPERAv3OPAyAXb+/AJQIFBQgyIw3AAVSVgBOkJIJCKwAsUAOBoCBNIeMgMYKWTZAClAccF4GpASsSZcEriwDIkPWK6Bz4Nwygn1bJqmDM4QIBLEBBCBeBngPsSlTBDRYk5RJs04M0agrMYSklfOQ0VwBnfYGQrY4ULtCQHCGN+pr1P4mYEsHHL02AuomjRVmihOAgQ3ScxEvVkiGmapMTUbFLFbkJiNMVaLR8UuRc9qubAt34eZJajaVq4HRdq2higZAIqnLVGNrsK6hjzoQDN6QurYVrVxtPcaW+CoQc3O77b4r5YrdLKX5el2luUEvAsp/ABTBaW9kEc4gjbGtUnaAltJA2hlJQmvI4Ns+Jolyxv/FF5oASyc0CFw5VXqC2ZTAaRt5NPlGiDo7hKbt0I/lmM4GGk+L2xuiNp1iIoOA7Lfo5NhN9fok+fOoYmy+T0oAGcwXjk2/2w33lcv37QVFpobLjV/9AA==);lineShape=1;" parent="1" vertex="1">
          <mxGeometry x="64.5512635264281" y="1072.549520184796" width="3.2230755116520413" height="3.2248481794399595" as="geometry" />
        </mxCell>
        <mxCell id="92NGAnlIAFUWFbHLshSl-106" value="" style="shape=stencil(lVbLUsMwDPyaXDWWbPlxhvIfzNDSDKVl2vL6e2QySSq3EcPNcbKxV7sru/N3p+3j27ojdzofDy/rz/7pvO38fUfU77frY3+WUedXnb/bHI7r5+Phff80PL891i/r6PXwUf/wNeByASwVRe57mPERAv3OPAyAXb+/AJQIFBQgyIw3AAVSVgBOkJIJCKwAsUAOBoCBNIeMgMYKWTZAClAccF4GpASsSZcEriwDIkPWK6Bz4Nwygn1bJqmDM4QIBLEBBCBeBngPsSlTBDRYk5RJs04M0agrMYSklfOQ0VwBnfYGQrY4ULtCQHCGN+pr1P4mYEsHHL02AuomjRVmihOAgQ3ScxEvVkiGmapMTUbFLFbkJiNMVaLR8UuRc9qubAt34eZJajaVq4HRdq2higZAIqnLVGNrsK6hjzoQDN6QurYVrVxtPcaW+CoQc3O77b4r5YrdLKX5el2luUEvAsp/ABTBaW9kEc4gjbGtUnaAltJA2hlJQmvI4Ns+Jolyxv/FF5oASyc0CFw5VXqC2ZTAaRt5NPlGiDo7hKbt0I/lmM4GGk+L2xuiNp1iIoOA7Lfo5NhN9fok+fOoYmy+T0oAGcwXjk2/2w33lcv37QVFpobLjV/9AA==);lineShape=1;" parent="1" vertex="1">
          <mxGeometry x="72.5512635264281" y="1116.549520184796" width="3.2230755116520413" height="3.2248481794399595" as="geometry" />
        </mxCell>
        <mxCell id="92NGAnlIAFUWFbHLshSl-107" value="" style="shape=stencil(lVbLUsMwDPyaXDWWbPlxhvIfzNDSDKVl2vL6e2QySSq3EcPNcbKxV7sru/N3p+3j27ojdzofDy/rz/7pvO38fUfU77frY3+WUedXnb/bHI7r5+Phff80PL891i/r6PXwUf/wNeByASwVRe57mPERAv3OPAyAXb+/AJQIFBQgyIw3AAVSVgBOkJIJCKwAsUAOBoCBNIeMgMYKWTZAClAccF4GpASsSZcEriwDIkPWK6Bz4Nwygn1bJqmDM4QIBLEBBCBeBngPsSlTBDRYk5RJs04M0agrMYSklfOQ0VwBnfYGQrY4ULtCQHCGN+pr1P4mYEsHHL02AuomjRVmihOAgQ3ScxEvVkiGmapMTUbFLFbkJiNMVaLR8UuRc9qubAt34eZJajaVq4HRdq2higZAIqnLVGNrsK6hjzoQDN6QurYVrVxtPcaW+CoQc3O77b4r5YrdLKX5el2luUEvAsp/ABTBaW9kEc4gjbGtUnaAltJA2hlJQmvI4Ns+Jolyxv/FF5oASyc0CFw5VXqC2ZTAaRt5NPlGiDo7hKbt0I/lmM4GGk+L2xuiNp1iIoOA7Lfo5NhN9fok+fOoYmy+T0oAGcwXjk2/2w33lcv37QVFpobLjV/9AA==);lineShape=1;" parent="1" vertex="1">
          <mxGeometry x="75.5512635264281" y="1184.549520184796" width="3.2230755116520413" height="3.2248481794399595" as="geometry" />
        </mxCell>
        <mxCell id="92NGAnlIAFUWFbHLshSl-108" value="" style="shape=stencil(lVbLUsMwDPyaXDWWbPlxhvIfzNDSDKVl2vL6e2QySSq3EcPNcbKxV7sru/N3p+3j27ojdzofDy/rz/7pvO38fUfU77frY3+WUedXnb/bHI7r5+Phff80PL891i/r6PXwUf/wNeByASwVRe57mPERAv3OPAyAXb+/AJQIFBQgyIw3AAVSVgBOkJIJCKwAsUAOBoCBNIeMgMYKWTZAClAccF4GpASsSZcEriwDIkPWK6Bz4Nwygn1bJqmDM4QIBLEBBCBeBngPsSlTBDRYk5RJs04M0agrMYSklfOQ0VwBnfYGQrY4ULtCQHCGN+pr1P4mYEsHHL02AuomjRVmihOAgQ3ScxEvVkiGmapMTUbFLFbkJiNMVaLR8UuRc9qubAt34eZJajaVq4HRdq2higZAIqnLVGNrsK6hjzoQDN6QurYVrVxtPcaW+CoQc3O77b4r5YrdLKX5el2luUEvAsp/ABTBaW9kEc4gjbGtUnaAltJA2hlJQmvI4Ns+Jolyxv/FF5oASyc0CFw5VXqC2ZTAaRt5NPlGiDo7hKbt0I/lmM4GGk+L2xuiNp1iIoOA7Lfo5NhN9fok+fOoYmy+T0oAGcwXjk2/2w33lcv37QVFpobLjV/9AA==);lineShape=1;" parent="1" vertex="1">
          <mxGeometry x="138.5512635264281" y="1207.549520184796" width="3.2230755116520413" height="3.2248481794399595" as="geometry" />
        </mxCell>
        <mxCell id="92NGAnlIAFUWFbHLshSl-109" value="" style="shape=stencil(lVbLUsMwDPyaXDWWbPlxhvIfzNDSDKVl2vL6e2QySSq3EcPNcbKxV7sru/N3p+3j27ojdzofDy/rz/7pvO38fUfU77frY3+WUedXnb/bHI7r5+Phff80PL891i/r6PXwUf/wNeByASwVRe57mPERAv3OPAyAXb+/AJQIFBQgyIw3AAVSVgBOkJIJCKwAsUAOBoCBNIeMgMYKWTZAClAccF4GpASsSZcEriwDIkPWK6Bz4Nwygn1bJqmDM4QIBLEBBCBeBngPsSlTBDRYk5RJs04M0agrMYSklfOQ0VwBnfYGQrY4ULtCQHCGN+pr1P4mYEsHHL02AuomjRVmihOAgQ3ScxEvVkiGmapMTUbFLFbkJiNMVaLR8UuRc9qubAt34eZJajaVq4HRdq2higZAIqnLVGNrsK6hjzoQDN6QurYVrVxtPcaW+CoQc3O77b4r5YrdLKX5el2luUEvAsp/ABTBaW9kEc4gjbGtUnaAltJA2hlJQmvI4Ns+Jolyxv/FF5oASyc0CFw5VXqC2ZTAaRt5NPlGiDo7hKbt0I/lmM4GGk+L2xuiNp1iIoOA7Lfo5NhN9fok+fOoYmy+T0oAGcwXjk2/2w33lcv37QVFpobLjV/9AA==);lineShape=1;" parent="1" vertex="1">
          <mxGeometry x="277.5512635264281" y="1088.5495201847962" width="3.2230755116520413" height="3.224848179439732" as="geometry" />
        </mxCell>
        <mxCell id="92NGAnlIAFUWFbHLshSl-110" value="" style="shape=stencil(lVbLUsMwDPyaXDWWbPlxhvIfzNDSDKVl2vL6e2QySSq3EcPNcbKxV7sru/N3p+3j27ojdzofDy/rz/7pvO38fUfU77frY3+WUedXnb/bHI7r5+Phff80PL891i/r6PXwUf/wNeByASwVRe57mPERAv3OPAyAXb+/AJQIFBQgyIw3AAVSVgBOkJIJCKwAsUAOBoCBNIeMgMYKWTZAClAccF4GpASsSZcEriwDIkPWK6Bz4Nwygn1bJqmDM4QIBLEBBCBeBngPsSlTBDRYk5RJs04M0agrMYSklfOQ0VwBnfYGQrY4ULtCQHCGN+pr1P4mYEsHHL02AuomjRVmihOAgQ3ScxEvVkiGmapMTUbFLFbkJiNMVaLR8UuRc9qubAt34eZJajaVq4HRdq2higZAIqnLVGNrsK6hjzoQDN6QurYVrVxtPcaW+CoQc3O77b4r5YrdLKX5el2luUEvAsp/ABTBaW9kEc4gjbGtUnaAltJA2hlJQmvI4Ns+Jolyxv/FF5oASyc0CFw5VXqC2ZTAaRt5NPlGiDo7hKbt0I/lmM4GGk+L2xuiNp1iIoOA7Lfo5NhN9fok+fOoYmy+T0oAGcwXjk2/2w33lcv37QVFpobLjV/9AA==);lineShape=1;" parent="1" vertex="1">
          <mxGeometry x="157.5512635264281" y="1093.549520184796" width="3.2230755116520413" height="3.2248481794399595" as="geometry" />
        </mxCell>
        <mxCell id="92NGAnlIAFUWFbHLshSl-111" value="" style="shape=stencil(lVbLUsMwDPyaXDWWbPlxhvIfzNDSDKVl2vL6e2QySSq3EcPNcbKxV7sru/N3p+3j27ojdzofDy/rz/7pvO38fUfU77frY3+WUedXnb/bHI7r5+Phff80PL891i/r6PXwUf/wNeByASwVRe57mPERAv3OPAyAXb+/AJQIFBQgyIw3AAVSVgBOkJIJCKwAsUAOBoCBNIeMgMYKWTZAClAccF4GpASsSZcEriwDIkPWK6Bz4Nwygn1bJqmDM4QIBLEBBCBeBngPsSlTBDRYk5RJs04M0agrMYSklfOQ0VwBnfYGQrY4ULtCQHCGN+pr1P4mYEsHHL02AuomjRVmihOAgQ3ScxEvVkiGmapMTUbFLFbkJiNMVaLR8UuRc9qubAt34eZJajaVq4HRdq2higZAIqnLVGNrsK6hjzoQDN6QurYVrVxtPcaW+CoQc3O77b4r5YrdLKX5el2luUEvAsp/ABTBaW9kEc4gjbGtUnaAltJA2hlJQmvI4Ns+Jolyxv/FF5oASyc0CFw5VXqC2ZTAaRt5NPlGiDo7hKbt0I/lmM4GGk+L2xuiNp1iIoOA7Lfo5NhN9fok+fOoYmy+T0oAGcwXjk2/2w33lcv37QVFpobLjV/9AA==);lineShape=1;" parent="1" vertex="1">
          <mxGeometry x="141.5512635264281" y="1119.549520184796" width="3.2230755116520413" height="3.2248481794399595" as="geometry" />
        </mxCell>
        <mxCell id="92NGAnlIAFUWFbHLshSl-112" value="" style="shape=stencil(lVbLUsMwDPyaXDWWbPlxhvIfzNDSDKVl2vL6e2QySSq3EcPNcbKxV7sru/N3p+3j27ojdzofDy/rz/7pvO38fUfU77frY3+WUedXnb/bHI7r5+Phff80PL891i/r6PXwUf/wNeByASwVRe57mPERAv3OPAyAXb+/AJQIFBQgyIw3AAVSVgBOkJIJCKwAsUAOBoCBNIeMgMYKWTZAClAccF4GpASsSZcEriwDIkPWK6Bz4Nwygn1bJqmDM4QIBLEBBCBeBngPsSlTBDRYk5RJs04M0agrMYSklfOQ0VwBnfYGQrY4ULtCQHCGN+pr1P4mYEsHHL02AuomjRVmihOAgQ3ScxEvVkiGmapMTUbFLFbkJiNMVaLR8UuRc9qubAt34eZJajaVq4HRdq2higZAIqnLVGNrsK6hjzoQDN6QurYVrVxtPcaW+CoQc3O77b4r5YrdLKX5el2luUEvAsp/ABTBaW9kEc4gjbGtUnaAltJA2hlJQmvI4Ns+Jolyxv/FF5oASyc0CFw5VXqC2ZTAaRt5NPlGiDo7hKbt0I/lmM4GGk+L2xuiNp1iIoOA7Lfo5NhN9fok+fOoYmy+T0oAGcwXjk2/2w33lcv37QVFpobLjV/9AA==);lineShape=1;" parent="1" vertex="1">
          <mxGeometry x="158.5512635264281" y="1147.549520184796" width="3.2230755116520413" height="3.2248481794399595" as="geometry" />
        </mxCell>
        <mxCell id="92NGAnlIAFUWFbHLshSl-113" value="" style="shape=stencil(lVbLUsMwDPyaXDWWbPlxhvIfzNDSDKVl2vL6e2QySSq3EcPNcbKxV7sru/N3p+3j27ojdzofDy/rz/7pvO38fUfU77frY3+WUedXnb/bHI7r5+Phff80PL891i/r6PXwUf/wNeByASwVRe57mPERAv3OPAyAXb+/AJQIFBQgyIw3AAVSVgBOkJIJCKwAsUAOBoCBNIeMgMYKWTZAClAccF4GpASsSZcEriwDIkPWK6Bz4Nwygn1bJqmDM4QIBLEBBCBeBngPsSlTBDRYk5RJs04M0agrMYSklfOQ0VwBnfYGQrY4ULtCQHCGN+pr1P4mYEsHHL02AuomjRVmihOAgQ3ScxEvVkiGmapMTUbFLFbkJiNMVaLR8UuRc9qubAt34eZJajaVq4HRdq2higZAIqnLVGNrsK6hjzoQDN6QurYVrVxtPcaW+CoQc3O77b4r5YrdLKX5el2luUEvAsp/ABTBaW9kEc4gjbGtUnaAltJA2hlJQmvI4Ns+Jolyxv/FF5oASyc0CFw5VXqC2ZTAaRt5NPlGiDo7hKbt0I/lmM4GGk+L2xuiNp1iIoOA7Lfo5NhN9fok+fOoYmy+T0oAGcwXjk2/2w33lcv37QVFpobLjV/9AA==);lineShape=1;" parent="1" vertex="1">
          <mxGeometry x="183.5512635264281" y="1159.5495201847962" width="3.2230755116520413" height="3.224848179439732" as="geometry" />
        </mxCell>
        <mxCell id="92NGAnlIAFUWFbHLshSl-114" value="" style="shape=stencil(lVbLUsMwDPyaXDWWbPlxhvIfzNDSDKVl2vL6e2QySSq3EcPNcbKxV7sru/N3p+3j27ojdzofDy/rz/7pvO38fUfU77frY3+WUedXnb/bHI7r5+Phff80PL891i/r6PXwUf/wNeByASwVRe57mPERAv3OPAyAXb+/AJQIFBQgyIw3AAVSVgBOkJIJCKwAsUAOBoCBNIeMgMYKWTZAClAccF4GpASsSZcEriwDIkPWK6Bz4Nwygn1bJqmDM4QIBLEBBCBeBngPsSlTBDRYk5RJs04M0agrMYSklfOQ0VwBnfYGQrY4ULtCQHCGN+pr1P4mYEsHHL02AuomjRVmihOAgQ3ScxEvVkiGmapMTUbFLFbkJiNMVaLR8UuRc9qubAt34eZJajaVq4HRdq2higZAIqnLVGNrsK6hjzoQDN6QurYVrVxtPcaW+CoQc3O77b4r5YrdLKX5el2luUEvAsp/ABTBaW9kEc4gjbGtUnaAltJA2hlJQmvI4Ns+Jolyxv/FF5oASyc0CFw5VXqC2ZTAaRt5NPlGiDo7hKbt0I/lmM4GGk+L2xuiNp1iIoOA7Lfo5NhN9fok+fOoYmy+T0oAGcwXjk2/2w33lcv37QVFpobLjV/9AA==);lineShape=1;" parent="1" vertex="1">
          <mxGeometry x="482.5512635264281" y="1154.5495201847962" width="3.2230755116520413" height="3.224848179439732" as="geometry" />
        </mxCell>
        <mxCell id="92NGAnlIAFUWFbHLshSl-115" value="" style="shape=stencil(lVbLUsMwDPyaXDWWbPlxhvIfzNDSDKVl2vL6e2QySSq3EcPNcbKxV7sru/N3p+3j27ojdzofDy/rz/7pvO38fUfU77frY3+WUedXnb/bHI7r5+Phff80PL891i/r6PXwUf/wNeByASwVRe57mPERAv3OPAyAXb+/AJQIFBQgyIw3AAVSVgBOkJIJCKwAsUAOBoCBNIeMgMYKWTZAClAccF4GpASsSZcEriwDIkPWK6Bz4Nwygn1bJqmDM4QIBLEBBCBeBngPsSlTBDRYk5RJs04M0agrMYSklfOQ0VwBnfYGQrY4ULtCQHCGN+pr1P4mYEsHHL02AuomjRVmihOAgQ3ScxEvVkiGmapMTUbFLFbkJiNMVaLR8UuRc9qubAt34eZJajaVq4HRdq2higZAIqnLVGNrsK6hjzoQDN6QurYVrVxtPcaW+CoQc3O77b4r5YrdLKX5el2luUEvAsp/ABTBaW9kEc4gjbGtUnaAltJA2hlJQmvI4Ns+Jolyxv/FF5oASyc0CFw5VXqC2ZTAaRt5NPlGiDo7hKbt0I/lmM4GGk+L2xuiNp1iIoOA7Lfo5NhN9fok+fOoYmy+T0oAGcwXjk2/2w33lcv37QVFpobLjV/9AA==);lineShape=1;" parent="1" vertex="1">
          <mxGeometry x="364.5512635264281" y="1035.5495201847962" width="3.2230755116520413" height="3.224848179439732" as="geometry" />
        </mxCell>
        <mxCell id="92NGAnlIAFUWFbHLshSl-116" value="" style="shape=stencil(lVbLUsMwDPyaXDWWbPlxhvIfzNDSDKVl2vL6e2QySSq3EcPNcbKxV7sru/N3p+3j27ojdzofDy/rz/7pvO38fUfU77frY3+WUedXnb/bHI7r5+Phff80PL891i/r6PXwUf/wNeByASwVRe57mPERAv3OPAyAXb+/AJQIFBQgyIw3AAVSVgBOkJIJCKwAsUAOBoCBNIeMgMYKWTZAClAccF4GpASsSZcEriwDIkPWK6Bz4Nwygn1bJqmDM4QIBLEBBCBeBngPsSlTBDRYk5RJs04M0agrMYSklfOQ0VwBnfYGQrY4ULtCQHCGN+pr1P4mYEsHHL02AuomjRVmihOAgQ3ScxEvVkiGmapMTUbFLFbkJiNMVaLR8UuRc9qubAt34eZJajaVq4HRdq2higZAIqnLVGNrsK6hjzoQDN6QurYVrVxtPcaW+CoQc3O77b4r5YrdLKX5el2luUEvAsp/ABTBaW9kEc4gjbGtUnaAltJA2hlJQmvI4Ns+Jolyxv/FF5oASyc0CFw5VXqC2ZTAaRt5NPlGiDo7hKbt0I/lmM4GGk+L2xuiNp1iIoOA7Lfo5NhN9fok+fOoYmy+T0oAGcwXjk2/2w33lcv37QVFpobLjV/9AA==);lineShape=1;" parent="1" vertex="1">
          <mxGeometry x="315.5512635264281" y="1156.5495201847962" width="3.2230755116520413" height="3.224848179439732" as="geometry" />
        </mxCell>
        <mxCell id="92NGAnlIAFUWFbHLshSl-117" value="" style="shape=stencil(lVbLUsMwDPyaXDWWbPlxhvIfzNDSDKVl2vL6e2QySSq3EcPNcbKxV7sru/N3p+3j27ojdzofDy/rz/7pvO38fUfU77frY3+WUedXnb/bHI7r5+Phff80PL891i/r6PXwUf/wNeByASwVRe57mPERAv3OPAyAXb+/AJQIFBQgyIw3AAVSVgBOkJIJCKwAsUAOBoCBNIeMgMYKWTZAClAccF4GpASsSZcEriwDIkPWK6Bz4Nwygn1bJqmDM4QIBLEBBCBeBngPsSlTBDRYk5RJs04M0agrMYSklfOQ0VwBnfYGQrY4ULtCQHCGN+pr1P4mYEsHHL02AuomjRVmihOAgQ3ScxEvVkiGmapMTUbFLFbkJiNMVaLR8UuRc9qubAt34eZJajaVq4HRdq2higZAIqnLVGNrsK6hjzoQDN6QurYVrVxtPcaW+CoQc3O77b4r5YrdLKX5el2luUEvAsp/ABTBaW9kEc4gjbGtUnaAltJA2hlJQmvI4Ns+Jolyxv/FF5oASyc0CFw5VXqC2ZTAaRt5NPlGiDo7hKbt0I/lmM4GGk+L2xuiNp1iIoOA7Lfo5NhN9fok+fOoYmy+T0oAGcwXjk2/2w33lcv37QVFpobLjV/9AA==);lineShape=1;" parent="1" vertex="1">
          <mxGeometry x="306.5512635264281" y="1238.5495201847962" width="3.2230755116520413" height="3.224848179439732" as="geometry" />
        </mxCell>
        <mxCell id="92NGAnlIAFUWFbHLshSl-118" value="" style="shape=stencil(lVbLUsMwDPyaXDWWbPlxhvIfzNDSDKVl2vL6e2QySSq3EcPNcbKxV7sru/N3p+3j27ojdzofDy/rz/7pvO38fUfU77frY3+WUedXnb/bHI7r5+Phff80PL891i/r6PXwUf/wNeByASwVRe57mPERAv3OPAyAXb+/AJQIFBQgyIw3AAVSVgBOkJIJCKwAsUAOBoCBNIeMgMYKWTZAClAccF4GpASsSZcEriwDIkPWK6Bz4Nwygn1bJqmDM4QIBLEBBCBeBngPsSlTBDRYk5RJs04M0agrMYSklfOQ0VwBnfYGQrY4ULtCQHCGN+pr1P4mYEsHHL02AuomjRVmihOAgQ3ScxEvVkiGmapMTUbFLFbkJiNMVaLR8UuRc9qubAt34eZJajaVq4HRdq2higZAIqnLVGNrsK6hjzoQDN6QurYVrVxtPcaW+CoQc3O77b4r5YrdLKX5el2luUEvAsp/ABTBaW9kEc4gjbGtUnaAltJA2hlJQmvI4Ns+Jolyxv/FF5oASyc0CFw5VXqC2ZTAaRt5NPlGiDo7hKbt0I/lmM4GGk+L2xuiNp1iIoOA7Lfo5NhN9fok+fOoYmy+T0oAGcwXjk2/2w33lcv37QVFpobLjV/9AA==);lineShape=1;" parent="1" vertex="1">
          <mxGeometry x="201.5512635264281" y="1294.5495201847962" width="3.2230755116520413" height="3.224848179439732" as="geometry" />
        </mxCell>
        <mxCell id="92NGAnlIAFUWFbHLshSl-119" value="" style="shape=stencil(lVbLUsMwDPyaXDWWbPlxhvIfzNDSDKVl2vL6e2QySSq3EcPNcbKxV7sru/N3p+3j27ojdzofDy/rz/7pvO38fUfU77frY3+WUedXnb/bHI7r5+Phff80PL891i/r6PXwUf/wNeByASwVRe57mPERAv3OPAyAXb+/AJQIFBQgyIw3AAVSVgBOkJIJCKwAsUAOBoCBNIeMgMYKWTZAClAccF4GpASsSZcEriwDIkPWK6Bz4Nwygn1bJqmDM4QIBLEBBCBeBngPsSlTBDRYk5RJs04M0agrMYSklfOQ0VwBnfYGQrY4ULtCQHCGN+pr1P4mYEsHHL02AuomjRVmihOAgQ3ScxEvVkiGmapMTUbFLFbkJiNMVaLR8UuRc9qubAt34eZJajaVq4HRdq2higZAIqnLVGNrsK6hjzoQDN6QurYVrVxtPcaW+CoQc3O77b4r5YrdLKX5el2luUEvAsp/ABTBaW9kEc4gjbGtUnaAltJA2hlJQmvI4Ns+Jolyxv/FF5oASyc0CFw5VXqC2ZTAaRt5NPlGiDo7hKbt0I/lmM4GGk+L2xuiNp1iIoOA7Lfo5NhN9fok+fOoYmy+T0oAGcwXjk2/2w33lcv37QVFpobLjV/9AA==);lineShape=1;" parent="1" vertex="1">
          <mxGeometry x="273.5512635264281" y="1350.5495201847962" width="3.2230755116520413" height="3.224848179439732" as="geometry" />
        </mxCell>
        <mxCell id="92NGAnlIAFUWFbHLshSl-120" value="" style="shape=stencil(lVbLUsMwDPyaXDWWbPlxhvIfzNDSDKVl2vL6e2QySSq3EcPNcbKxV7sru/N3p+3j27ojdzofDy/rz/7pvO38fUfU77frY3+WUedXnb/bHI7r5+Phff80PL891i/r6PXwUf/wNeByASwVRe57mPERAv3OPAyAXb+/AJQIFBQgyIw3AAVSVgBOkJIJCKwAsUAOBoCBNIeMgMYKWTZAClAccF4GpASsSZcEriwDIkPWK6Bz4Nwygn1bJqmDM4QIBLEBBCBeBngPsSlTBDRYk5RJs04M0agrMYSklfOQ0VwBnfYGQrY4ULtCQHCGN+pr1P4mYEsHHL02AuomjRVmihOAgQ3ScxEvVkiGmapMTUbFLFbkJiNMVaLR8UuRc9qubAt34eZJajaVq4HRdq2higZAIqnLVGNrsK6hjzoQDN6QurYVrVxtPcaW+CoQc3O77b4r5YrdLKX5el2luUEvAsp/ABTBaW9kEc4gjbGtUnaAltJA2hlJQmvI4Ns+Jolyxv/FF5oASyc0CFw5VXqC2ZTAaRt5NPlGiDo7hKbt0I/lmM4GGk+L2xuiNp1iIoOA7Lfo5NhN9fok+fOoYmy+T0oAGcwXjk2/2w33lcv37QVFpobLjV/9AA==);lineShape=1;" parent="1" vertex="1">
          <mxGeometry x="356.5512635264281" y="1309.5495201847962" width="3.2230755116520413" height="3.224848179439732" as="geometry" />
        </mxCell>
        <mxCell id="9-3F_JSrLS_-tjLhmpIK-1" value="" style="rounded=0;whiteSpace=wrap;html=1;" vertex="1" parent="1">
          <mxGeometry x="370" y="1010" width="120" height="60" as="geometry" />
        </mxCell>
        <mxCell id="9-3F_JSrLS_-tjLhmpIK-2" value="" style="shape=stencil(lVnZchw3DPyafUURBM9nx/kPV1mOtqJILllO4r93T7a4WoIzvfHbHsAMATQaB0/24dvjp68Ppxi+vb2+/Pnwz/nz2+PJfjvFeH5+fHg9v+HTyT6e7MOXl9eHP15fvj9/vnz/+mmT3D799fL39oR/L3olSs+bVgw/Lr8E0frfD79f5J/Oz7fyWaJO8lGCEfkiPU7yJqkT+SatTPJZtBzLVxW1Sb5KaETepM7P72Lk/LVInu1VlZKJQpdYZ4UkIRwrNJXuFIoYMaElyU6h0SM1uMTFLEhjR4INMygQ5RaPFbpK7LNCkpqIgi1HKpKIDR1GzziKjQKvZ2nOhs7fAKTONliQyhSq9Bl6piOZ9hUQpjlwdnXDvgLikLxCJ9kDBX8kuIF4SUMY4Lxq1JGBR68os1+tDQAfKYQ5cgkUw92k85GSSmJvKNJmNyWwGvNr9qSRAC8GJltsAFzZG4JkZ0OTTNyKHHVJnVUCySCwgDtSBjaIAoiptlmhSiQsUJP0mSpLGI/Y525AY45DSVIIbeBvnVkA9M/ikJuk+Ug1SiJvyFHqnNQg9EjekOCT2a3wWyNGp2v9GwrNBnvuKiC/bD5SKzQOyHlXUVobRWxXAUTneAZw7EwBYJ5t6JzvtyI+Rxr8zPIBBccfKVMbUNIcvLcsZwp55NdVoUolR9LFrSAeVndR+DV6BQaN7nmsd4qM6qsu5Gk2SDEvz4pu8q0b5Bvh1bh0Mu/VYlcBKGtLCEi5UrHo5RnsdDG40oKrw7ybgLHKs6Qy5CmqJXQvzyC3Pr9Tf+qA1y2AWA7sAIIVztX/AByJV/Ad0tYMkHgh6cvyfHL+IFaX8xN/XvuIG3klCRkWTmm0T1h6o62D4/ILHoz6JzYvz4YXNBXOXuCf5qPHf6V9vy4EcU8+r/nI8bz4k9mrC964P+N42v+MF+SLl+fn767qcbyp1CW/GJ51KcM8X3SnwLB8/FX56McP+CcSPlnauTvxyksXAXnWke7wsxK+amP2ucUbi2/w3eJWwJhD406GMQvQpfgQFCkMQlWSw3SmfdBGQg7UiSYxouzmAkw7rGogbNW5VWnaIA5ux4R+NLAWOUqegYHxqDGF4iePlmkcMFH6njqKkTek63riOhc0Oopj8nDFo+JIpDvDNOaqZdWx89ifnswvXUodbjjarTl44xEM3pgAgxtKeccIn7ilSy7jkPsZaj6l83XU3lcofrDOYaTU0S7L5iNhxGOkCjA7eCcEjimY34gkG0R+uH5YFhxssAZH6ByHFPguq3ovWeM2VD/rI6XYyPje2d9smuiSpoouuyy6Iix+oAMtsO56myhnIjPlW5009ns3G7/I3mB+GRz5JN6XDgM1jHUMfWmBwbaZwbsNUrkqAI5MofgivbVxbN1snpe0j7p9tNB2rIEixu4UwBq2rMwbiQOYtLilfKTgq9HzkvIdZA2+Fa7jHmOfWqu/5ih0s1uyL4mJ5mdJvl7Fsendl18vFcZsciTvrl0CXeoW9bkWxg72UD45+cLPU/21VL7z/O7k7Y69/vxssi5LNef4gbx6ewPzZxztyo08w0/0bSHfzEC+eH+yMgv5pl6erX5/9Rrxrjw+vN9Zfjk/PV2uPG//93ec+OlyP2offwI=);lineShape=1;" vertex="1" parent="1">
          <mxGeometry x="-324.8590304376162" y="649.5766508781867" width="198.30504737549563" height="226.36521246398934" as="geometry" />
        </mxCell>
      </root>
    </mxGraphModel>
  </diagram>
</mxfile>
